<svg xmlns="http://www.w3.org/2000/svg" width="633.333" height="118.667"><path d="M629.427 53.784c-1.2 1.636-2.818 2.913-4.862 3.845-2.044.924-4.248 1.39-6.608 1.39-4.386 0-8.048-1.425-10.966-4.266-2.927-2.843-4.386-6.354-4.386-10.533 0-4.24 1.495-7.787 4.479-10.646 2.983-2.851 6.72-4.277 11.208-4.277 2.305 0 4.415.44 6.337 1.329a12.606 12.606 0 014.798 3.828v-4.54h3.754V58.27h-3.754zm0-9.871c0-3.01-1.135-5.632-3.403-7.876-2.267-2.244-4.888-3.361-7.843-3.361-3.216 0-5.948 1.117-8.206 3.361-2.259 2.244-3.392 5.024-3.392 8.342 0 3.158 1.124 5.825 3.373 7.997 2.25 2.173 4.953 3.264 8.113 3.264 3.048 0 5.707-1.144 7.964-3.44 2.259-2.296 3.394-5.059 3.394-8.287m-53.699-9.556a11.946 11.946 0 014.535-3.731c1.804-.853 3.829-1.275 6.06-1.275 4.07 0 7.025 1.152 8.874 3.466 1.85 2.314 2.779 6.027 2.779 11.148V58.27h-3.68V43.217c0-3.74-.65-6.406-1.961-7.998-1.3-1.592-3.439-2.385-6.394-2.385-1.71 0-3.206.335-4.506.995a7.613 7.613 0 00-3.087 2.842c-.455.774-.78 1.654-.985 2.648-.194.986-.298 2.71-.298 5.165v13.787h-3.624V42.4c0-3.265-.696-5.675-2.1-7.233-1.393-1.557-3.541-2.332-6.422-2.332-1.747 0-3.271.335-4.591.995a7.633 7.633 0 00-3.113 2.842 7.773 7.773 0 00-.995 2.648c-.195.986-.288 2.71-.288 5.165v13.787h-3.781V29.914h3.781v3.229a11.054 11.054 0 014.043-2.834c1.552-.642 3.309-.958 5.269-.958 2.268 0 4.341.448 6.208 1.355 1.87.905 3.3 2.12 4.276 3.651M542.16 58.271V20.737h3.837V58.27h-3.837m-9.879-4.486c-1.2 1.636-2.817 2.913-4.861 3.845-2.044.924-4.248 1.39-6.608 1.39-4.387 0-8.048-1.425-10.967-4.266-2.926-2.843-4.385-6.354-4.385-10.533 0-4.24 1.496-7.787 4.479-10.646 2.984-2.851 6.718-4.277 11.208-4.277 2.305 0 4.414.44 6.338 1.329a12.612 12.612 0 014.796 3.828v-4.54h3.755V58.27h-3.755zm0-9.871c0-3.01-1.134-5.632-3.402-7.876-2.267-2.244-4.888-3.361-7.844-3.361-3.215 0-5.947 1.117-8.207 3.361-2.257 2.244-3.392 5.024-3.392 8.342 0 3.158 1.125 5.825 3.375 7.997 2.249 2.173 4.953 3.264 8.113 3.264 3.048 0 5.707-1.144 7.964-3.44 2.259-2.296 3.393-5.059 3.393-8.287m-59.824 14.358v-37.79h13.616c2.648 0 4.674.124 6.068.361 1.962.308 3.607.898 4.935 1.768 1.32.863 2.388 2.086 3.197 3.643.808 1.567 1.208 3.282 1.208 5.156 0 3.212-1.077 5.939-3.233 8.166-2.165 2.216-6.07 3.334-11.71 3.334h-10.242v15.362zm3.839-19.274h11.164c3.69 0 6.312-.647 7.859-1.95 1.548-1.303 2.321-3.13 2.321-5.489 0-1.712-.452-3.178-1.367-4.395-.914-1.218-2.11-2.018-3.608-2.407-.964-.238-2.733-.362-5.325-.362h-11.044v14.603m-57.666 5.126c0-4.162 1.506-7.716 4.517-10.672 3.01-2.957 6.58-4.435 10.705-4.435 4.332 0 8.03 1.452 11.088 4.355 3.057 2.904 4.59 6.37 4.59 10.392 0 4.222-1.495 7.83-4.489 10.822-3.001 2.991-6.626 4.487-10.892 4.487-4.34 0-8.01-1.47-11.012-4.4-3.001-2.93-4.508-6.44-4.508-10.55zm4.034-.062c0 3.273 1.096 6.01 3.29 8.219 2.202 2.208 4.925 3.307 8.195 3.307 3.207 0 5.902-1.099 8.087-3.307 2.173-2.209 3.261-4.963 3.261-8.262 0-3.352-1.106-6.107-3.309-8.262-2.203-2.157-4.999-3.238-8.392-3.238-3.048 0-5.668 1.109-7.853 3.326-2.183 2.217-3.279 4.953-3.279 8.217m-12.334-9.66V20.737h3.867V58.27h-3.866v-4.276c-1.348 1.575-3.011 2.807-5.01 3.695-1.998.89-4.108 1.33-6.348 1.33-4.321 0-7.954-1.444-10.91-4.33-2.964-2.885-4.442-6.431-4.442-10.62 0-4.161 1.459-7.663 4.386-10.505 2.92-2.842 6.58-4.268 10.966-4.268 2.362 0 4.508.432 6.442 1.303a13.255 13.255 0 014.916 3.801zm.113 9.978c0-3.23-1.135-5.993-3.392-8.27-2.259-2.289-4.918-3.433-7.966-3.433-3.16 0-5.864 1.091-8.113 3.265-2.248 2.173-3.373 4.83-3.373 7.972 0 3.316 1.133 6.096 3.392 8.349 2.258 2.253 4.99 3.378 8.206 3.378 2.955 0 5.567-1.125 7.843-3.378 2.268-2.253 3.403-4.875 3.403-7.883m-35.4 13.892h-3.894V29.914h3.624v3.272c.939-1.257 1.971-2.172 3.086-2.762 1.125-.581 2.425-.89 3.913-.924l.028 3.942c-2.417.202-4.145.889-5.187 2.05-1.05 1.162-1.57 3.044-1.57 5.657V58.27m-13.662-4.486c-1.198 1.636-2.816 2.913-4.861 3.845-2.044.924-4.247 1.39-6.607 1.39-4.386 0-8.049-1.425-10.966-4.266-2.928-2.843-4.387-6.354-4.387-10.533 0-4.24 1.497-7.787 4.48-10.646 2.983-2.851 6.719-4.277 11.208-4.277 2.304 0 4.413.44 6.337 1.329a12.602 12.602 0 014.796 3.828v-4.54h3.755V58.27h-3.755zm0-9.871c0-3.01-1.133-5.632-3.401-7.876-2.268-2.244-4.89-3.361-7.844-3.361-3.216 0-5.948 1.117-8.205 3.361-2.259 2.244-3.394 5.024-3.394 8.342 0 3.158 1.126 5.825 3.374 7.997 2.249 2.173 4.954 3.264 8.113 3.264 3.05 0 5.707-1.144 7.965-3.44 2.259-2.296 3.392-5.059 3.392-8.287m-35.129-5.289c-1.18-2.059-2.621-3.58-4.312-4.575-1.701-.985-3.719-1.478-6.06-1.478-3.085 0-5.707 1.108-7.853 3.325-2.147 2.218-3.224 4.954-3.224 8.218 0 3.265 1.077 5.992 3.242 8.183 2.158 2.191 4.824 3.29 8.003 3.29 2.323 0 4.368-.545 6.152-1.627 1.775-1.082 3.123-2.595 4.052-4.557h4.247c-1.162 3.08-2.983 5.455-5.474 7.144-2.481 1.68-5.418 2.525-8.792 2.525-4.34 0-8.002-1.46-10.985-4.373-2.983-2.912-4.479-6.423-4.479-10.531 0-4.189 1.515-7.744 4.535-10.656 3.02-2.912 6.701-4.372 11.041-4.372 3.243 0 6.106.826 8.587 2.49 2.481 1.654 4.33 3.985 5.567 6.994h-4.247m-34.005 19.647V29.914h3.838V58.27h-3.838m3.838-31.682h-3.838v-5.851h3.838v5.851m-39.973 31.683v-37.79h13.616c6.908 0 15.41 1.526 15.41 10.313 0 6.73-5.058 9.538-10.682 10.392 2.759 1.553 4.472 3.121 7.01 6.8l6.942 10.285h-5.012l-5.43-7.954c-1.542-2.262-2.815-4.004-3.818-5.201-.86-1.04-4.02-3.236-5.75-3.624h-.749c-.226.006-.442.01-.542 0h-7.155v16.78zm3.84-20.691h11.163c4.428 0 10.18-1.129 10.18-6.638 0-5.9-5.807-6.548-10.3-6.548h-11.043V37.58" fill="#3c3d43"/><path d="M99.674 29.656c-1.796-2.407-3.807-4.186-6.035-5.321-2.218-1.135-4.756-1.698-7.595-1.698-4.465 0-8.28 1.598-11.45 4.785-3.167 3.196-4.746 6.992-4.746 11.395 0 4.677 1.58 8.626 4.728 11.84 3.15 3.206 6.966 4.813 11.468 4.813 2.773 0 5.283-.563 7.52-1.68 2.237-1.117 4.183-2.787 5.838-5.003h4.68c-1.833 3.296-4.296 5.847-7.379 7.655-3.083 1.798-6.542 2.696-10.386 2.696-5.894 0-10.81-1.943-14.749-5.83-3.938-3.876-5.903-8.733-5.903-14.545 0-2.715.536-5.285 1.598-7.718s2.622-4.622 4.681-6.574c1.908-1.843 4.052-3.241 6.43-4.186 2.378-.953 4.954-1.425 7.726-1.425 3.986 0 7.567.935 10.754 2.815 3.187 1.88 5.705 4.54 7.557 7.98zm9.889 28.71V19.633h3.882v38.735zm10.217 0V29.103h3.883v29.265zm1.053-33.168h-2.538l5.762-9.307h4.183zm9.109 3.904h3.769v3.332c1.194-1.335 2.576-2.315 4.145-2.95 1.57-.645 3.365-.963 5.387-.963 2.217 0 4.192.4 5.93 1.199 1.739.798 3.112 1.943 4.118 3.432.696 1.044 1.194 2.27 1.504 3.686.3 1.407.45 3.487.45 6.238v15.29h-3.825v-16.38c0-3.459-.687-5.965-2.05-7.527-1.371-1.562-3.562-2.342-6.57-2.342-1.767 0-3.308.344-4.643 1.025a7.779 7.779 0 00-3.149 2.933c-.48.799-.817 1.707-1.005 2.733-.198 1.017-.292 2.797-.292 5.33v14.229h-3.77zm35.418-3.432h-3.881v-6.038h3.881zm-3.881 32.697V29.102h3.881v29.265zm34.393-20.276c-1.193-2.125-2.65-3.696-4.361-4.722-1.72-1.016-3.76-1.525-6.13-1.525-3.12 0-5.77 1.144-7.942 3.432-2.171 2.288-3.262 5.113-3.262 8.48 0 3.37 1.091 6.185 3.28 8.446 2.182 2.26 4.879 3.395 8.094 3.395 2.35 0 4.418-.563 6.222-1.68 1.796-1.116 3.159-2.678 4.099-4.703h4.296c-1.175 3.178-3.017 5.63-5.536 7.372-2.51 1.735-5.481 2.607-8.893 2.607-4.39 0-8.094-1.508-11.111-4.513-3.016-3.005-4.53-6.628-4.53-10.869 0-4.322 1.531-7.99 4.587-10.995 3.055-3.006 6.776-4.513 11.167-4.513 3.28 0 6.176.853 8.685 2.57 2.51 1.707 4.38 4.112 5.631 7.218zm35.532 5.457c0-3.106-1.147-5.812-3.44-8.127-2.295-2.315-4.945-3.468-7.933-3.468-3.254 0-6.016 1.153-8.302 3.468-2.284 2.315-3.43 5.185-3.43 8.608 0 3.26 1.137 6.011 3.413 8.254 2.273 2.242 5.01 3.369 8.205 3.369 3.083 0 5.771-1.18 8.056-3.55 2.284-2.37 3.431-5.221 3.431-8.554zm0 10.188c-1.213 1.689-2.848 3.005-4.916 3.968-2.068.953-4.296 1.434-6.684 1.434-4.436 0-8.14-1.47-11.092-4.404-2.96-2.932-4.436-6.555-4.436-10.868 0-4.377 1.513-8.036 4.53-10.987 3.018-2.942 6.797-4.413 11.337-4.413 2.33 0 4.465.454 6.41 1.371a12.8 12.8 0 014.851 3.95v-4.685h3.797v29.265h-3.797v-4.631" fill="#30b9ad"/><path d="M454.21 89.884c4.438-.547 7.885-4.6 7.885-9.52 0-3.1-1.364-5.853-3.48-7.607-2.698 1.186-4.598 4.038-4.598 7.367v9.762h.135l.057-.002" fill="#ef3364"/><path d="M433.772 82.396c0 9.505 7.161 17.329 16.383 18.384.036 0 .08.004.12.004h.277V81.932c0-6.427-3.945-11.928-9.541-14.22h-.002c-4.401 3.384-7.237 8.7-7.237 14.684m130.889 8.393h-2.458c-1.802 0-2.703-.763-2.703-2.294 0-1.638 1.43-2.459 4.295-2.459 2.053 0 4.09.329 6.112.985v-2.624a23.374 23.374 0 00-6.112-.817c-4.775 0-7.163 1.638-7.163 4.915 0 3.386 1.857 5.082 5.57 5.082h2.46c1.911 0 2.869.762 2.869 2.292 0 1.64-1.372 2.458-4.114 2.458-2.065 0-4.109-.328-6.13-.982v2.622c2.021.544 4.065.818 6.13.818 4.764 0 7.144-1.64 7.144-4.916 0-3.387-1.966-5.08-5.9-5.08m19.979 5.867c-1.452 1.115-3.228 1.672-5.328 1.672-2.075 0-3.112-.929-3.112-2.786s1.316-2.785 3.95-2.785c1.495 0 2.993.108 4.49.327zm-4.639-13.077c-1.769 0-3.582.274-5.441.819v2.458c1.859-.545 3.672-.819 5.441-.819 3.094 0 4.639.989 4.639 2.966v1.624a30.966 30.966 0 00-4.49-.328c-4.655 0-6.982 1.763-6.982 5.293 0 3.463 2.05 5.194 6.144 5.194 2.021 0 3.89-.569 5.605-1.705l1.051 1.705h1.704V88.923c0-3.563-2.557-5.344-7.67-5.344m12.079 17.206h3.031V77.35h-3.03v23.434m19.239-4.702c-1.573 1.453-3.229 2.18-4.966 2.18-2.534 0-3.803-1.278-3.803-3.833v-10.85h-3.03v10.8c0 4.271 1.977 6.407 5.93 6.407 2.11 0 4.208-.732 6.296-2.196l.521 2.196h2.083V83.579h-3.03v12.503m18.828 1.54c-1.222.428-2.622.64-4.195.64-3.463 0-5.195-2.181-5.195-6.537 0-3.683 1.732-5.524 5.195-5.524 1.573 0 2.973.295 4.196.884zm0-20.27v7.045a10.943 10.943 0 00-4.211-.818c-5.44 0-8.162 2.754-8.162 8.259 0 5.964 2.56 8.947 7.686 8.947 3.06 0 5.632-.343 7.718-1.032V77.351h-3.03" fill="#30b9ad"/><path d="M494.213 96.082c-1.574 1.453-3.229 2.18-4.964 2.18-2.537 0-3.802-1.278-3.802-3.833v-10.85h-3.034v10.8c0 4.271 1.978 6.407 5.932 6.407 2.112 0 4.207-.732 6.295-2.196l.523 2.196h2.082V83.579h-3.032v12.503m7.604 4.703h3.031V83.578h-3.03v17.207m9.652-17.205h-2.049v17.206h3.031V88.282c1.28-1.451 2.947-2.178 5-2.178V83.58c-2.12 0-3.933.731-5.441 2.198l-.542-2.198m15.288 14.747c-3.44 0-5.162-2.069-5.162-6.21 0-4.053 1.722-6.08 5.162-6.08s5.162 2.027 5.162 6.08c0 4.141-1.722 6.21-5.162 6.21zm1.919-14.613l2.49-2.49h-3.918l-1.65 2.409c-4.687.391-7.037 3.238-7.037 8.55.024 5.723 2.755 8.586 8.196 8.586 5.462 0 8.194-2.863 8.194-8.586 0-5.02-2.094-7.842-6.275-8.469m18.091-.134c-2.11 0-4.043.73-5.799 2.197l-.544-2.198h-2.048v17.207h3.03V88.282c1.565-1.451 3.215-2.178 4.951-2.178 2.546 0 3.818 1.278 3.818 3.836v10.846h3.03V89.987c0-4.27-2.144-6.408-6.438-6.408M475.573 97.3c-1.19.591-2.574.886-4.152.886-3.469 0-5.202-2.04-5.202-6.121 0-3.97 1.832-5.957 5.498-5.957 1.534 0 2.819.13 3.856.393zm-12.341-5.202c0 5.809 2.725 8.717 8.175 8.717 1.488 0 2.877-.276 4.166-.821v8.926h3.039V84.285a32.052 32.052 0 00-6.761-.705c-5.746 0-8.619 2.84-8.619 8.519m38.585-10.797h3.031v-2.87h-3.03v2.87" fill="#3c3d43"/><path d="M374.59 86.641c0 .162-.009.305-.027.427a1.523 1.523 0 01-.074.31.382.382 0 01-.13.169.277.277 0 01-.166.052c-.1 0-.269-.082-.509-.244a8.198 8.198 0 00-.959-.54 8.928 8.928 0 00-1.437-.54c-.557-.161-1.219-.243-1.981-.243-.914 0-1.728.165-2.451.496a5.313 5.313 0 00-1.837 1.38c-.507.588-.89 1.285-1.159 2.095a8.358 8.358 0 00-.401 2.63c0 1.059.148 1.995.44 2.813.296.814.701 1.507 1.224 2.069a5.005 5.005 0 001.858 1.276c.719.292 1.512.435 2.37.435a6.58 6.58 0 001.554-.187 5.868 5.868 0 001.463-.553v-4.825h-3.823c-.148 0-.257-.074-.326-.218-.075-.144-.11-.37-.11-.679 0-.16.01-.3.027-.414a.885.885 0 01.083-.283.438.438 0 01.134-.157.322.322 0 01.192-.052h5.239a.808.808 0 01.535.205c.078.07.14.161.178.279.044.122.066.256.066.409v6.301c0 .222-.039.414-.112.575-.079.161-.24.304-.49.427a9.482 9.482 0 01-.957.4 10.507 10.507 0 01-2.473.601c-.427.052-.85.079-1.263.079-1.28 0-2.421-.197-3.423-.592a6.993 6.993 0 01-2.548-1.695 7.388 7.388 0 01-1.588-2.63c-.366-1.023-.549-2.16-.549-3.423 0-1.31.196-2.5.592-3.562.396-1.062.953-1.968 1.672-2.721a7.476 7.476 0 012.587-1.742c1.01-.414 2.125-.618 3.349-.618.63 0 1.219.056 1.772.165a11.96 11.96 0 011.476.392c.427.152.788.313 1.084.492.292.174.492.318.605.431.11.109.188.24.227.383.044.144.065.353.065.627zm10.046 3.197c0 .187-.005.344-.015.47a1.12 1.12 0 01-.052.3.375.375 0 01-.094.166c-.036.04-.088.057-.158.057a.665.665 0 01-.248-.057 5.133 5.133 0 00-.745-.222 2.245 2.245 0 00-.496-.053c-.213 0-.423.044-.627.127a2.369 2.369 0 00-.64.427 5.335 5.335 0 00-.71.779 19.01 19.01 0 00-.815 1.193v7.555c0 .07-.017.127-.052.175a.42.42 0 01-.165.122 1.39 1.39 0 01-.322.074 4.327 4.327 0 01-.522.026c-.21 0-.38-.009-.515-.026a1.446 1.446 0 01-.327-.074.391.391 0 01-.169-.122.313.313 0 01-.044-.175V89.093a.35.35 0 01.04-.174.349.349 0 01.152-.127.884.884 0 01.296-.078c.117-.013.279-.017.475-.017.186 0 .344.004.466.017.126.014.222.04.291.078a.48.48 0 01.148.127.35.35 0 01.044.174v1.672a9.26 9.26 0 01.884-1.128c.279-.287.54-.518.784-.683.248-.166.492-.28.73-.345a2.85 2.85 0 01.737-.095c.109 0 .236.004.374.017a3.654 3.654 0 01.853.187c.123.044.21.083.263.127a.307.307 0 01.1.122.81.81 0 01.048.143c.012.061.022.148.026.262.005.118.005.27.005.466zm11.687 10.742a.33.33 0 01-.043.175.394.394 0 01-.161.122 1.29 1.29 0 01-.302.074 3.328 3.328 0 01-.452.026 3.56 3.56 0 01-.474-.026 1.22 1.22 0 01-.296-.074.313.313 0 01-.144-.122.35.35 0 01-.039-.175v-1.52c-.659.724-1.303 1.246-1.943 1.577a4.163 4.163 0 01-1.938.497c-.767 0-1.411-.127-1.934-.383a3.37 3.37 0 01-1.27-1.042 4.238 4.238 0 01-.698-1.528c-.138-.584-.208-1.293-.208-2.125v-6.963c0-.07.012-.126.043-.174a.416.416 0 01.175-.127c.082-.038.196-.064.33-.078.135-.013.304-.017.51-.017.205 0 .374.004.509.017.135.014.244.04.327.078.078.04.136.083.17.127a.296.296 0 01.052.174v6.689c0 .67.048 1.21.148 1.615.096.405.243.749.444 1.033.2.287.458.51.762.665.305.157.662.236 1.072.236.526 0 1.053-.188 1.576-.562.526-.375 1.08-.923 1.668-1.646v-8.03c0-.07.013-.126.044-.174a.419.419 0 01.173-.127c.083-.038.192-.064.323-.078a5.65 5.65 0 01.517-.017c.205 0 .376.004.51.017a.91.91 0 01.318.078c.079.04.135.083.175.127a.265.265 0 01.056.174zm13.926-5.93c0 1.005-.109 1.907-.326 2.708-.214.797-.532 1.476-.954 2.034a4.255 4.255 0 01-1.56 1.289c-.618.3-1.328.453-2.125.453-.339 0-.653-.035-.94-.1a3.529 3.529 0 01-.85-.323 4.85 4.85 0 01-.818-.548 12.03 12.03 0 01-.867-.776v5.753c0 .07-.017.126-.052.178a.365.365 0 01-.165.131c-.079.03-.183.057-.323.074a4.298 4.298 0 01-.521.026c-.21 0-.38-.009-.515-.026a1.407 1.407 0 01-.326-.074.332.332 0 01-.17-.13.338.338 0 01-.044-.18V89.094a.38.38 0 01.04-.187.308.308 0 01.152-.118c.078-.034.175-.06.296-.074.118-.013.266-.017.435-.017.179 0 .327.004.445.017.112.014.208.04.287.07.079.035.13.078.161.122a.34.34 0 01.043.187v1.537c.35-.357.684-.666 1.007-.932.322-.261.648-.479.974-.653a4.486 4.486 0 011.007-.396 4.205 4.205 0 011.088-.135c.832 0 1.537.16 2.125.483a4.068 4.068 0 011.434 1.328c.369.562.64 1.216.809 1.96.17.745.253 1.533.253 2.364zm-2.194.243c0-.588-.044-1.158-.136-1.707a4.997 4.997 0 00-.458-1.463 2.749 2.749 0 00-.874-1.023c-.366-.257-.823-.383-1.368-.383-.274 0-.54.039-.806.122-.261.082-.53.209-.805.383-.27.174-.557.405-.853.692-.296.287-.615.64-.946 1.058v4.568c.58.71 1.128 1.25 1.646 1.629.524.374 1.068.562 1.638.562.527 0 .98-.126 1.359-.384.379-.256.684-.596.919-1.023.234-.427.405-.901.517-1.432.11-.527.167-1.063.167-1.599zm15.493-.191c0 .936-.123 1.798-.37 2.587a5.692 5.692 0 01-1.102 2.033 4.989 4.989 0 01-1.833 1.333c-.736.317-1.59.479-2.556.479-.946 0-1.768-.14-2.47-.423a4.472 4.472 0 01-1.75-1.224c-.467-.535-.815-1.189-1.046-1.95-.23-.767-.344-1.633-.344-2.604 0-.937.123-1.8.362-2.583a5.676 5.676 0 011.097-2.038 4.968 4.968 0 011.83-1.328c.731-.313 1.585-.47 2.56-.47.945 0 1.767.14 2.469.422a4.464 4.464 0 011.75 1.224c.467.535.819 1.184 1.055 1.95.23.767.348 1.63.348 2.592zm-2.195.134c0-.622-.057-1.21-.174-1.763a4.305 4.305 0 00-.571-1.455 2.768 2.768 0 00-1.075-.988c-.449-.244-1.016-.365-1.69-.365-.623 0-1.159.108-1.607.33a2.956 2.956 0 00-1.105.941 4.183 4.183 0 00-.646 1.437 7.25 7.25 0 00-.213 1.811c0 .632.056 1.224.175 1.777.113.553.304 1.036.574 1.45.27.41.631.74 1.08.98.454.244 1.019.366 1.694.366.614 0 1.145-.11 1.598-.331a2.97 2.97 0 001.115-.932c.292-.4.505-.88.64-1.433a7.638 7.638 0 00.205-1.825" fill="#3c3d43" fill-rule="evenodd"/><path d="M29.987.737c12.698.034 25.478 7.024 29.61 20.807L35.773 94.605h23.781c-3.698 13.418-13.902 22.957-29.567 22.957-15.664 0-25.869-9.54-29.567-22.957h23.782L.378 21.544C4.509 7.76 17.29.77 29.988.737" fill="#30b9ad" fill-rule="evenodd"/><path d="M43.923 15.607C23.456 8.965-6.737 29.266 3.788 58.18c-1.13-7.33-4.32-13.222 4.704-27.637-7.532 15.01-4.088 20.1-2.84 27.173-1.053-7.009-3.482-13.157 4.28-25.675-6.133 12.77-3.675 18.415-2.065 24.763C6.77 50.12 4.33 44.068 11.814 33.357 5.53 44.891 8.59 51.094 10.004 56.782c-2.502-7.584-1.821-15.007 3.513-22.196-4.5 7.362-3.946 14.498-1.562 21.553-1.04-8.064-3.557-15.983 8.639-25.807 5.252-4.759 12.581-6.197 20.49-6.704-1.608-1.534-7.724-1.382-12.9.397 3.423-1.485 7.57-2.561 13.715-2.506-3.751-1.68-9.14-.952-14.716.38 4.47-1.25 8.861-2.557 15.373-2.38-5.01-1.802-10.733-.877-16.28.61 4.46-1.933 10.07-2.808 16.83-2.627-5.866-2.027-11.787-.87-17.473.675 5.65-2.325 11.9-2.943 18.29-2.57" fill="#aee3d8" fill-rule="evenodd"/><path d="M9.548 59.805c12.851-9.7 26.607-13.5 41.267-11.395-5.232-1.06-10.048-2.544-17.328-1.514 3.244-1.939 10.22-1.444 17.73-.602-6.62-1.487-12.991-2.54-18.173-1.505 3.94-1.852 10.804-1.604 18.998-.404-6.827-1.75-13.415-2.476-19.653-1.701 5.263-1.6 12.089-1.67 20.478-.207-8.007-1.88-15.088-2.741-20.818-2.112 5.426-1.233 12.741-1.552 21.008-.001-19.76-5.29-36.324-.76-49.69 13.592 3.846-2.361 5.903-4.388 11.54-7.084-4.196 2.576-7.402 5.705-9.626 8.542 3.387-2.603 7.475-5.458 11.645-7.19-4.463 2.42-7.808 5.691-10.574 8.657 2.933-2 6.285-4.426 10.914-6.444-5.237 3.177-7.973 5.826-8.998 8.114 1.885-1.963 4.74-4.085 10.28-6.649-4.837 2.988-7.257 5.511-9 7.903" fill="#aee3d8" fill-rule="evenodd"/><path d="M21.754 75.319c10.434-6.47 21.373-18.43 26.588-31.074.157 3.34-1.04 6.693-2.853 10.051 1.553-2.02 3.26-5.378 5.072-9.651.018 3.464-1.317 7.135-3.266 10.899 1.912-3.061 3.653-6.454 5.279-10.076-.388 3.416-1.443 6.838-2.956 10.264 2.291-2.96 3.803-6.491 4.96-10.284-.294 3.977-1.59 7.964-3.572 11.958 2.341-3.224 4.095-7.215 5.58-11.556-1.518 15.597-15.553 29.678-32.222 37.25 6.451-4.052 13.117-8.052 16.116-12.929-4.381 4.912-10.657 7.908-16.557 11.034 5.73-3.958 12.136-8.16 15.172-12.391-4.527 4.521-10.26 7.39-15.72 10.392 5.216-3.473 10.54-6.857 14.018-11.747-4.946 4.735-10.125 7.194-15.091 9.859 5.18-3.57 10.681-7.004 13.81-11.428-4.773 4.419-9.565 7.02-14.358 9.429" fill="#aee3d8" fill-rule="evenodd"/></svg>