<svg xmlns="http://www.w3.org/2000/svg" width="560" height="278"><path fill="#F72C50" d="M367.859 239.643c4.732-.583 8.408-4.905 8.408-10.152 0-3.305-1.454-6.24-3.712-8.109-2.876 1.264-4.901 4.305-4.901 7.854v10.409h.144l.061-.002z"/><path fill="#31AA90" d="M346.065 231.658c0 10.135 7.637 18.477 17.47 19.604.038 0 .085.004.128.004h.296v-20.103c0-6.854-4.207-12.719-10.175-15.163h-.002c-4.692 3.608-7.717 9.277-7.717 15.658z"/><path fill="#31AA90" stroke="#BBE2DE" stroke-width=".216" stroke-miterlimit="22.926" d="M485.635 240.607h-2.622c-1.921 0-2.883-.813-2.883-2.446 0-1.746 1.526-2.621 4.58-2.621 2.189 0 4.362.35 6.519 1.05v-2.798a24.951 24.951 0 00-6.519-.871c-5.091 0-7.638 1.746-7.638 5.24 0 3.611 1.98 5.419 5.94 5.419h2.622c2.039 0 3.06.813 3.06 2.444 0 1.748-1.463 2.62-4.387 2.62-2.201 0-4.382-.349-6.537-1.047v2.796a25.02 25.02 0 006.537.872c5.081 0 7.619-1.747 7.619-5.241.001-3.611-2.097-5.417-6.291-5.417h0zm21.303 6.257c-1.549 1.188-3.443 1.782-5.681 1.782-2.213 0-3.32-.99-3.32-2.971 0-1.979 1.403-2.97 4.212-2.97 1.595 0 3.191.114 4.789.349v3.81h0zm-4.946-13.944c-1.887 0-3.82.291-5.803.873v2.621c1.982-.581 3.916-.873 5.803-.873 3.298 0 4.946 1.054 4.946 3.162v1.73a33.146 33.146 0 00-4.789-.349c-4.963 0-7.443 1.88-7.443 5.645 0 3.691 2.184 5.538 6.552 5.538 2.154 0 4.147-.606 5.977-1.818l1.119 1.818h1.816v-12.65c0-3.798-2.725-5.697-8.178-5.697h0zm12.88 18.346h3.232v-24.989h-3.232v24.989zm20.517-5.015c-1.679 1.551-3.443 2.325-5.296 2.325-2.702 0-4.055-1.362-4.055-4.088V232.92h-3.231v11.516c0 4.554 2.107 6.832 6.324 6.832 2.25 0 4.486-.781 6.713-2.342l.556 2.342h2.221V232.92h-3.231v13.331h-.001zm20.077 1.643c-1.304.456-2.796.682-4.474.682-3.692 0-5.538-2.325-5.538-6.971 0-3.927 1.846-5.89 5.538-5.89 1.678 0 3.17.315 4.474.943v11.236h0zm0-21.616v7.514a11.673 11.673 0 00-4.491-.873c-5.8 0-8.701 2.937-8.701 8.807 0 6.359 2.729 9.541 8.195 9.541 3.262 0 6.004-.366 8.229-1.101v-23.888h-3.232 0z"/><path fill="#2D2E30" d="M410.515 246.251c-1.678 1.551-3.443 2.325-5.293 2.325-2.705 0-4.055-1.362-4.055-4.088V232.92h-3.234v11.516c0 4.554 2.108 6.832 6.326 6.832 2.25 0 4.484-.781 6.712-2.342l.557 2.342h2.221V232.92h-3.233v13.331h-.001zm8.108 5.015h3.231v-18.347h-3.231v18.347zm10.293-18.346h-2.186v18.348h3.232v-13.333c1.365-1.548 3.143-2.323 5.332-2.323v-2.691c-2.261 0-4.194.779-5.803 2.343l-.575-2.344zm16.301 15.725c-3.668 0-5.504-2.205-5.504-6.621 0-4.322 1.836-6.483 5.504-6.483 3.669 0 5.504 2.161 5.504 6.483 0 4.415-1.835 6.621-5.504 6.621zm2.046-15.582l2.655-2.655h-4.178l-1.76 2.568c-4.998.417-7.502 3.453-7.502 9.116.025 6.104 2.937 9.156 8.738 9.156 5.824 0 8.736-3.053 8.736-9.156.001-5.351-2.23-8.36-6.689-9.029zm19.29-.143c-2.248 0-4.31.779-6.183 2.343l-.58-2.343h-2.184v18.348h3.231v-13.333c1.667-1.548 3.428-2.323 5.278-2.323 2.715 0 4.071 1.362 4.071 4.09v11.566h3.232v-11.515c.002-4.555-2.285-6.833-6.865-6.833zm-75.913 14.63c-1.271.631-2.746.945-4.429.945-3.698 0-5.546-2.176-5.546-6.528 0-4.232 1.952-6.351 5.861-6.351 1.635 0 3.007.138 4.113.419v11.515h.001zm-13.161-5.547c0 6.194 2.906 9.295 8.717 9.295 1.586 0 3.068-.294 4.443-.875v9.518h3.239v-26.269a34.164 34.164 0 00-7.21-.752c-6.125 0-9.189 3.028-9.189 9.083zm41.144-11.512h3.231v-3.059h-3.231v3.059z"/><path fill-rule="evenodd" clip-rule="evenodd" fill="#31AA90" d="M71.146 1c30.08.079 60.356 16.638 70.145 49.29l-56.44 173.081h56.337c-8.76 31.787-32.935 54.384-70.043 54.384-37.109 0-61.283-22.597-70.043-54.384h56.337L1 50.29C10.789 17.638 41.065 1.079 71.146 1z"/><path fill-rule="evenodd" clip-rule="evenodd" fill="#AEE0CB" d="M104.158 36.227C55.671 20.491-15.855 68.583 9.078 137.08c-2.674-17.365-10.232-31.322 11.146-65.471-17.843 35.558-9.686 47.615-6.729 64.373-2.493-16.604-8.247-31.169 10.138-60.823-14.526 30.25-8.705 43.624-4.889 58.661-2.602-15.831-8.38-30.17 9.348-55.543-14.883 27.324-7.635 42.018-4.289 55.493-5.927-17.967-4.313-35.553 8.324-52.582-10.661 17.44-9.347 34.346-3.702 51.06-2.464-19.107-8.425-37.865 20.467-61.14C61.336 59.836 78.697 56.43 97.434 55.227c-3.811-3.633-18.3-3.274-30.562.941 8.109-3.518 17.933-6.067 32.493-5.936-8.888-3.982-21.655-2.256-34.863.9 10.589-2.963 20.99-6.058 36.418-5.639-11.869-4.269-25.426-2.079-38.569 1.444 10.566-4.577 23.855-6.651 39.87-6.222-13.893-4.8-27.921-2.064-41.391 1.599 13.385-5.508 28.191-6.972 43.328-6.087z"/><path fill-rule="evenodd" clip-rule="evenodd" fill="#AEE0CB" d="M22.725 140.931c30.445-22.981 63.032-31.98 97.762-26.996-12.395-2.511-23.805-6.026-41.051-3.587 7.686-4.592 24.211-3.42 42-1.424-15.679-3.524-30.773-6.02-43.051-3.567 9.336-4.385 25.597-3.799 45.006-.955-16.173-4.148-31.779-5.866-46.557-4.031 12.468-3.792 28.639-3.955 48.512-.49-18.967-4.454-35.743-6.494-49.317-5.004 12.852-2.92 30.183-3.678 49.766-.002-46.81-12.531-86.049-1.797-117.716 32.2 9.114-5.594 13.986-10.396 27.34-16.782-9.94 6.103-17.535 13.516-22.804 20.237 8.024-6.166 17.708-12.932 27.587-17.034-10.572 5.734-18.496 13.483-25.051 20.51 6.95-4.739 14.891-10.486 25.855-15.266-12.405 7.523-18.886 13.8-21.313 19.222 4.465-4.651 11.229-9.679 24.349-15.751-11.455 7.076-17.188 13.052-21.317 18.72z"/><path fill-rule="evenodd" clip-rule="evenodd" fill="#AEE0CB" d="M51.64 177.682c24.719-15.326 50.633-43.659 62.986-73.612.372 7.911-2.464 15.854-6.757 23.811 3.679-4.785 7.723-12.74 12.015-22.864.042 8.206-3.12 16.901-7.737 25.819 4.529-7.251 8.655-15.29 12.505-23.868-.919 8.09-3.419 16.196-7.002 24.313 5.428-7.01 9.008-15.377 11.75-24.36-.696 9.42-3.767 18.865-8.461 28.326 5.546-7.636 9.699-17.092 13.219-27.375-3.597 36.949-36.847 70.306-76.334 88.243 15.282-9.597 31.074-19.072 38.178-30.626-10.379 11.634-25.247 18.731-39.223 26.138 13.572-9.375 28.749-19.333 35.942-29.354-10.726 10.712-24.307 17.505-37.24 24.618 12.355-8.227 24.967-16.242 33.208-27.827-11.717 11.216-23.987 17.04-35.752 23.354 12.273-8.455 25.305-16.591 32.716-27.072-11.307 10.467-22.657 16.629-34.013 22.336z"/><path fill="#31AA90" d="M236.664 69.581c-4.258-5.707-9.028-9.927-14.312-12.619-5.261-2.692-11.28-4.027-18.013-4.027-10.589 0-19.64 3.79-27.152 11.348-7.513 7.581-11.258 16.581-11.258 27.025 0 11.09 3.746 20.457 11.213 28.08 7.468 7.602 16.52 11.413 27.198 11.413 6.576 0 12.529-1.335 17.834-3.983 5.306-2.649 9.92-6.611 13.844-11.865h11.102c-4.347 7.817-10.188 13.868-17.5 18.153-7.312 4.264-15.516 6.396-24.633 6.396-13.978 0-25.637-4.608-34.978-13.825-9.341-9.195-14-20.715-14-34.497 0-6.438 1.271-12.533 3.79-18.304 2.52-5.771 6.22-10.961 11.102-15.59 4.525-4.372 9.608-7.688 15.249-9.927 5.64-2.261 11.748-3.381 18.325-3.381 9.452 0 17.946 2.218 25.503 6.675s13.532 10.767 17.923 18.929h-11.237v-.001zm23.453 68.089V45.807h9.207v91.864h-9.207v-.001zm24.232 0V68.267h9.207v69.404h-9.207v-.001zm2.497-78.663h-6.02l13.666-22.072h9.92l-17.566 22.072zm21.601 9.26h8.939v7.903c2.831-3.166 6.108-5.491 9.831-6.999 3.723-1.529 7.981-2.283 12.773-2.283 5.261 0 9.943.947 14.067 2.842s7.379 4.608 9.764 8.14c1.65 2.477 2.831 5.384 3.567 8.743.713 3.338 1.07 8.27 1.07 14.794v36.263h-9.073V98.823c0-8.205-1.628-14.147-4.86-17.852-3.255-3.704-8.449-5.556-15.583-5.556-4.19 0-7.847.818-11.013 2.434-3.143 1.615-5.64 3.941-7.468 6.956-1.137 1.895-1.939 4.048-2.385 6.481-.469 2.412-.691 6.633-.691 12.641v33.744h-8.939V68.267h.001zm83.999-8.14h-9.207v-14.32h9.207v14.32zm-9.207 77.543V68.267h9.207v69.404h-9.207v-.001zm81.571-48.085c-2.831-5.04-6.287-8.765-10.345-11.198-4.079-2.412-8.917-3.618-14.535-3.618-7.4 0-13.688 2.713-18.837 8.14-5.149 5.426-7.735 12.124-7.735 20.112 0 7.989 2.586 14.665 7.779 20.027 5.173 5.361 11.57 8.054 19.194 8.054 5.573 0 10.479-1.335 14.759-3.984 4.258-2.648 7.49-6.352 9.72-11.154h10.188c-2.786 7.537-7.156 13.351-13.131 17.485-5.952 4.113-12.997 6.18-21.089 6.18-10.41 0-19.194-3.575-26.351-10.702-7.155-7.128-10.745-15.72-10.745-25.776 0-10.25 3.634-18.95 10.879-26.078 7.246-7.127 16.073-10.703 26.484-10.703 7.78 0 14.646 2.024 20.599 6.094 5.952 4.048 10.389 9.755 13.354 17.12H464.81v.001zm84.266 12.942c0-7.364-2.72-13.782-8.159-19.272-5.439-5.491-11.727-8.226-18.815-8.226-7.713 0-14.268 2.735-19.685 8.226-5.417 5.491-8.137 12.296-8.137 20.414 0 7.731 2.697 14.255 8.093 19.574 5.395 5.319 11.882 7.989 19.461 7.989 7.313 0 13.688-2.799 19.105-8.419 5.417-5.621 8.137-12.383 8.137-20.286zm0 24.161c-2.876 4.005-6.755 7.127-11.659 9.41-4.905 2.261-10.188 3.402-15.851 3.402-10.521 0-19.306-3.488-26.306-10.444-7.022-6.955-10.522-15.547-10.522-25.776 0-10.379 3.59-19.057 10.746-26.056 7.155-6.977 16.117-10.465 26.885-10.465 5.528 0 10.589 1.077 15.204 3.252 4.614 2.175 8.449 5.297 11.503 9.367V68.267h9.006v69.404h-9.006v-10.983z"/><path fill="#2D2E30" d="M554.078 192.159c-1.278 1.745-3.003 3.105-5.183 4.1-2.181.985-4.529 1.483-7.046 1.483-4.678 0-8.582-1.521-11.693-4.551-3.122-3.03-4.678-6.773-4.678-11.23 0-4.522 1.596-8.303 4.776-11.352 3.181-3.04 7.165-4.561 11.952-4.561 2.456 0 4.706.47 6.758 1.417a13.439 13.439 0 015.113 4.081v-4.841h4.004v30.238h-4.004v-4.784h.001zm0-10.526c0-3.209-1.209-6.005-3.627-8.397s-5.212-3.583-8.364-3.583c-3.428 0-6.342 1.19-8.75 3.583s-3.617 5.357-3.617 8.895c0 3.368 1.199 6.211 3.598 8.528s5.282 3.48 8.651 3.48c3.25 0 6.085-1.22 8.492-3.668 2.408-2.449 3.617-5.395 3.617-8.838zm-57.259-10.189a12.742 12.742 0 014.836-3.979c1.923-.91 4.083-1.36 6.461-1.36 4.341 0 7.492 1.229 9.464 3.696 1.972 2.468 2.963 6.427 2.963 11.887v15.256h-3.924v-16.053c0-3.987-.693-6.83-2.092-8.528-1.387-1.698-3.666-2.543-6.817-2.543-1.823 0-3.419.356-4.806 1.061a8.115 8.115 0 00-3.291 3.03c-.485.825-.832 1.764-1.05 2.824-.208 1.051-.317 2.89-.317 5.508v14.701h-3.864V180.02c0-3.481-.743-6.052-2.24-7.713-1.485-1.66-3.775-2.486-6.848-2.486-1.862 0-3.488.356-4.896 1.061a8.132 8.132 0 00-3.319 3.03c-.505.825-.862 1.764-1.061 2.824-.208 1.051-.308 2.89-.308 5.508v14.701h-4.033v-30.238h4.033v3.443a11.747 11.747 0 014.311-3.021c1.655-.686 3.529-1.022 5.619-1.022 2.418 0 4.628.479 6.62 1.445 1.993.965 3.518 2.26 4.559 3.892zm-35.794 25.5v-40.023h4.093v40.023h-4.093zm-10.534-4.785c-1.278 1.745-3.003 3.105-5.184 4.1-2.179.985-4.528 1.483-7.046 1.483-4.677 0-8.581-1.521-11.692-4.551-3.122-3.03-4.678-6.773-4.678-11.23 0-4.522 1.595-8.303 4.776-11.352 3.182-3.04 7.164-4.561 11.951-4.561 2.457 0 4.707.47 6.759 1.417a13.431 13.431 0 015.113 4.081v-4.841h4.004v30.238h-4.004v-4.784h.001zm0-10.526c0-3.209-1.209-6.005-3.627-8.397s-5.213-3.583-8.364-3.583c-3.429 0-6.342 1.19-8.75 3.583-2.409 2.393-3.617 5.357-3.617 8.895 0 3.368 1.198 6.211 3.597 8.528s5.282 3.48 8.651 3.48c3.251 0 6.085-1.22 8.493-3.668s3.617-5.395 3.617-8.838zm-63.79 15.311v-40.296h14.519c2.824 0 4.984.131 6.471.385 2.091.328 3.845.957 5.263 1.885 1.407.92 2.546 2.225 3.408 3.885.862 1.671 1.289 3.5 1.289 5.498 0 3.425-1.15 6.333-3.449 8.707-2.309 2.363-6.471 3.556-12.486 3.556h-10.921v16.381h-4.094v-.001zm4.093-20.552h11.905c3.933 0 6.729-.689 8.379-2.079 1.65-1.39 2.476-3.338 2.476-5.853 0-1.826-.482-3.389-1.458-4.688-.975-1.299-2.25-2.15-3.847-2.566-1.028-.254-2.914-.386-5.679-.386h-11.776v15.572zm-61.49 5.465c0-4.438 1.605-8.228 4.816-11.38s7.016-4.729 11.416-4.729c4.618 0 8.563 1.548 11.822 4.645 3.261 3.096 4.896 6.792 4.896 11.079 0 4.504-1.596 8.351-4.786 11.541-3.201 3.189-7.066 4.784-11.614 4.784-4.628 0-8.542-1.566-11.743-4.69-3.202-3.125-4.807-6.868-4.807-11.25zm4.301-.065c0 3.49 1.168 6.408 3.508 8.764 2.349 2.354 5.252 3.526 8.74 3.526 3.419 0 6.292-1.172 8.621-3.526 2.319-2.355 3.479-5.292 3.479-8.811 0-3.574-1.179-6.512-3.528-8.81-2.349-2.299-5.331-3.452-8.948-3.452-3.25 0-6.045 1.182-8.374 3.546s-3.498 5.283-3.498 8.763zm-13.151-10.302v-14.569h4.123v40.023h-4.123v-4.56c-1.437 1.679-3.21 2.992-5.341 3.939-2.131.948-4.38 1.418-6.769 1.418-4.608 0-8.482-1.539-11.634-4.616-3.161-3.077-4.737-6.858-4.737-11.324 0-4.438 1.556-8.172 4.677-11.202 3.112-3.03 7.017-4.551 11.694-4.551 2.518 0 4.806.46 6.867 1.389s3.807 2.281 5.243 4.053zm.119 10.64c0-3.443-1.209-6.39-3.617-8.818-2.407-2.44-5.242-3.659-8.492-3.659-3.37 0-6.253 1.162-8.651 3.48-2.398 2.317-3.597 5.15-3.597 8.5 0 3.537 1.208 6.502 3.616 8.904 2.408 2.4 5.322 3.602 8.751 3.602 3.15 0 5.936-1.201 8.363-3.602 2.418-2.402 3.627-5.198 3.627-8.407zm-37.746 14.814h-4.152v-30.238h3.864v3.489c1.002-1.341 2.102-2.316 3.291-2.945 1.198-.619 2.586-.947 4.172-.985l.03 4.203c-2.577.216-4.42.948-5.53 2.187-1.12 1.238-1.675 3.246-1.675 6.032v18.257zm-14.567-4.785c-1.278 1.745-3.003 3.105-5.183 4.1-2.18.985-4.529 1.483-7.045 1.483-4.678 0-8.583-1.521-11.694-4.551-3.122-3.03-4.678-6.773-4.678-11.23 0-4.522 1.596-8.303 4.777-11.352 3.181-3.04 7.164-4.561 11.951-4.561 2.458 0 4.707.47 6.759 1.417a13.439 13.439 0 015.113 4.081v-4.841h4.003v30.238h-4.003v-4.784zm0-10.526c0-3.209-1.209-6.005-3.627-8.397-2.417-2.393-5.212-3.583-8.364-3.583-3.429 0-6.342 1.19-8.75 3.583s-3.618 5.357-3.618 8.895c0 3.368 1.2 6.211 3.598 8.528s5.282 3.48 8.651 3.48c3.25 0 6.085-1.22 8.493-3.668 2.408-2.449 3.617-5.395 3.617-8.838zm-37.459-5.639c-1.259-2.195-2.795-3.818-4.599-4.879-1.813-1.051-3.964-1.576-6.461-1.576-3.29 0-6.084 1.183-8.374 3.547-2.29 2.364-3.439 5.282-3.439 8.763s1.149 6.389 3.458 8.726c2.3 2.336 5.144 3.508 8.533 3.508 2.477 0 4.657-.581 6.56-1.735 1.893-1.153 3.33-2.768 4.321-4.859h4.529c-1.239 3.284-3.181 5.816-5.837 7.618-2.646 1.792-5.777 2.692-9.375 2.692-4.628 0-8.533-1.558-11.713-4.663-3.182-3.104-4.777-6.849-4.777-11.229 0-4.467 1.615-8.257 4.836-11.362s7.145-4.663 11.773-4.663c3.458 0 6.511.882 9.157 2.655 2.646 1.765 4.617 4.25 5.936 7.459h-4.528v-.002zm-36.261 20.95v-30.238h4.093v30.238h-4.093zm4.093-33.784h-4.093v-6.239h4.093v6.239zm-42.622 33.784v-40.297h14.519c7.366 0 16.431 1.628 16.431 10.997 0 7.178-5.393 10.17-11.39 11.082 2.941 1.655 4.768 3.328 7.474 7.25l7.403 10.968h-5.344l-5.791-8.482c-1.645-2.411-3.001-4.27-4.071-5.546-.916-1.109-4.285-3.45-6.131-3.864h-.798a5.685 5.685 0 01-.578 0h-7.63v17.893h-4.094v-.001zm4.093-22.063h11.904c4.72 0 10.854-1.204 10.854-7.078 0-6.291-6.191-6.982-10.982-6.982h-11.776v14.06z"/><path fill-rule="evenodd" clip-rule="evenodd" fill="#2D2E30" d="M282.959 236.185c0 .172-.01.325-.028.455s-.046.241-.079.33a.408.408 0 01-.139.181.296.296 0 01-.177.056c-.106 0-.288-.088-.543-.26a8.837 8.837 0 00-1.021-.576c-.428-.209-.938-.403-1.533-.575s-1.3-.26-2.113-.26c-.975 0-1.843.176-2.614.528a5.673 5.673 0 00-1.96 1.473c-.539.627-.947 1.369-1.235 2.233a8.948 8.948 0 00-.427 2.805c0 1.128.158 2.127.469 2.999.316.868.748 1.607 1.305 2.206a5.338 5.338 0 001.982 1.36c.767.312 1.611.465 2.526.465.548 0 1.1-.065 1.658-.2a6.302 6.302 0 001.56-.59v-5.145h-4.077c-.158 0-.274-.079-.348-.232-.079-.153-.116-.395-.116-.724 0-.172.009-.321.028-.441a.967.967 0 01.088-.302.475.475 0 01.144-.168.344.344 0 01.204-.056h5.586a.867.867 0 01.572.219.678.678 0 01.19.297c.047.13.069.274.069.437v6.72c0 .236-.042.44-.12.612-.084.172-.256.325-.521.455-.26.13-.604.274-1.021.427a11.322 11.322 0 01-2.638.641c-.455.056-.905.083-1.346.083-1.365 0-2.582-.209-3.65-.631-1.073-.423-1.978-1.026-2.716-1.807s-1.305-1.714-1.695-2.805c-.39-1.091-.585-2.303-.585-3.649 0-1.397.209-2.665.631-3.799.423-1.133 1.017-2.099 1.783-2.901a7.965 7.965 0 012.758-1.858c1.077-.44 2.266-.659 3.571-.659.673 0 1.3.061 1.89.177.59.121 1.115.26 1.574.418.455.162.841.334 1.156.524.312.186.525.339.646.46.116.116.2.256.241.408.048.153.071.377.071.669zm10.712 3.408c0 .2-.005.367-.015.502a1.233 1.233 0 01-.055.32.403.403 0 01-.103.177c-.037.041-.093.06-.167.06s-.163-.019-.265-.06a3.73 3.73 0 00-.354-.121 5.302 5.302 0 00-.44-.116 2.391 2.391 0 00-.529-.056c-.228 0-.45.046-.669.135a2.554 2.554 0 00-.683.455 5.736 5.736 0 00-.757.831c-.26.349-.553.771-.868 1.272v8.056a.306.306 0 01-.056.186.45.45 0 01-.177.131c-.083.032-.195.06-.344.079a4.648 4.648 0 01-.557.027c-.224 0-.404-.01-.548-.027a1.617 1.617 0 01-.349-.079.423.423 0 01-.182-.131.338.338 0 01-.046-.186v-12.249c0-.074.014-.135.042-.186.027-.047.078-.093.162-.135s.186-.069.316-.084c.125-.014.297-.019.506-.019.199 0 .367.005.496.019a.831.831 0 01.312.084c.07.042.125.088.158.135a.387.387 0 01.046.186v1.783c.335-.492.65-.892.943-1.203.297-.306.575-.552.835-.729.265-.177.525-.297.78-.367.261-.069.521-.102.785-.102a3.952 3.952 0 011.309.218c.13.047.223.089.278.135.056.047.093.088.106.13a.906.906 0 01.052.153c.014.065.022.158.027.278.011.127.011.289.011.498zm12.463 11.455a.34.34 0 01-.047.186.397.397 0 01-.172.131 1.39 1.39 0 01-.32.079c-.13.018-.292.027-.482.027-.204 0-.376-.01-.507-.027a1.377 1.377 0 01-.315-.079.335.335 0 01-.153-.131.387.387 0 01-.042-.186v-1.62c-.701.771-1.388 1.328-2.07 1.681-.678.353-1.37.529-2.066.529-.817 0-1.505-.135-2.062-.408a3.59 3.59 0 01-1.356-1.11 4.51 4.51 0 01-.742-1.63c-.149-.622-.224-1.379-.224-2.266v-7.425a.34.34 0 01.047-.186.44.44 0 01.186-.135c.088-.042.209-.069.354-.084.144-.014.324-.019.543-.019.218 0 .399.005.543.019.144.015.26.042.349.084a.539.539 0 01.181.135.304.304 0 01.056.186v7.133c0 .715.052 1.29.158 1.723.102.432.26.798.474 1.1.214.307.487.544.813.711s.706.251 1.143.251c.562 0 1.123-.2 1.681-.6.562-.399 1.151-.984 1.778-1.755v-8.563a.34.34 0 01.046-.186.45.45 0 01.187-.135c.088-.042.204-.069.344-.084a5.95 5.95 0 01.552-.019c.219 0 .399.005.544.019.144.015.26.042.339.084a.625.625 0 01.186.135.278.278 0 01.061.186v12.249h-.007zm14.849-6.324c0 1.072-.116 2.034-.349 2.889-.228.85-.566 1.573-1.017 2.168-.446.595-1.004 1.055-1.663 1.375s-1.416.482-2.266.482c-.362 0-.696-.037-1.003-.106a3.742 3.742 0 01-.905-.344 5.14 5.14 0 01-.873-.585c-.293-.232-.6-.511-.925-.826v6.134c0 .074-.018.135-.055.19s-.094.102-.177.139a1.406 1.406 0 01-.344.079 4.44 4.44 0 01-.557.028 4.53 4.53 0 01-.549-.028 1.495 1.495 0 01-.348-.079.366.366 0 01-.182-.139.367.367 0 01-.046-.19V238.8c0-.083.014-.148.042-.199a.33.33 0 01.162-.126c.084-.037.186-.064.315-.079.126-.014.283-.019.465-.019.19 0 .349.005.474.019.12.015.223.042.307.075a.398.398 0 01.171.13.358.358 0 01.047.199v1.64a13.47 13.47 0 011.072-.994 6.574 6.574 0 011.04-.696c.349-.186.706-.33 1.073-.423a4.464 4.464 0 011.16-.144c.888 0 1.64.172 2.267.515a4.33 4.33 0 011.527 1.417c.395.599.683 1.295.864 2.089.185.793.273 1.633.273 2.52zm-2.34.26c0-.627-.046-1.235-.144-1.82a5.382 5.382 0 00-.488-1.561 2.924 2.924 0 00-.933-1.091c-.391-.274-.878-.409-1.458-.409a2.86 2.86 0 00-.859.13 3.769 3.769 0 00-.859.409 6.046 6.046 0 00-.91.738c-.315.306-.654.683-1.008 1.128v4.871c.618.757 1.203 1.333 1.756 1.736.557.399 1.138.6 1.746.6.562 0 1.044-.135 1.448-.409.404-.273.729-.636.98-1.091.25-.455.432-.961.552-1.527a8.433 8.433 0 00.177-1.704zm16.521-.205c0 .999-.131 1.918-.396 2.759a6.055 6.055 0 01-1.175 2.168 5.329 5.329 0 01-1.954 1.421c-.785.339-1.695.511-2.727.511-1.007 0-1.885-.148-2.633-.45-.747-.297-1.369-.733-1.866-1.305s-.868-1.268-1.114-2.08c-.246-.817-.367-1.741-.367-2.777 0-.998.13-1.917.386-2.753.26-.841.649-1.565 1.17-2.174s1.17-1.077 1.95-1.416c.78-.334 1.69-.501 2.73-.501 1.008 0 1.886.148 2.633.45a4.75 4.75 0 011.866 1.305c.497.571.873 1.263 1.124 2.08.247.817.373 1.737.373 2.762zm-2.341.145c0-.664-.061-1.291-.186-1.881a4.582 4.582 0 00-.608-1.551 2.952 2.952 0 00-1.146-1.054c-.479-.261-1.082-.391-1.802-.391-.664 0-1.235.116-1.714.354a3.15 3.15 0 00-1.18 1.002 4.471 4.471 0 00-.687 1.533 7.68 7.68 0 00-.228 1.932c0 .673.06 1.305.186 1.895.121.589.325 1.104.612 1.546a3.13 3.13 0 001.152 1.045c.482.26 1.086.39 1.806.39.655 0 1.222-.116 1.704-.353a3.165 3.165 0 001.189-.994c.311-.427.538-.938.683-1.527.145-.591.219-1.24.219-1.946z"/></svg>