<svg xmlns="http://www.w3.org/2000/svg" width="560" height="278"><path fill="#FFF" d="M367.861 239.264c4.732-.584 8.408-4.906 8.408-10.152 0-3.305-1.453-6.24-3.711-8.109-2.877 1.264-4.902 4.305-4.902 7.854v10.41h.145l.06-.003zm-21.793-7.985c0 10.135 7.637 18.477 17.469 19.604.039 0 .086.004.129.004h.295v-20.102c0-6.854-4.207-12.719-10.174-15.164h-.002c-4.693 3.609-7.717 9.277-7.717 15.658z"/><path fill="#FFF" stroke="#31AA90" stroke-width=".216" stroke-miterlimit="22.926" d="M485.637 240.229h-2.621c-1.922 0-2.883-.813-2.883-2.445 0-1.746 1.525-2.623 4.58-2.623 2.189 0 4.361.35 6.518 1.051v-2.797a24.902 24.902 0 00-6.518-.871c-5.092 0-7.639 1.746-7.639 5.24 0 3.611 1.98 5.418 5.941 5.418h2.621c2.039 0 3.061.813 3.061 2.445 0 1.746-1.463 2.619-4.387 2.619-2.201 0-4.383-.348-6.537-1.047v2.797c2.154.58 4.336.871 6.537.871 5.08 0 7.619-1.748 7.619-5.24.001-3.612-2.097-5.418-6.292-5.418h0zm21.304 6.255c-1.549 1.189-3.443 1.783-5.682 1.783-2.213 0-3.32-.99-3.32-2.971s1.404-2.969 4.213-2.969c1.594 0 3.191.113 4.789.348v3.809h0zm-4.947-13.943c-1.887 0-3.82.291-5.803.873v2.621c1.982-.582 3.916-.873 5.803-.873 3.299 0 4.947 1.055 4.947 3.162v1.73a33.017 33.017 0 00-4.789-.35c-4.963 0-7.443 1.881-7.443 5.645 0 3.693 2.184 5.539 6.551 5.539 2.154 0 4.148-.605 5.977-1.818l1.119 1.818h1.816v-12.65c0-3.797-2.725-5.697-8.178-5.697h0zm12.881 18.346h3.232v-24.989h-3.232v24.989zm20.516-5.014c-1.678 1.549-3.443 2.324-5.295 2.324-2.703 0-4.055-1.363-4.055-4.088v-11.568h-3.232v11.516c0 4.555 2.107 6.832 6.324 6.832 2.25 0 4.486-.781 6.713-2.342l.557 2.342h2.221v-18.348h-3.232v13.332h-.001zm20.078 1.643c-1.305.455-2.797.682-4.475.682-3.691 0-5.537-2.326-5.537-6.971 0-3.928 1.846-5.891 5.537-5.891 1.678 0 3.17.314 4.475.943v11.237h0zm0-21.616v7.514a11.659 11.659 0 00-4.492-.873c-5.799 0-8.701 2.936-8.701 8.807 0 6.359 2.729 9.541 8.195 9.541 3.262 0 6.004-.367 8.229-1.102V225.9h-3.231 0z"/><path fill="#FFF" d="M410.518 245.873c-1.678 1.549-3.443 2.324-5.293 2.324-2.705 0-4.055-1.363-4.055-4.088v-11.568h-3.234v11.516c0 4.555 2.107 6.832 6.326 6.832 2.25 0 4.484-.781 6.711-2.342l.557 2.342h2.221v-18.348h-3.232v13.332h-.001zm8.107 5.014h3.232v-18.348h-3.232v18.348zm10.293-18.346h-2.186v18.348h3.232v-13.334c1.365-1.547 3.143-2.322 5.332-2.322v-2.691c-2.26 0-4.193.779-5.803 2.342l-.575-2.343zm16.301 15.725c-3.668 0-5.504-2.205-5.504-6.621 0-4.322 1.836-6.484 5.504-6.484 3.67 0 5.504 2.162 5.504 6.484 0 4.416-1.834 6.621-5.504 6.621zm2.047-15.58l2.654-2.656h-4.178l-1.76 2.568c-4.998.418-7.502 3.453-7.502 9.117.025 6.102 2.938 9.156 8.738 9.156 5.824 0 8.736-3.055 8.736-9.156.001-5.354-2.229-8.361-6.688-9.029zm19.289-.145c-2.248 0-4.309.779-6.182 2.342l-.58-2.342h-2.184v18.348h3.23v-13.334c1.668-1.547 3.428-2.322 5.279-2.322 2.715 0 4.07 1.363 4.07 4.09v11.566h3.232v-11.516c.002-4.553-2.285-6.832-6.865-6.832zm-75.912 14.631c-1.271.629-2.746.945-4.43.945-3.697 0-5.545-2.176-5.545-6.529 0-4.232 1.951-6.35 5.861-6.35 1.635 0 3.006.137 4.113.418v11.516h.001zm-13.161-5.547c0 6.193 2.906 9.293 8.717 9.293 1.586 0 3.068-.293 4.443-.875v9.519h3.238v-26.269c-2.32-.5-4.727-.752-7.209-.752-6.126 0-9.189 3.027-9.189 9.084zm41.143-11.512h3.232v-3.06h-3.232v3.06z"/><path fill-rule="evenodd" clip-rule="evenodd" fill="#FFF" d="M71.146.624c30.08.078 60.356 16.639 70.145 49.289l-56.439 173.08h56.337c-8.76 31.787-32.935 54.385-70.043 54.385-37.109 0-61.283-22.598-70.043-54.385H57.44L1 49.913C10.789 17.262 41.065.702 71.146.624z"/><path fill-rule="evenodd" clip-rule="evenodd" fill="#AEE0CB" d="M104.158 35.85C55.671 20.114-15.855 68.207 9.078 136.704 6.404 119.337-1.154 105.38 20.224 71.232c-17.843 35.559-9.686 47.615-6.729 64.373-2.493-16.604-8.247-31.17 10.138-60.823-14.526 30.249-8.705 43.624-4.889 58.663-2.602-15.832-8.38-30.172 9.348-55.545-14.883 27.322-7.635 42.018-4.289 55.494-5.926-17.968-4.312-35.554 8.325-52.583-10.661 17.439-9.347 34.345-3.702 51.06C25.961 112.766 20 94.006 48.892 70.732 61.336 59.46 78.697 56.054 97.434 54.851c-3.811-3.633-18.3-3.273-30.562.941 8.109-3.519 17.933-6.067 32.493-5.937-8.888-3.982-21.655-2.256-34.863.9 10.589-2.963 20.99-6.059 36.418-5.639-11.869-4.27-25.426-2.079-38.569 1.443 10.566-4.577 23.855-6.651 39.87-6.222-13.893-4.798-27.921-2.062-41.391 1.601 13.385-5.509 28.191-6.973 43.328-6.088z"/><path fill-rule="evenodd" clip-rule="evenodd" fill="#AEE0CB" d="M22.725 140.555c30.445-22.983 63.032-31.98 97.762-26.996-12.395-2.512-23.805-6.027-41.051-3.588 7.686-4.593 24.211-3.42 42-1.424-15.679-3.524-30.773-6.021-43.051-3.567 9.336-4.384 25.597-3.799 45.006-.955-16.173-4.147-31.779-5.865-46.557-4.031 12.468-3.791 28.639-3.954 48.512-.489C106.38 95.05 89.604 93.011 76.03 94.5c12.852-2.92 30.183-3.677 49.766-.002C78.986 81.966 39.747 92.7 8.08 126.696c9.114-5.593 13.986-10.394 27.34-16.78-9.94 6.103-17.535 13.515-22.804 20.238 8.024-6.168 17.708-12.934 27.587-17.035-10.572 5.732-18.496 13.481-25.051 20.509 6.95-4.738 14.891-10.486 25.855-15.268-12.405 7.523-18.886 13.803-21.313 19.224 4.465-4.65 11.229-9.68 24.349-15.753-11.456 7.081-17.189 13.057-21.318 18.724z"/><path fill-rule="evenodd" clip-rule="evenodd" fill="#AEE0CB" d="M51.64 177.303c24.719-15.326 50.633-43.655 62.986-73.61.372 7.911-2.464 15.854-6.757 23.811 3.679-4.785 7.723-12.739 12.015-22.863.042 8.206-3.12 16.901-7.737 25.821 4.529-7.252 8.655-15.291 12.505-23.869-.919 8.09-3.419 16.195-7.002 24.314 5.428-7.012 9.008-15.378 11.75-24.363-.696 9.421-3.767 18.865-8.461 28.328 5.546-7.639 9.699-17.094 13.219-27.376-3.597 36.947-36.847 70.305-76.334 88.24 15.282-9.596 31.074-19.07 38.178-30.625-10.379 11.635-25.247 18.732-39.223 26.137 13.572-9.373 28.749-19.332 35.942-29.354-10.726 10.713-24.307 17.506-37.24 24.619 12.355-8.227 24.967-16.242 33.208-27.826-11.717 11.215-23.987 17.039-35.752 23.354 12.273-8.455 25.305-16.592 32.716-27.072-11.307 10.467-22.657 16.627-34.013 22.334z"/><path fill="#FFF" d="M236.664 69.204c-4.258-5.706-9.029-9.927-14.312-12.619-5.261-2.691-11.279-4.026-18.012-4.026-10.589 0-19.64 3.79-27.153 11.349-7.513 7.58-11.258 16.581-11.258 27.025 0 11.088 3.746 20.457 11.213 28.079 7.468 7.601 16.52 11.414 27.198 11.414 6.576 0 12.528-1.334 17.834-3.985 5.305-2.648 9.919-6.611 13.843-11.864h11.102c-4.348 7.816-10.188 13.869-17.5 18.154-7.312 4.263-15.515 6.396-24.632 6.396-13.978 0-25.637-4.609-34.978-13.828-9.341-9.193-14-20.715-14-34.496 0-6.438 1.271-12.532 3.79-18.304 2.52-5.771 6.22-10.961 11.102-15.591 4.525-4.371 9.608-7.688 15.249-9.927 5.64-2.261 11.748-3.381 18.324-3.381 9.453 0 17.947 2.218 25.503 6.676 7.557 4.457 13.531 10.767 17.924 18.928h-11.237zm23.454 68.092V45.43h9.205v91.866h-9.205zm24.234 0V67.89h9.209v69.406h-9.209zm2.496-78.665h-6.02l13.668-22.073h9.918l-17.566 22.073zm21.601 9.259h8.939v7.903c2.832-3.166 6.109-5.491 9.832-6.999 3.723-1.528 7.98-2.282 12.773-2.282 5.26 0 9.943.947 14.066 2.843 4.125 1.895 7.379 4.607 9.764 8.14 1.65 2.477 2.832 5.383 3.568 8.742.713 3.338 1.07 8.27 1.07 14.794v36.265h-9.074V98.447c0-8.204-1.627-14.147-4.859-17.852-3.256-3.703-8.449-5.556-15.584-5.556-4.189 0-7.846.818-11.012 2.434-3.143 1.614-5.641 3.94-7.469 6.955-1.137 1.896-1.939 4.049-2.385 6.481-.469 2.412-.691 6.633-.691 12.64v33.746h-8.939V67.89h.001zm84-8.14h-9.207V45.43h9.207v14.32zm-9.207 77.546V67.89h9.207v69.406h-9.207zm81.571-48.088c-2.832-5.039-6.287-8.764-10.346-11.197-4.078-2.412-8.916-3.618-14.535-3.618-7.4 0-13.688 2.714-18.836 8.141-5.15 5.426-7.736 12.123-7.736 20.112 0 7.989 2.586 14.665 7.779 20.026 5.174 5.365 11.57 8.057 19.195 8.057 5.572 0 10.479-1.336 14.758-3.987 4.258-2.648 7.49-6.351 9.721-11.153H475c-2.787 7.537-7.156 13.353-13.131 17.488-5.953 4.111-12.998 6.18-21.09 6.18-10.41 0-19.193-3.576-26.35-10.703-7.156-7.129-10.746-15.72-10.746-25.776 0-10.251 3.635-18.951 10.879-26.079 7.246-7.128 16.074-10.702 26.484-10.702 7.781 0 14.646 2.024 20.6 6.094 5.951 4.048 10.389 9.755 13.354 17.119h-10.187v-.002zm84.265 12.943c0-7.366-2.719-13.783-8.158-19.274s-11.727-8.226-18.816-8.226c-7.713 0-14.268 2.734-19.684 8.226-5.418 5.491-8.137 12.296-8.137 20.415 0 7.731 2.697 14.254 8.092 19.575s11.883 7.99 19.461 7.99c7.313 0 13.688-2.799 19.105-8.422 5.418-5.621 8.137-12.382 8.137-20.284zm0 24.161c-2.875 4.006-6.754 7.129-11.658 9.411-4.906 2.261-10.189 3.404-15.852 3.404-10.521 0-19.305-3.49-26.305-10.445-7.023-6.957-10.523-15.548-10.523-25.776 0-10.38 3.59-19.058 10.746-26.057 7.156-6.977 16.117-10.465 26.885-10.465 5.529 0 10.59 1.076 15.205 3.251 4.613 2.175 8.449 5.298 11.502 9.367V67.89h9.006v69.406h-9.006v-10.984zm5.002 65.469c-1.277 1.744-3.002 3.105-5.182 4.1-2.182.984-4.529 1.482-7.047 1.482-4.678 0-8.582-1.52-11.693-4.551-3.121-3.031-4.678-6.773-4.678-11.23 0-4.521 1.596-8.303 4.777-11.352 3.18-3.039 7.164-4.561 11.951-4.561 2.457 0 4.707.471 6.758 1.418s3.756 2.307 5.113 4.08v-4.84h4.004v30.238h-4.004v-4.784h.001zm0-10.527c0-3.209-1.209-6.004-3.627-8.396s-5.211-3.584-8.363-3.584c-3.428 0-6.342 1.191-8.75 3.584s-3.617 5.357-3.617 8.895c0 3.367 1.199 6.211 3.598 8.527s5.281 3.48 8.65 3.48c3.25 0 6.086-1.219 8.492-3.668 2.408-2.449 3.617-5.395 3.617-8.838zm-57.258-10.19a12.722 12.722 0 014.836-3.977c1.922-.91 4.082-1.361 6.461-1.361 4.34 0 7.492 1.229 9.463 3.697 1.973 2.467 2.963 6.426 2.963 11.887v15.256h-3.924v-16.053c0-3.988-.693-6.83-2.092-8.529-1.387-1.697-3.666-2.543-6.816-2.543-1.824 0-3.42.357-4.807 1.061s-2.477 1.717-3.291 3.031c-.484.824-.832 1.764-1.049 2.824-.209 1.051-.318 2.889-.318 5.506v14.703h-3.863V179.64c0-3.48-.744-6.051-2.24-7.713-1.486-1.66-3.775-2.486-6.848-2.486-1.863 0-3.488.357-4.896 1.061a8.125 8.125 0 00-3.318 3.031c-.506.824-.863 1.764-1.061 2.824-.209 1.051-.309 2.889-.309 5.506v14.703h-4.033v-30.238h4.033v3.441a11.78 11.78 0 014.311-3.02c1.656-.686 3.529-1.023 5.619-1.023 2.418 0 4.629.479 6.621 1.445s3.517 2.263 4.558 3.893zm-35.795 25.502v-40.023h4.094v40.023h-4.094zm-10.533-4.785c-1.279 1.744-3.004 3.105-5.184 4.1-2.18.984-4.529 1.482-7.047 1.482-4.676 0-8.58-1.52-11.691-4.551-3.123-3.031-4.678-6.773-4.678-11.23 0-4.521 1.594-8.303 4.775-11.352 3.182-3.039 7.164-4.561 11.951-4.561 2.457 0 4.707.471 6.76 1.418a13.427 13.427 0 015.113 4.08v-4.84h4.004v30.238h-4.004v-4.784h.001zm0-10.527c0-3.209-1.209-6.004-3.627-8.396s-5.213-3.584-8.365-3.584c-3.428 0-6.342 1.191-8.75 3.584s-3.617 5.357-3.617 8.895c0 3.367 1.199 6.211 3.598 8.527s5.281 3.48 8.65 3.48c3.252 0 6.086-1.219 8.494-3.668s3.617-5.395 3.617-8.838zm-63.791 15.312V156.27h14.52c2.824 0 4.984.131 6.471.385 2.09.328 3.844.957 5.262 1.885 1.408.92 2.547 2.225 3.408 3.885.863 1.67 1.289 3.5 1.289 5.498 0 3.426-1.15 6.334-3.449 8.707-2.309 2.363-6.471 3.557-12.486 3.557h-10.92v16.381h-4.095v-.002zm4.094-20.552h11.904c3.934 0 6.73-.689 8.379-2.08 1.65-1.389 2.477-3.338 2.477-5.852 0-1.828-.482-3.389-1.459-4.688-.975-1.299-2.25-2.15-3.846-2.568-1.029-.252-2.914-.385-5.68-.385h-11.775v15.573zm-61.49 5.465c0-4.438 1.605-8.227 4.816-11.379s7.016-4.729 11.416-4.729c4.617 0 8.563 1.547 11.822 4.643 3.26 3.098 4.895 6.793 4.895 11.08 0 4.504-1.596 8.352-4.785 11.541-3.201 3.189-7.066 4.783-11.615 4.783-4.627 0-8.541-1.566-11.742-4.689-3.202-3.125-4.807-6.868-4.807-11.25zm4.3-.065c0 3.49 1.168 6.408 3.508 8.762 2.35 2.355 5.252 3.527 8.74 3.527 3.42 0 6.293-1.172 8.621-3.527 2.32-2.354 3.479-5.291 3.479-8.809 0-3.574-1.178-6.512-3.527-8.811s-5.332-3.451-8.949-3.451c-3.25 0-6.045 1.182-8.373 3.545-2.331 2.366-3.499 5.282-3.499 8.764zm-13.15-10.303v-14.568h4.123v40.023h-4.123v-4.561c-1.438 1.68-3.211 2.992-5.342 3.939-2.131.949-4.379 1.418-6.768 1.418-4.609 0-8.482-1.539-11.633-4.615-3.16-3.078-4.738-6.859-4.738-11.324 0-4.439 1.557-8.172 4.678-11.203 3.111-3.029 7.016-4.551 11.693-4.551 2.518 0 4.805.461 6.867 1.389a14.178 14.178 0 015.243 4.053zm.119 10.641c0-3.443-1.209-6.391-3.617-8.82-2.408-2.439-5.242-3.658-8.492-3.658-3.371 0-6.254 1.162-8.652 3.48-2.396 2.316-3.594 5.15-3.594 8.5 0 3.537 1.207 6.502 3.613 8.904 2.408 2.4 5.322 3.602 8.752 3.602 3.15 0 5.936-1.201 8.363-3.602 2.418-2.402 3.627-5.197 3.627-8.406zm-37.746 14.814h-4.156v-30.238h3.867v3.488c1.002-1.34 2.102-2.316 3.291-2.945 1.199-.619 2.586-.947 4.172-.984l.031 4.203c-2.578.215-4.42.947-5.531 2.186-1.119 1.238-1.674 3.246-1.674 6.033v18.257zm-14.57-4.785c-1.279 1.744-3.004 3.105-5.184 4.1-2.18.984-4.529 1.482-7.045 1.482-4.678 0-8.583-1.52-11.694-4.551-3.123-3.031-4.678-6.773-4.678-11.23 0-4.521 1.596-8.303 4.775-11.352 3.182-3.039 7.164-4.561 11.952-4.561 2.459 0 4.707.471 6.76 1.418a13.427 13.427 0 015.113 4.08v-4.84h4.004v30.238h-4.004v-4.784h.001zm0-10.527c0-3.209-1.209-6.004-3.627-8.396s-5.213-3.584-8.365-3.584c-3.428 0-6.342 1.191-8.75 3.584s-3.617 5.357-3.617 8.895c0 3.367 1.199 6.211 3.598 8.527s5.283 3.48 8.653 3.48c3.25 0 6.084-1.219 8.492-3.668s3.616-5.395 3.616-8.838zm-37.459-5.639c-1.26-2.195-2.794-3.818-4.599-4.879-1.813-1.051-3.963-1.576-6.461-1.576-3.289 0-6.084 1.182-8.373 3.547-2.289 2.363-3.439 5.283-3.439 8.764s1.15 6.389 3.459 8.725c2.3 2.336 5.144 3.508 8.533 3.508 2.477 0 4.656-.58 6.561-1.734 1.893-1.154 3.328-2.768 4.32-4.859h4.527c-1.238 3.283-3.18 5.816-5.836 7.617-2.646 1.793-5.777 2.691-9.375 2.691-4.627 0-8.532-1.557-11.713-4.662-3.182-3.105-4.777-6.848-4.777-11.229 0-4.467 1.615-8.258 4.836-11.363s7.146-4.662 11.773-4.662c3.459 0 6.512.881 9.156 2.654 2.646 1.766 4.617 4.25 5.936 7.459h-4.528v-.001zm-36.261 20.951v-30.238h4.093v30.238h-4.093zm4.093-33.785h-4.093v-6.238h4.093v6.238zm-42.622 33.783V156.27h14.519c7.366 0 16.431 1.627 16.431 10.996 0 7.178-5.393 10.17-11.39 11.082 2.941 1.656 4.768 3.328 7.474 7.25l7.403 10.967h-5.344l-5.791-8.48c-1.645-2.412-3.001-4.27-4.071-5.547-.916-1.109-4.285-3.449-6.131-3.863h-.798a6.75 6.75 0 01-.578 0h-7.63v17.891h-4.094v-.002zm4.093-22.062h11.904c4.72 0 10.854-1.203 10.854-7.078 0-6.291-6.191-6.982-10.982-6.982h-11.776v14.06z"/><path fill-rule="evenodd" clip-rule="evenodd" fill="#FFF" d="M282.961 235.807c0 .172-.01.324-.027.455-.02.129-.047.24-.08.33a.404.404 0 01-.139.18.296.296 0 01-.176.057c-.107 0-.289-.088-.543-.26a8.803 8.803 0 00-1.023-.576 9.573 9.573 0 00-1.532-.576c-.596-.172-1.301-.26-2.112-.26-.975 0-1.844.176-2.615.529a5.688 5.688 0 00-1.96 1.473c-.539.625-.947 1.369-1.234 2.232a8.948 8.948 0 00-.428 2.805c0 1.129.158 2.127.469 3 .316.867.748 1.605 1.305 2.205a5.36 5.36 0 001.984 1.361c.768.311 1.611.463 2.527.463.545 0 1.098-.064 1.657-.199a6.263 6.263 0 001.56-.59v-5.145h-4.076c-.158 0-.273-.078-.348-.232-.08-.152-.117-.395-.117-.725 0-.172.01-.32.027-.441a.974.974 0 01.09-.301.473.473 0 01.143-.168.345.345 0 01.205-.055h5.586a.867.867 0 01.573.219c.082.074.148.17.189.297.047.129.07.273.07.436v6.719c0 .238-.043.441-.121.613-.084.172-.256.324-.52.455-.26.131-.604.273-1.021.428a11.175 11.175 0 01-2.64.64c-.455.055-.905.084-1.344.084-1.365 0-2.584-.209-3.65-.633-1.074-.422-1.98-1.025-2.719-1.805-.738-.781-1.305-1.715-1.695-2.805-.389-1.092-.584-2.305-.584-3.65 0-1.398.209-2.666.631-3.799.424-1.133 1.018-2.098 1.783-2.902a7.952 7.952 0 012.76-1.857c1.078-.439 2.265-.658 3.572-.658.67 0 1.297.061 1.888.176.59.121 1.116.26 1.575.418.456.162.842.334 1.157.525.313.186.525.338.646.459a.931.931 0 01.24.408c.044.154.067.377.067.67zm10.715 3.408c0 .199-.006.367-.016.502-.008.133-.027.24-.055.32a.42.42 0 01-.102.176c-.037.041-.094.061-.168.061s-.162-.02-.264-.061a5.91 5.91 0 00-.795-.236 2.401 2.401 0 00-.531-.057c-.227 0-.449.047-.668.135a2.59 2.59 0 00-.684.455c-.24.209-.492.488-.756.832-.26.348-.553.77-.869 1.271v8.057a.306.306 0 01-.055.186.453.453 0 01-.178.129 1.424 1.424 0 01-.344.08 4.624 4.624 0 01-.557.027c-.223 0-.404-.01-.547-.027a1.549 1.549 0 01-.35-.08.422.422 0 01-.182-.129.347.347 0 01-.045-.186v-12.25a.39.39 0 01.041-.186.374.374 0 01.162-.135.99.99 0 01.316-.084 4.96 4.96 0 01.506-.018c.199 0 .367.004.496.018a.877.877 0 01.313.084c.07.043.125.088.158.135a.387.387 0 01.045.186v1.783c.336-.492.65-.891.943-1.203.297-.307.576-.553.836-.729.264-.176.525-.297.779-.367.262-.068.521-.102.785-.102a4.3 4.3 0 01.402.018c.148.016.307.043.469.076.162.037.311.078.441.125a.944.944 0 01.277.135.3.3 0 01.107.129.957.957 0 01.051.154c.014.064.023.158.027.277.012.126.012.29.012.499zm12.461 11.455a.35.35 0 01-.047.186.4.4 0 01-.172.129c-.08.033-.186.061-.32.08a3.637 3.637 0 01-.482.027c-.205 0-.377-.01-.508-.027a1.298 1.298 0 01-.314-.08c-.074-.037-.131-.082-.154-.129a.388.388 0 01-.041-.186v-1.621c-.701.771-1.389 1.328-2.07 1.682-.678.352-1.371.529-2.066.529-.818 0-1.506-.135-2.063-.408a3.617 3.617 0 01-1.354-1.111 4.488 4.488 0 01-.742-1.629c-.15-.623-.225-1.379-.225-2.266v-7.426a.35.35 0 01.047-.186.462.462 0 01.186-.135c.088-.041.209-.068.354-.084.145-.014.324-.018.543-.018s.4.004.543.018c.145.016.26.043.348.084a.558.558 0 01.18.135.305.305 0 01.057.186v7.133c0 .715.051 1.291.158 1.723.102.432.26.799.473 1.1.215.307.488.545.813.711.326.168.707.25 1.143.25.563 0 1.123-.199 1.682-.598.561-.4 1.15-.984 1.777-1.756v-8.563c0-.074.014-.135.047-.186a.462.462 0 01.186-.135c.088-.041.205-.068.344-.084.145-.014.324-.018.553-.018.219 0 .398.004.543.018.145.016.26.043.34.084a.672.672 0 01.186.135.283.283 0 01.061.186v12.25h-.006zm14.849-6.324c0 1.072-.117 2.033-.35 2.887-.227.852-.566 1.574-1.016 2.17a4.537 4.537 0 01-1.664 1.373c-.658.32-1.416.484-2.266.484-.361 0-.695-.037-1.002-.107a3.733 3.733 0 01-.906-.344 5.113 5.113 0 01-.873-.584c-.293-.232-.6-.512-.924-.828v6.135a.321.321 0 01-.055.189.39.39 0 01-.178.141 1.46 1.46 0 01-.344.078c-.145.02-.33.027-.557.027-.223 0-.404-.008-.549-.027a1.57 1.57 0 01-.348-.078.367.367 0 01-.182-.141.37.37 0 01-.045-.189V238.42c0-.084.014-.148.041-.199a.323.323 0 01.162-.125c.084-.037.186-.064.316-.08.125-.014.283-.018.465-.018.189 0 .348.004.473.018.121.016.223.043.307.074a.403.403 0 01.172.131.356.356 0 01.047.199v1.639c.371-.381.729-.709 1.072-.992a6.508 6.508 0 011.039-.697c.35-.186.707-.33 1.074-.422a4.459 4.459 0 011.16-.145c.887 0 1.639.172 2.266.516.623.348 1.133.816 1.527 1.416s.684 1.295.865 2.09c.183.792.273 1.634.273 2.521zm-2.341.259c0-.627-.047-1.234-.143-1.82a5.434 5.434 0 00-.488-1.561 2.946 2.946 0 00-.934-1.092c-.391-.273-.877-.408-1.457-.408a2.86 2.86 0 00-.859.131 3.702 3.702 0 00-.859.408c-.289.186-.594.432-.91.738s-.654.682-1.008 1.129v4.871c.617.756 1.203 1.332 1.756 1.736.557.398 1.137.598 1.746.598.561 0 1.043-.133 1.447-.408.404-.273.73-.635.98-1.09s.432-.963.553-1.529a8.48 8.48 0 00.176-1.703zm16.521-.205c0 .998-.131 1.918-.395 2.758a6.06 6.06 0 01-1.176 2.17 5.323 5.323 0 01-1.953 1.42c-.785.34-1.695.512-2.727.512-1.008 0-1.885-.148-2.633-.451a4.77 4.77 0 01-1.867-1.305c-.496-.57-.867-1.268-1.113-2.08-.246-.816-.367-1.742-.367-2.777 0-.998.129-1.918.385-2.754.26-.84.65-1.564 1.17-2.172a5.275 5.275 0 011.951-1.416c.779-.334 1.689-.502 2.73-.502 1.008 0 1.885.148 2.633.451a4.743 4.743 0 011.865 1.305c.498.57.873 1.262 1.125 2.08.247.816.372 1.736.372 2.761zm-2.34.145c0-.664-.061-1.291-.186-1.881a4.583 4.583 0 00-.609-1.551 2.962 2.962 0 00-1.146-1.055c-.479-.26-1.082-.389-1.801-.389-.664 0-1.236.115-1.715.352a3.182 3.182 0 00-1.18 1.004c-.311.432-.537.943-.686 1.531a7.65 7.65 0 00-.229 1.932c0 .674.061 1.305.186 1.895.121.59.326 1.105.613 1.547.287.438.674.789 1.152 1.045.482.26 1.086.391 1.805.391.656 0 1.223-.117 1.705-.354s.877-.566 1.189-.994c.311-.426.537-.938.682-1.527s.22-1.241.22-1.946z"/></svg>