<svg width="62" height="62" fill="none" xmlns="http://www.w3.org/2000/svg"><path d="M15.5 0a3.886 3.886 0 00-3.875 3.875v54.25A3.886 3.886 0 0015.5 62h38.75a3.886 3.886 0 003.875-3.875V15.5L42.625 0H15.5z" fill="#E2E5E7"/><path d="M46.5 15.5h11.625L42.625 0v11.625A3.886 3.886 0 0046.5 15.5z" fill="#B0B7BD"/><path d="M58.125 27.125L46.5 15.5h11.625v11.625z" fill="#CAD1D8"/><path d="M50.375 50.375a1.943 1.943 0 01-1.938 1.938H5.813a1.943 1.943 0 01-1.938-1.938V31c0-1.066.872-1.938 1.938-1.938h42.624c1.066 0 1.938.872 1.938 1.938v19.375z" fill="#F7B84E"/><path d="M19.886 46.5c-.496-.28-.806-.837-.496-1.488l4.445-8.69c.418-.821 1.534-.852 1.922 0l4.367 8.69c.636 1.207-1.24 2.168-1.796.961l-.684-1.364h-5.716l-.666 1.364c-.246.527-.82.638-1.376.527zm6.66-3.935l-1.75-3.827-1.905 3.827h3.654zm5.428-5.855c0-1.271 2.046-1.318 2.046 0v8.843c0 1.286-2.046 1.317-2.046 0V36.71z" fill="#fff"/><path d="M48.438 52.313H11.624v1.937h36.813a1.943 1.943 0 001.937-1.938v-1.937a1.943 1.943 0 01-1.938 1.938z" fill="#CAD1D8"/></svg>