<svg width="62" height="62" fill="none" xmlns="http://www.w3.org/2000/svg"><path d="M15.5 0a3.886 3.886 0 00-3.875 3.875v54.25A3.886 3.886 0 0015.5 62h38.75a3.886 3.886 0 003.875-3.875V15.5L42.625 0H15.5z" fill="#E2E5E7"/><path d="M46.5 15.5h11.625L42.625 0v11.625A3.886 3.886 0 0046.5 15.5z" fill="#B0B7BD"/><path d="M58.125 27.125L46.5 15.5h11.625v11.625z" fill="#CAD1D8"/><path d="M50.375 50.375a1.943 1.943 0 01-1.938 1.938H5.813a1.943 1.943 0 01-1.938-1.938V31c0-1.066.872-1.938 1.938-1.938h42.624c1.066 0 1.938.872 1.938 1.938v19.375z" fill="#576D7E"/><path d="M12.586 41.061c0-2.99 1.873-5.56 5.438-5.56 1.347 0 2.417.403 3.548 1.38.419.385.463 1.067.045 1.5a1.05 1.05 0 01-1.424-.046c-.636-.666-1.287-.85-2.169-.85-2.385 0-3.532 1.69-3.532 3.578 0 1.922 1.132 3.687 3.532 3.687.882 0 1.704-.358 2.417-.992.48-.372 1.147-.188 1.424.186.248.341.372.915-.17 1.455-1.086 1.01-2.386 1.211-3.672 1.211-3.748 0-5.437-2.56-5.437-5.549zM23.7 38.103c.356-3.005 4.893-3.546 7.033-1.903 1.053.85-.063 2.2-.992 1.517-1.148-.728-3.75-1.07-4.075.54-.419 2.543 6.32 1.088 6.212 5.207-.109 3.935-5.809 4.028-7.948 2.26-.514-.416-.496-1.096-.217-1.516.403-.401.85-.54 1.38-.109 1.268.868 4.539 1.52 4.77-.684-.198-2.29-6.644-.91-6.164-5.312zm9.78 0c.357-3.005 4.894-3.546 7.033-1.903 1.054.85-.062 2.2-.992 1.517-1.147-.728-3.749-1.07-4.074.54-.419 2.543 6.32 1.088 6.211 5.207-.108 3.935-5.808 4.028-7.947 2.26-.512-.416-.496-1.096-.217-1.516.403-.401.85-.54 1.38-.109 1.268.868 4.539 1.52 4.771-.684-.201-2.29-6.646-.91-6.165-5.312z" fill="#fff"/><path d="M48.438 52.313H11.624v1.937h36.813a1.943 1.943 0 001.937-1.938v-1.937a1.943 1.943 0 01-1.938 1.938z" fill="#CAD1D8"/></svg>