<svg width="62" height="62" fill="none" xmlns="http://www.w3.org/2000/svg"><path d="M15.5 0a3.886 3.886 0 00-3.875 3.875v54.25A3.886 3.886 0 0015.5 62h38.75a3.886 3.886 0 003.875-3.875V15.5L42.625 0H15.5z" fill="#E2E5E7"/><path d="M46.5 15.5h11.625L42.625 0v11.625A3.886 3.886 0 0046.5 15.5z" fill="#B0B7BD"/><path d="M58.125 27.125L46.5 15.5h11.625v11.625z" fill="#CAD1D8"/><path d="M50.375 50.375a1.943 1.943 0 01-1.938 1.938H5.813a1.943 1.943 0 01-1.938-1.938V31c0-1.066.872-1.938 1.938-1.938h42.624c1.066 0 1.938.872 1.938 1.938v19.375z" fill="#50BEE8"/><path d="M11.21 46.5c-.511 0-1.07-.281-1.07-.961v-8.798c0-.558.559-.961 1.07-.961h3.548c7.08 0 6.922 10.72.137 10.72H11.21zm.977-8.831v6.94h2.57c4.184 0 4.368-6.94 0-6.94h-2.57zm15.423 8.986c-2.866.124-5.842-1.782-5.842-5.578 0-3.811 2.974-5.685 5.841-5.685 2.71.138 5.545 2.013 5.545 5.685 0 3.674-2.834 5.578-5.545 5.578zm-.171-9.248c-1.736 0-3.625 1.225-3.625 3.672 0 2.433 1.89 3.673 3.625 3.673 1.782 0 3.687-1.24 3.687-3.673 0-2.45-1.905-3.672-3.687-3.672zm7.538 3.654c0-2.99 1.876-5.56 5.44-5.56 1.348 0 2.417.403 3.547 1.38.418.385.465 1.067.046 1.5a1.052 1.052 0 01-1.426-.046c-.633-.666-1.284-.85-2.168-.85-2.385 0-3.53 1.69-3.53 3.578 0 1.922 1.13 3.687 3.53 3.687.884 0 1.705-.358 2.418-.992.479-.372 1.145-.188 1.424.186.248.341.37.915-.17 1.455-1.085 1.01-2.385 1.211-3.674 1.211-3.747 0-5.437-2.56-5.437-5.549z" fill="#fff"/><path d="M48.438 52.313H11.624v1.937h36.813a1.943 1.943 0 001.937-1.938v-1.937a1.943 1.943 0 01-1.938 1.938z" fill="#CAD1D8"/></svg>