<svg width="62" height="62" fill="none" xmlns="http://www.w3.org/2000/svg"><path d="M15.5 0a3.886 3.886 0 00-3.875 3.875v54.25A3.886 3.886 0 0015.5 62h38.75a3.886 3.886 0 003.875-3.875V15.5L42.625 0H15.5z" fill="#E2E5E7"/><path d="M46.5 15.5h11.625L42.625 0v11.625A3.886 3.886 0 0046.5 15.5z" fill="#B0B7BD"/><path d="M58.125 27.125L46.5 15.5h11.625v11.625z" fill="#CAD1D8"/><path d="M50.375 50.375a1.943 1.943 0 01-1.938 1.938H5.813a1.943 1.943 0 01-1.938-1.938V31c0-1.066.872-1.938 1.938-1.938h42.624c1.066 0 1.938.872 1.938 1.938v19.375z" fill="#F15642"/><path d="M12.32 36.71c0-.512.403-1.07 1.052-1.07h3.579c2.015 0 3.828 1.349 3.828 3.934 0 2.449-1.813 3.813-3.828 3.813h-2.587v2.045c0 .682-.434 1.068-.992 1.068a1.044 1.044 0 01-1.052-1.068V36.71zm2.044.881v3.86h2.587c1.038 0 1.86-.916 1.86-1.877 0-1.084-.822-1.983-1.86-1.983h-2.587zm9.45 8.909c-.512 0-1.07-.279-1.07-.96v-8.8c0-.555.558-.96 1.07-.96h3.547c7.08 0 6.925 10.72.14 10.72h-3.687zm.976-8.83v6.94h2.571c4.183 0 4.37-6.94 0-6.94h-2.57zm12.007.125v2.462h3.95c.558 0 1.116.558 1.116 1.099 0 .511-.558.93-1.116.93h-3.95v3.253c0 .542-.386.959-.928.959-.682 0-1.099-.416-1.099-.959v-8.8c0-.556.418-.961 1.099-.961h5.438c.682 0 1.085.405 1.085.96a1.07 1.07 0 01-1.085 1.055h-4.51v.002z" fill="#fff"/><path d="M48.438 52.313H11.624v1.937h36.813a1.943 1.943 0 001.937-1.938v-1.937a1.943 1.943 0 01-1.938 1.938z" fill="#CAD1D8"/></svg>