<svg width="62" height="62" fill="none" xmlns="http://www.w3.org/2000/svg"><path d="M15.5 0a3.886 3.886 0 00-3.875 3.875v54.25A3.886 3.886 0 0015.5 62h38.75a3.886 3.886 0 003.875-3.875V15.5L42.625 0H15.5z" fill="#E2E5E7"/><path d="M46.5 15.5h11.625L42.625 0v11.625A3.886 3.886 0 0046.5 15.5z" fill="#B0B7BD"/><path d="M58.125 27.125L46.5 15.5h11.625v11.625z" fill="#CAD1D8"/><path d="M50.375 50.375a1.943 1.943 0 01-1.938 1.938H5.813a1.943 1.943 0 01-1.938-1.938V31c0-1.066.872-1.938 1.938-1.938h42.624c1.066 0 1.938.872 1.938 1.938v19.375z" fill="#A066AA"/><path d="M18.87 37.717h-2.711c-1.347 0-1.347-1.982 0-1.982h7.328c1.377 0 1.377 1.982 0 1.982h-2.572v7.822c0 1.347-2.046 1.38-2.046 0v-7.822zm7.472-1.007c0-1.271 2.046-1.318 2.046 0v8.843c0 1.286-2.046 1.317-2.046 0V36.71zm6.803 1.083v2.462h3.948c.558 0 1.116.558 1.116 1.1 0 .512-.558.929-1.116.929h-3.948v3.253c0 .543-.388.961-.93.961-.682 0-1.099-.418-1.099-.961v-8.798c0-.558.419-.961 1.099-.961h5.438c.682 0 1.085.403 1.085.96 0 .497-.403 1.053-1.085 1.053h-4.508v.002z" fill="#fff"/><path d="M48.438 52.313H11.624v1.937h36.813a1.943 1.943 0 001.937-1.938v-1.937a1.943 1.943 0 01-1.938 1.938z" fill="#CAD1D8"/></svg>