<svg width="200" height="215" fill="none" xmlns="http://www.w3.org/2000/svg"><path d="M45.033 97.315c-5.41-1.363-9.872-5.039-14.126-8.632A11530.521 11530.521 0 005.587 67.41c8.88 1.074 17.968.661 26.724-1.28 2.933-.661 5.948-1.487 8.303-3.387 2.685-2.148 4.296-5.329 5.659-8.468 5.989-13.465 9.996-29.822 2.313-42.38a170.403 170.403 0 0018.67 26.312C77.747 23.916 90.18 11.03 104.059 0c-1.528 8.137.124 16.811 4.502 23.833 1.776 2.809 4.089 5.494 7.187 6.65 4.213 1.57 8.922.124 13.135-1.487 10.946-4.089 21.603-9.004 31.847-14.622-9.377 7.724-19.455 16.729-20.612 28.831-.206 2.066.042 4.503 1.694 5.742 1.363.991 3.18.908 4.874.785 13.218-1.033 26.435-2.107 39.653-3.14a150.633 150.633 0 00-18.67 15.283c-2.024 1.983-4.048 5.37-1.983 7.311 1.198 1.116 3.057.95 4.668.744 8.591-1.033 17.389-.248 25.692 2.23 1.363.413 2.85.95 3.552 2.23 1.322 2.314-.867 4.999-2.891 6.734a196.952 196.952 0 01-38.827 25.774c-8.922 4.502-18.257 8.385-26.105 14.581-4.42 3.511-8.55 7.807-14.044 9.087-6.815 1.57-13.755-2.065-19.331-6.278-5.618-4.213-10.905-9.253-17.596-11.194-5.535-1.611-11.648-.95-16.977-3.139-8.178-3.346-13.672-13.011-22.511-13.218" fill="#F4F6F9"/><path d="M182.25 101.363c-.867 4.751-2.974 9.212-5.204 13.507-3.181 6.155-6.609 12.144-10.244 18.051-1.611 2.602-3.346 5.287-5.824 7.104-3.676 2.685-8.509 3.139-13.094 2.561-2.974 3.47-5.989 6.939-9.624 9.748-1.157.909-2.396 1.735-3.8 2.231-3.924 1.322-8.385-.579-12.433-.537-.289.371-.62.702-.992 1.032-5.947 5.618-14.002 8.881-22.18 8.964-7.022.082-14.003-2.19-19.703-6.32a14.015 14.015 0 00-3.263 3.18c-2.892 3.842-.909 7.766-.413 13.425-.29.041-.537.124-.785.165a34.494 34.494 0 013.965 13.548 42.713 42.713 0 00-16.522 2.809l.124.33c-1.859-2.85-3.346-5.948-4.461-9.211-.124-.372-.248-.785-.29-1.198-1.156.62-2.27 1.281-3.386 1.942-7.022-5.37-13.59-11.566-17.803-19.331-4.172-7.766-5.7-17.307-2.437-25.527 2.974-7.435 10.41-13.218 18.298-13.342-1.61-4.047-2.395-8.467-2.23-12.804.33-8.963 4.544-17.431 10.326-24.329.33-.413.703-.826 1.033-1.198-6.279-7.517-12.598-14.994-18.877-22.511 15.531-13.094 32.714-24.288 51.013-33.169 1.858-.908 4.13-1.776 5.824-.62.702.497 1.197 1.281 1.652 2.025 7.559 12.64 15.118 25.32 22.676 37.96 7.642 3.345 14.292 9.128 18.299 16.48a30.753 30.753 0 012.189 4.916c.289-.248.578-.496.826-.744 4.957-4.296 10.657-8.013 17.1-9.17 6.444-1.115 13.755.826 17.596 6.155 2.933 3.883 3.511 9.128 2.644 13.878zm-81.33 62.619c-4.585 0-8.261 11.277-8.261 25.197s3.717 25.196 8.261 25.196c4.543 0 8.261-11.276 8.261-25.196 0-13.92-3.676-25.197-8.261-25.197zm-45.519 21.686c-3.056.826-4.006 7.187-2.106 14.167 1.9 6.981 5.906 12.02 9.004 11.153 3.057-.826 4.007-7.187 2.107-14.168-1.9-7.022-5.948-12.02-9.005-11.152zm82.487-5.453c-3.18-.33-6.32 5.246-7.063 12.475-.744 7.228 1.239 13.341 4.378 13.63 3.181.331 6.32-5.246 7.063-12.474.744-7.187-1.239-13.3-4.378-13.631z" fill="#fff"/><path d="M168.123 158.406c-.702-.413-.041-1.487.62-1.074 4.626 2.767 9.252 5.576 13.878 8.343.702.413.042 1.487-.619 1.074-4.627-2.767-9.253-5.576-13.879-8.343zm-6.609 6.939l7.931 7.931c.578.578 1.445-.331.867-.868l-7.93-7.93c-.579-.579-1.446.289-.868.867zm-139.984 1.9c-4.791 2.107-9.582 4.254-14.374 6.361-.743.33-.082 1.404.62 1.074 4.791-2.107 9.583-4.254 14.374-6.361.702-.331.083-1.363-.62-1.074zm2.644-54.936a92.21 92.21 0 01-23.585 1.446c-.785-.042-.785 1.197 0 1.239 8.013.537 16.067 0 23.915-1.487.785-.124.455-1.322-.33-1.198zm-2.85 7.972c-3.429.702-6.898 1.363-10.326 2.065-.785.165-.455 1.363.33 1.198 3.428-.702 6.898-1.363 10.326-2.065.785-.166.455-1.363-.33-1.198zm96.861-87.485c1.033-2.396 2.065-4.833 3.098-7.228.124-.29.082-.661-.207-.868-.248-.165-.702-.082-.867.207-1.033 2.395-2.065 4.832-3.098 7.228-.124.29-.083.661.206.868.248.165.703.123.868-.207zM47.346 26.56a681.998 681.998 0 01-5.163-6.196c-.206-.248-.66-.206-.867 0-.248.248-.207.62 0 .868 1.734 2.065 3.47 4.13 5.163 6.195.206.248.66.207.867 0 .248-.247.207-.62 0-.867zm-12.763-3.18c3.056 2.436 6.072 4.915 9.128 7.352.62.495 1.487-.372.868-.868-3.057-2.437-6.072-4.915-9.129-7.352-.62-.496-1.487.372-.867.867zm87.402 140.892c.33 6.319.371 12.639.124 18.959 0 .495-.537.661-.868.537h-.041l-10.905.991c-.785.083-.785-1.157 0-1.239 3.553-.331 7.063-.661 10.616-.95.206-6.113.165-12.226-.165-18.298-1.735-.083-3.429-.166-5.164-.331-.784-.082-.784-1.322 0-1.239 1.9.165 3.842.289 5.742.33v-.247.247c6.402.207 12.804-.165 19.165-1.115.785-.124 1.116 1.074.331 1.198a106.387 106.387 0 01-18.835 1.157zm-16.812 26.559c-.165.785 1.033 1.115 1.198.33 1.116-5.204.868-10.615-.661-15.737-.247-.743-1.404-.454-1.197.331 1.487 4.915 1.734 10.119.66 15.076zm-6.484-21.727c-2.19 3.47-3.305 7.601-3.098 11.69.04.785 1.28.785 1.239 0-.165-3.883.826-7.766 2.932-11.07.413-.661-.66-1.281-1.073-.62zm38.455 14.912c.785-.331 1.198.33 1.363.991.619 1.983.743 4.13.413 6.154-.041.331.083.661.413.744.289.082.702-.083.743-.413.207-1.322.29-2.644.166-4.007-.124-1.239-.331-2.602-.909-3.717-.578-1.033-1.735-1.405-2.809-.909-1.156.537-1.569 1.776-1.9 2.891-.206.785.991 1.116 1.198.331.289-.702.537-1.735 1.322-2.065zm-81.248 16.522c-.289.082-.537.454-.413.743a26.236 26.236 0 004.007 7.105c.371.495.826.908 1.445 1.074.579.124 1.198 0 1.694-.331 1.115-.702 1.404-2.024 1.57-3.222.04-.33-.083-.66-.413-.743-.29-.083-.703.083-.744.413-.124.909-.248 2.065-1.115 2.561-.909.537-1.57-.62-2.024-1.239-1.322-1.818-2.396-3.842-3.222-5.948-.124-.289-.454-.496-.785-.413zM181.34 106.94c-1.445 3.883-3.387 7.6-5.369 11.235a277.255 277.255 0 01-6.444 11.359c-2.024 3.428-4.006 7.187-6.98 9.913-2.644 2.437-6.072 3.594-9.625 3.842-1.611.123-3.221.041-4.791-.124-1.735 2.024-3.47 4.006-5.328 5.906-1.529 1.529-3.181 3.057-4.957 4.337-.289-.33-.578-.619-.867-.908.082-.083.165-.124.289-.207 3.676-2.685 6.732-6.196 9.706-9.624a62.215 62.215 0 00-7.021-3.057 63.685 63.685 0 00-7.146-2.024c-1.116-.247-2.396-.578-3.47-.124-.413.166-.702.414-.991.703v.124c.041 1.321-.785 2.437-1.9 3.015-1.9 3.552-3.759 7.146-5.618 10.698-.496.413-.991.867-1.404 1.363l-.124.248-.537.826c-.083.041-.165.041-.248.083-.124.165-.248.33-.372.537-.082-.083-.165-.207-.165-.331-3.057 1.033-6.402 1.239-9.707 1.033-.95-.042-1.9-.124-2.808-.207.206 1.446-.124 2.933-1.157 4.048-.743.826-1.735 1.363-2.809 1.487.124.702.207 1.404.331 2.107a32.04 32.04 0 0012.928-4.213c.744-.455 1.487-.909 2.189-1.405a13.142 13.142 0 00-.495 1.818 33.514 33.514 0 01-2.644 1.487c-3.304 1.652-6.815 2.808-10.45 3.345 3.8 2.974 6.485 12.846 6.485 24.866v.909a58.75 58.75 0 016.031.082 50.216 50.216 0 0114.291 3.264c0-.248.041-.496.083-.785.785-7.683 4.213-13.383 7.765-13.011 3.552.371 5.742 6.65 4.957 14.333-.372 3.552-1.322 6.898-2.685 9.293-1.363 2.437-3.057 3.718-4.709 3.718h-.33c-1.776-.165-3.263-1.859-4.172-4.668-.702-2.148-.991-4.791-.909-7.6-6.443-2.52-13.383-3.717-20.281-3.387-.372 13.424-4.13 23.627-8.88 23.627-4.668 0-8.385-9.914-8.84-23.049a84.094 84.094 0 00-10.615 1.446c-.083.041-.124.041-.207.041-.041.785-.082 1.57-.082 2.355-.042.785-1.28.785-1.24 0 .083-2.52.207-5.081.29-7.601 0-.454.413-.66.784-.578a.486.486 0 01.413-.371 40.82 40.82 0 0110.699-1.57c.454-9.996 2.808-18.009 5.989-21.025-1.28 0-2.602-.123-3.883-.289-5.37-.702-10.533-2.767-14.994-5.865a13.213 13.213 0 00-2.56 2.478c-1.405 1.776-1.777 3.842-1.57 6.072.082.744.165 1.487.289 2.231.206.826.413 1.611.578 2.437a.639.639 0 01-.082.495c.123.703.206 1.405.289 2.107.041.248-.207.537-.455.578h-.041a30.295 30.295 0 011.61 3.759c1.116 3.015 1.777 6.154 2.025 9.376a.667.667 0 01-.124.372c-.372-.454-.785-.909-1.24-1.28a34.475 34.475 0 00-3.593-11.938c-5.617 1.239-11.07 3.222-16.109 5.907.124.661.455 1.363.661 1.9.33.909.702 1.817 1.115 2.685.166.372.372.785.537 1.156-.124.124-.248.248-.33.372.206.207.372.455.578.661 1.611 2.024 3.015 4.833 3.924 7.972 4.915.124 9.83.289 14.746.537.785.041.785 1.28 0 1.239a559.797 559.797 0 00-14.415-.537c1.858 7.27.702 13.548-2.685 14.457-.29.083-.537.124-.826.124-3.264 0-7.064-4.874-8.922-11.731-2.024-7.435-.91-14.002 2.56-14.952 1.116-.289 2.314 0 3.511.867-.619-1.363-1.197-2.767-1.61-4.213-.868.496-1.776.991-2.603 1.528a.563.563 0 01-.62 0c-4.956-3.8-9.706-7.972-13.589-12.887-6.774-8.592-10.946-20.157-7.517-31.02 2.56-8.096 10.078-14.87 18.629-15.407-1.198-3.305-1.9-6.816-1.983-10.368-.207-9.211 3.759-18.05 9.376-25.196a46.413 46.413 0 011.818-2.19c-6.155-7.352-12.35-14.704-18.505-22.056-.207-.248-.29-.661 0-.868.743-.66 1.528-1.28 2.313-1.9a258.052 258.052 0 0119.124-14.25c6.61-4.461 13.425-8.55 20.405-12.35 1.735-.95 3.511-1.86 5.287-2.768 1.735-.867 3.428-1.817 5.205-2.52 1.57-.66 3.428-1.073 4.998-.247.784.413 1.321 1.115 1.776 1.817.578.867 1.074 1.776 1.611 2.685 4.502 7.559 9.045 15.118 13.548 22.677 2.602 4.337 5.163 8.674 7.765 12.97a40.046 40.046 0 0110.74 6.98c4.047 3.676 7.6 8.509 9.624 13.796 4.791-4.172 10.285-7.848 16.522-9.211 6.278-1.363 13.589-.041 18.092 4.833 5.245 5.906 4.708 14.498 2.147 21.396zM59.862 188.683c-1.322-1.611-2.644-2.52-3.76-2.52-.164 0-.33.042-.536.083-2.396.661-3.635 6.196-1.694 13.424 1.941 7.229 5.824 11.401 8.22 10.74 2.396-.661 3.635-6.155 1.694-13.301-1.86-.041-3.718-.082-5.577-.082-.785 0-.785-1.239 0-1.239 1.735.041 3.47.041 5.205.082-.868-2.85-2.107-5.37-3.553-7.187zm71.458 5.205a50.123 50.123 0 015.204 2.519c.702.372.083 1.446-.619 1.074-1.529-.826-3.057-1.611-4.668-2.272-.041 2.479.248 4.833.868 6.733.743 2.313 1.858 3.676 3.139 3.8 1.239.124 2.643-.991 3.841-3.098 1.281-2.272 2.189-5.411 2.561-8.839.785-7.435-1.363-12.722-3.841-12.97h-.207c-2.437 0-5.452 4.668-6.196 11.937 0 .372-.041.744-.082 1.116zm-15.283-125.9a115.197 115.197 0 00-1.818 9.873 114.524 114.524 0 00.62 35.233.48.48 0 01-.083.413c.826.248 1.611.496 2.437.744a137.923 137.923 0 01-1.198-9.211c-1.032-11.938-.165-24.04 2.52-35.73.165-.784 1.363-.454 1.198.331a115.197 115.197 0 00-1.818 9.872c-1.569 11.194-1.404 22.635.372 33.788a47.112 47.112 0 002.024-2.024c.826-.909 1.735-1.9 2.107-3.139.041-.124.082-.29.082-.413a2.104 2.104 0 01-.908.454c-.95.289-2.148.041-2.727-.826-.619-.95-.247-2.107.579-2.768.908-.702 2.065-.743 2.974-.041.124.083.248.207.371.331.207-.744.29-1.487.331-2.19.206-2.767-.496-5.535-1.9-7.889-.413-.702.661-1.322 1.074-.62a13.701 13.701 0 011.569 3.677c.703 2.519.827 5.493-.082 7.93a2.49 2.49 0 01-.207.496c.124.372.166.785.166 1.198-.083 1.404-.827 2.643-1.694 3.676-1.074 1.322-2.313 2.437-3.552 3.635.041.454-.372.743-.744.743-.206.207-.413.455-.619.661-1.487 1.652-2.727 3.635-2.603 5.948.124 2.272 1.611 4.379 3.47 5.618 2.107 1.404 4.668 1.776 7.105 1.239 5.535-1.157 9.335-5.659 12.267-10.161 1.57-2.396 3.057-4.833 4.42-7.353 1.363-2.561 2.52-5.204 3.015-8.095.992-5.618-.578-11.483-3.222-16.481-2.271-4.255-5.452-7.972-9.169-11.029a38.451 38.451 0 00-16.357-7.89zm5.369 37.382c-.702-.289-2.065.537-1.445 1.363.619.826 1.858.165 2.272-.454 0-.041.041-.041.041-.083a1.554 1.554 0 00-.868-.826zM61.39 85.213c4.543-5.04 9.913-9.293 15.448-13.259-.537-1.239-.66-2.643-.207-3.924.496-1.404 1.653-2.478 2.974-3.056-3.758-3.181-7.641-11.07-4.295-15.16 4.378-5.37 9.872-3.015 11.152-10.408 3.676 1.94 3.924 7.145 2.644 9.004-.413.62-.91 1.115-1.363 1.528 1.156.083 2.313.33 3.428.703 1.693.62 3.304 1.528 4.956 2.313 1.694.826 3.346 1.652 5.04 2.478 3.139 1.57 6.278 3.14 9.459 4.668.33.165.413.743.124.99-2.479 2.107-4.957 4.214-7.477 6.28.166.495.372.95.537 1.445a2793.046 2793.046 0 016.403 16.729c.124.371-.083.62-.372.702-.496 2.189-1.57 4.172-3.015 5.865-2.933 3.47-7.394 5.453-11.896 5.205-4.544-.248-8.964-2.52-11.607-6.237a.66.66 0 01-.124-.33c-.041-.084-.041-.166-.041-.29.082-5.246 0-10.45-.207-15.696-.454.124-.95.206-1.445.206-.785 0-1.612-.165-2.314-.536a4.734 4.734 0 01-1.693-1.446 149.095 149.095 0 00-5.122 3.8.864.864 0 01.248.165 66.617 66.617 0 016.32 8.096c3.345 5.04 6.03 10.533 8.013 16.233 1.9 5.535 3.056 11.318 3.51 17.142 1.405-.537 2.768-1.074 4.131-1.694 3.676-1.611 7.394-3.346 11.359-4.006 1.9-.331 3.8-.372 5.7-.042a25.73 25.73 0 011.9.413 113.424 113.424 0 01-1.28-9.789c-1.033-11.896-.165-23.957 2.478-35.647a37.095 37.095 0 00-9.087-.495c-.785.041-.785-1.198 0-1.24a33.215 33.215 0 013.511-.082c4.42.124 8.798 1.033 12.929 2.602l-8.303-13.878c-4.419-7.394-8.839-14.788-13.217-22.14-.455-.743-.868-1.611-1.611-2.148-.661-.454-1.529-.537-2.313-.413-1.818.29-3.47 1.28-5.081 2.107a244.665 244.665 0 00-10.285 5.452 251.135 251.135 0 00-19.785 12.35 237.182 237.182 0 00-18.175 13.879c1.818 2.148 3.594 4.296 5.411 6.444 4.255 5.08 8.468 10.078 12.64 15.117zm23.833 35.068c1.363-.413 2.726-.867 4.048-1.321a71.044 71.044 0 00-1.404-9.748 68.644 68.644 0 00-6.031-16.73c-2.726-5.245-6.072-10.16-10.079-14.538a.592.592 0 01-.165-.414c-.495.413-1.032.826-1.528 1.24 1.9 2.643 3.8 5.287 5.617 7.972 6.527 9.748 11.896 21.478 9.542 33.539zm-2.065-54.853a.68.68 0 01-.744.496c-1.859-.372-3.965.784-4.585 2.56-.62 1.777.248 4.049 1.942 4.916 1.693.867 4.048.289 5.121-1.24.207-.288.579-.33.868-.164.289.206.33.578.165.867a4.75 4.75 0 01-1.735 1.528c.248 5.37.29 10.78.248 16.15 1.363 1.942 3.263 3.388 5.411 4.379 3.841 1.735 8.344 1.735 12.061-.29 3.553-1.9 6.196-5.328 6.94-9.334-.413-1.115-.868-2.23-1.281-3.346a2125.167 2125.167 0 00-5.617-14.58c-.083-.207 0-.496.165-.62 2.354-1.983 4.75-3.966 7.104-5.948a414.87 414.87 0 01-4.254-2.107c-3.139-1.57-6.237-3.14-9.376-4.667-.703-.33-1.405-.703-2.148-1.074l.371.371c.207.29.248.62 0 .868-.206.248-.66.248-.867 0a1.958 1.958 0 00-.413-.413l-.083-.083c-.082-.041-.165-.124-.247-.165-.042 0-.083-.041-.124-.041h-.042c-.082-.042-.165-.042-.248-.083h-.289c-.04 0-.04 0 0 0-.082 0-.206.041-.248.041-.04 0-.082.042-.082.042a.089.089 0 00-.083.082l-.041.042-.041.04v.042c0 .042-.042.083-.042.083 0 .041-.04.082-.04.124v.248c0 .04.082.165 0 0 .123.33.082.66-.208.867-.247.165-.702.083-.867-.206-.248-.538-.248-1.116.041-1.611.248-.496.744-.826 1.24-.95.247-.042.495-.083.702-.042-1.818-.785-3.759-1.28-5.783-.95h-.207c-1.734.95-3.139 1.776-2.808 5.08.248 2.438 2.024 4.999.041 8.138l-.413.206c.041 0 .124 0 .165.042.166.041.372.33.33.702zm-28.336 62.949a31.088 31.088 0 003.8 5.205c1.446 1.569 3.098 3.139 5.205 3.676 2.313.619 4.75-.124 6.898-1.033 1.115-.454 2.189-.991 3.263-1.528.991-.496 1.983-1.033 2.809-1.776 1.198-1.033 2.189-2.396 1.858-4.048-.289-1.363-1.073-2.602-1.57-3.883-.578-1.569-.701-3.18-.082-4.791.413-1.033.992-1.983 1.198-3.057.165-1.115-.083-2.23-.454-3.304-.785-2.148-2.19-3.966-2.933-6.113-.66-1.942-.867-4.131.33-5.907.455-.661 1.529-.041 1.074.62-.578.867-.784 1.858-.702 2.891.372 4.544 5.329 8.178 3.676 13.011-.371 1.033-.95 1.983-1.239 3.057a3.183 3.183 0 00-.082.619 67.147 67.147 0 004.832-1.032l1.487-.372c-.124-.124-.165-.331-.124-.537.661-3.222.703-6.526.29-9.748-1.446-11.648-8.427-21.52-15.16-30.773-4.13 3.511-7.93 7.394-11.07 11.855-5.039 7.228-8.22 15.944-7.27 24.825.414 4.213 1.818 8.426 3.966 12.143zm26.477 9.5c.083.124.041-.123-.083.042l-.041.041c-.083.165 0 .372.124.537l3.841.124a.917.917 0 01-.33-.537c-.33-2.891-2.809-5.452-5.659-5.865-1.24 1.858-3.263 2.974-5.246 3.924-2.189 1.074-4.46 2.189-6.898 2.519a7.497 7.497 0 01-2.354 0c1.446 1.653 3.098 3.14 4.956 4.337.91.579 1.9 1.281 2.975 1.487.495.124.95.083 1.28-.289.33-.33.578-.743.991-.991 1.074-.62 2.107.206 3.016.743.826.496 1.858.661 2.808.331a2.32 2.32 0 001.57-1.983c.041-.454 0-.95-.248-1.363-.248-.454-.702-.743-1.074-1.033-.743-.619-1.446-1.817-.702-2.726.537-.661 1.694-.702 2.148.083.413.661-.661 1.28-1.074.619zm7.765 15.655c2.437-.289 4.874-.248 7.311-.082.372-.785.95-1.446 1.653-1.859-.785 0-.744-1.198.04-1.239.62-.042 1.281 0 1.901.124-.041-1.074-.124-2.19-.165-3.263-1.363.165-2.768-.124-3.883-.909-1.941-1.322-2.933-3.842-2.478-6.113-3.594-.124-7.187-.248-10.781-.331l.206.207c.62.826.785 1.9.538 2.891-.496 2.024-2.52 3.057-4.503 2.767a4.494 4.494 0 01-1.487-.495c-.454-.248-.867-.661-1.363-.826-.537-.207-.785.165-1.115.537-.33.371-.702.661-1.198.826-.991.289-2.065-.124-2.974-.578-1.033-.537-1.983-1.157-2.933-1.818a25.934 25.934 0 01-4.956-4.791c-.083-.083-.124-.166-.124-.248-.826-.289-1.57-.702-2.313-1.239-1.818-1.322-3.305-3.057-4.627-4.833a33.518 33.518 0 01-3.428-5.741c-.206-.414-.372-.868-.578-1.322-4.172.206-8.22 1.941-11.4 4.709-3.718 3.18-6.155 7.517-7.146 12.309-1.074 5.204-.413 10.656 1.322 15.654 3.47 10.038 11.359 17.803 19.62 24.164 6.32-3.883 13.341-6.609 20.611-8.096-.165-1.446-.454-2.891-.702-4.337-.124-.413-.207-.785-.33-1.198l-5.825-13.383c-1.032-1.9-2.106-3.8-3.139-5.7-.372-.702.661-1.322 1.074-.619.909 1.652 1.859 3.304 2.726 4.956 1.942 3.594 3.759 7.229 5.205 11.07.248-1.817.991-3.47 2.272-4.957 3.304-3.841 8.178-5.7 12.97-6.237zm11.483 9.79c-.124-.744-.248-1.487-.33-2.231-.579-.082-1.157-.33-1.694-.702-1.817-1.281-2.767-3.594-2.478-5.783-1.941-.124-3.841-.165-5.783 0-3.428.289-6.98 1.198-9.913 3.098 4.791 3.263 10.45 5.246 16.192 5.618 1.321.082 2.684.082 4.006 0zm-8.509 27.344v-1.487c0-.785 0-1.529.042-2.272-3.47.041-6.94.578-10.327 1.528a.348.348 0 01-.289 0c-.041 1.239-.082 2.479-.165 3.718 3.552-.785 7.146-1.239 10.74-1.487zm9.996-25.775c.083.537.165 1.115.248 1.652.041.331-.083.661-.413.744-.289.083-.702-.083-.743-.413-.124-.744-.248-1.528-.372-2.272-3.346.248-6.857 8.509-7.394 21.024 2.52.042 5.08.331 7.559.827.785.165.454 1.363-.33 1.197a39.193 39.193 0 00-7.27-.784c-.041.743-.041 1.528-.041 2.271v1.405a80.03 80.03 0 014.46-.124c.785 0 .785 1.239 0 1.239a80.03 80.03 0 00-4.46.124c.454 13.218 4.13 21.892 7.6 21.892 3.717 0 7.641-9.872 7.641-24.577.041-13.135-3.139-22.47-6.485-24.205zm.992-11.565a5.309 5.309 0 00-1.777-1.239.317.317 0 01-.082.165c-.124.165-.289.248-.537.206a.764.764 0 01-.289-.082c-.826-.207-1.694.082-2.313.661-.703.702-.91 1.776-.827 2.767.124 1.611 1.157 3.387 2.727 3.965l.495.124c.042-.041.083-.041.124-.082.165-.042.372 0 .537.082 1.198-.082 2.313-.908 2.85-2.024.744-1.445.207-3.387-.908-4.543zm20.817-9.748c-.495.206-1.032.371-1.569.371-1.487.042-2.85-.743-3.883-1.776-.661 1.157-2.024 1.942-3.387 1.735-.909-.124-1.735-.702-2.272-1.446-.619.744-1.569 1.24-2.561 1.24-1.693-.042-3.056-1.364-3.676-2.892a8.324 8.324 0 01-.289-.95c-.909.124-1.859.248-2.767.455.041.908.041 1.776.082 2.684 0 .496.041.992.041 1.487 0 .496.001.785-.371 1.157-.62.578-1.405.991-2.231 1.28.083 1.281.124 2.561.207 3.842 1.445.495 2.726 1.404 3.511 2.767.165.248.289.496.372.785.702.083 1.404.124 2.106.207 3.965.289 8.055.123 11.689-1.405 1.446-2.767 2.892-5.535 4.379-8.343.206-.372.413-.785.619-1.198zm3.14-5.742c-.248-.826-1.033-1.487-1.9-1.528-.496-.041-.909-.702-.455-1.074 1.57-1.239 3.305-2.561 4.048-4.461.207-.62.331-1.198.331-1.817-.661.33-1.322.619-2.024.826-2.355.784-5.04.95-7.394.082-2.148-.785-4.048-2.313-5.163-4.295-1.157-2.024-1.363-4.42-.496-6.568.537-1.404 1.446-2.602 2.437-3.718-2.065-.578-4.089-1.363-6.196-1.486-4.006-.248-7.93 1.115-11.565 2.643-3.718 1.528-7.352 3.222-11.153 4.461a74.224 74.224 0 01-9.5 2.354c.041.166.041.29.083.455.372 1.446 1.198 2.726 1.693 4.172.372 1.074.413 2.189.083 3.221 3.346.744 5.948 3.594 6.361 6.981.041.248-.165.454-.372.537 2.85.083 5.7.165 8.51.289.37 0 .743.372.577.785-.702 1.983 0 4.42 1.818 5.576.909.578 2.024.785 3.098.661-.042-.702.867-.785 1.156-.289a4.662 4.662 0 001.487-.909 195.268 195.268 0 00-.165-4.956c0-.248.207-.537.454-.579 1.157-.206 2.313-.413 3.47-.537 0-1.321.33-2.685.744-3.924 1.197-3.841 3.221-7.393 5.824-10.491.495-.62 1.404.289.867.867-1.198 1.446-2.272 2.974-3.181 4.626-.784 1.446-1.486 2.933-2.023 4.461-.579 1.611-1.157 3.387-.95 5.122.165 1.322.991 2.768 2.354 3.098.95.248 2.148-.413 2.354-1.404-.041-.248-.041-.496-.041-.785.083-.661 1.074-.909 1.198-.165.041.289.082.537.041.826.165.867.826 1.693 1.776 1.817 1.157.165 2.231-.743 2.437-1.858.083-.414.744-.62 1.033-.29.826 1.033 1.983 2.066 3.387 2.148 1.157.083 2.396-.619 2.644-1.817.041-.289.33-.413.578-.455a.775.775 0 00.289-.082c.413-.826.867-1.735 1.446-2.52zm54.853-37.794c.454-3.676.041-7.56-1.776-10.864-1.611-2.932-4.254-5.08-7.311-6.278-6.692-2.643-13.92-.909-19.95 2.644-2.768 1.652-5.412 3.593-7.89 5.741 1.405 4.13 1.9 8.468 1.074 12.805-.537 2.767-1.652 5.369-2.974 7.848-1.322 2.519-2.85 4.956-4.42 7.352-2.23 3.47-4.915 6.857-8.426 9.005.165 1.115-.041 2.271-.537 3.345-.702 1.529-1.941 2.727-3.263 3.759.661.331 1.198.826 1.528 1.446a3.897 3.897 0 011.9-.785c1.24-.165 2.479.165 3.677.413a58.955 58.955 0 0114.787 5.452c.041 0 .041.042.083.042 3.097.372 6.195.248 9.211-.868 3.634-1.363 6.03-4.295 8.054-7.476 2.272-3.552 4.379-7.187 6.444-10.863 2.065-3.676 4.089-7.353 5.906-11.153 1.818-3.593 3.387-7.476 3.883-11.565zM79.399 68.319c-.29.165-.372.579-.207.868.166.289.537.371.868.206 1.239-.62 2.808-.62 4.048-.041.289.124.66.083.867-.207.165-.289.083-.702-.206-.867-1.735-.785-3.677-.785-5.37.041zm5.99-8.591a126.924 126.924 0 009.128-3.965c.702-.33 1.363.743.62 1.073-.414.207-.786.372-1.199.537.042.042.124.083.166.124.124.124.165.248.247.372.083.207.083.413.042.62a.918.918 0 01-.33.537 1.184 1.184 0 01-.579.33c-.206.041-.454.083-.66 0a1.194 1.194 0 01-.62-.496 1.03 1.03 0 01-.124-.702c-1.116.496-2.19.992-3.305 1.446.041.041.083.124.124.165.041.083.083.207.124.29.041.082.041.206.041.33 0 .206-.041.413-.165.62-.041.04-.041.082-.082.123-.042.041-.042.083-.083.124a.864.864 0 01-.248.165c-.083.042-.124.083-.207.083-.082 0-.165.041-.247.041h-.165c-.124 0-.207-.041-.331-.082-.083-.042-.207-.083-.29-.124-.04-.041-.123-.083-.164-.124-.042-.042-.083-.124-.124-.166-.083-.082-.083-.206-.124-.289v-.082c0-.083-.041-.165-.041-.248-.33.124-.703.29-1.033.413-.785.372-1.115-.826-.372-1.115zm2.601.702s0 .041.042.041l-.042-.041zm-3.221-2.313c.95-.372 1.9-.702 2.85-1.074.289-.124.537-.413.413-.744-.083-.289-.455-.536-.744-.413-.95.372-1.9.703-2.85 1.074-.289.124-.537.413-.413.744.041.289.413.537.744.413zm6.608-4.668c0-.04 0-.04 0 0zm1.818 21.52h-.496c-.041 0-.082 0-.124-.04a3.483 3.483 0 01-.702-.207c-.33-.124-.867-.413-1.115-.62a6.369 6.369 0 01-.537-.496 1.796 1.796 0 01-.248-.289c-.083-.082 0 0-.041-.082-.042-.042-.083-.124-.124-.166-.29-.454-.455-.784-.578-1.28-.083-.33-.455-.537-.744-.413-.33.082-.496.454-.413.743.578 2.314 2.809 4.048 5.163 4.048.744.042.744-1.198-.041-1.198z" fill="#3F4254"/><path d="M116.244 163.156c-.537-4.502 1.652-9.252 5.411-11.772 3.758-2.52 9.004-2.768 12.969-.578 3.966 2.189 6.568 6.732 6.444 11.276m-83.024 34.821c-1.404-3.924.455-8.716 3.552-10.946 3.057-2.231 6.981-2.396 10.533-1.57 2.685.578 5.37 1.776 7.187 4.131 1.818 2.395 2.437 6.196.868 8.798l-.207-.248a156.69 156.69 0 00-21.107-.826" fill="#9ED5F0"/></svg>