<svg width="140" height="133" fill="none" xmlns="http://www.w3.org/2000/svg"><path d="M33.603 102.605c-6.213-.645-12.13-3.577-16.406-8.122-4.062-4.357-6.59-10.65-4.868-16.352 1.21-3.927 4.222-7.02 7.288-9.736 2.663-2.34 5.54-4.573 8.902-5.73 5.944-2.043 12.534-.456 18.773-1.344 6.966-.995 13.421-5.244 17.052-11.269.968-1.614 1.775-3.496 1.264-5.325-.538-1.937-2.367-3.174-4.142-4.088-2.474-1.264-5.11-2.26-7.396-3.9-2.26-1.614-4.169-4.061-4.303-6.831-.162-3.739 3.066-6.993 6.67-8.015 3.604-1.022 7.477-.296 11.108.726 1.936.538 3.9 1.183 5.89 1.13 7.261-.108 11.941-8.419 19.041-9.925 5.218-1.103 10.49 1.722 15.842 1.722 5.298 0 10.166-2.744 15.249-4.304 5.084-1.56 11.458-1.533 14.685 2.69 2.69 3.523 2.017 8.714-.269 12.506s-5.89 6.563-9.225 9.494a97.025 97.025 0 00-8.795 8.795c-1.102 1.264-2.232 2.69-2.259 4.357-.027 2.662 2.582 4.438 4.492 6.293 5.567 5.406 6.105 14.524 3.146 21.678-2.985 7.154-8.821 12.721-14.873 17.59-6.051 4.867-12.506 9.332-17.482 15.303" fill="#F8F6F2"/><path d="M116.306 108.576c-1.426-3.846-2.878-7.746-3.04-11.834-.188-4.25.996-8.445 1.022-12.694 0-4.142-1.936-8.419-5.674-10.194l.511-.376c3.335-3.739 4.464-6.75 4.464-10.785 0-4.034-1.345-4.303-1.345-4.303s0-.27-.537-3.228c-.538-2.958-4.573-3.227-4.573-3.227s.269 1.344-1.613-.27c-1.883-1.613-2.421.27-2.959.808-.161.161-.054.699.188 1.425-.322-.645-.699-1.318-1.291-1.802-.591-.484-1.506-.753-2.259-.457a1.013 1.013 0 00-.403.242c.054-.888.134-1.775.161-2.663.135-2.904.108-5.836-.269-8.714-.188-1.425-.484-2.85-1.21-4.115-.726-1.264-1.963-2.286-3.443-2.528-.753-.107-1.64.027-2.151.565-.753.78-.565 2.017-.323 3.066a98.976 98.976 0 012.448 19.042l.268.027c-5.594 2.232-1.667 8.553-.322 10.543 1.183 1.802 1.317 2.824.403 5.675h-.108c-3.469.08-6.05 6.159-7.207 9.709-1.238 3.792-1.264 8.176.887 11.511 1.05 1.64 2.582 2.958 3.362 4.734 1.856 4.141-.78 8.794-3.335 12.533-.376.565-.753 1.129-1.13 1.721a78.587 78.587 0 00-3.873-5.191c-4.195-5.11-9.628-9.252-15.733-11.78-4.357-1.802-9.28-2.878-11.054-7.262l-.27-.538c-.43-4.437-1.801-19.203-1.801-19.203a1501.22 1501.22 0 009.198-4.222c-4.599-3.98-9.655-8.634-14.82-13.152-1.72-1.506-3.872-2.717-6.131-2.932-4.6-.887-7.289 3.766-8.419 12.91-1.64-.188-3.415.538-4.383 1.91-1.265 1.802-.969 4.545.645 6.024.834.78 1.99 1.157 3.12 1.157v.35c-1.318 5.862-2.528 10.139-4.008 15.276l-.242-.08c-6.965 1.936-13.259 6.131-17.75 11.806-6.133 7.8-7.558 13.313-9.844 22.969 24.367-12.076 47.067 19.633 122.373 7.261-2.877-7.665-4.679-12.049-7.53-19.714z" fill="#fff"/><path d="M93.956 30.66c8.466 0 15.33-6.863 15.33-15.33 0-8.466-6.864-15.33-15.33-15.33-8.467 0-15.33 6.864-15.33 15.33 0 8.467 6.863 15.33 15.33 15.33z" fill="#4FC9DA" fill-opacity=".7"/><path d="M108.425 14.685h-8.956a25.276 25.276 0 00-1.856-7.961 22.882 22.882 0 001.856-.404 19.863 19.863 0 004.034-1.56c.458-.242.054-.94-.403-.699a19.351 19.351 0 01-5.81 1.883A24.874 24.874 0 0094.01.592c-.323-.404-.888.161-.565.565a23.491 23.491 0 013.012 4.894 20.239 20.239 0 01-6.105-.215A26.341 26.341 0 0192.342.78c.242-.457-.457-.86-.7-.403-.887 1.694-1.56 3.469-2.07 5.298-.216-.054-.458-.108-.673-.161-1.344-.35-2.609-.861-3.846-1.48-.457-.242-.86.458-.403.7a19.974 19.974 0 004.733 1.72 29.547 29.547 0 00-.78 4.573 33.15 33.15 0 00-.107 3.658h-9.682c-.511 0-.511.807 0 .807h9.709c.134 2.205.51 4.41 1.13 6.508.16.538.349 1.103.537 1.64-.726.108-1.425.243-2.124.431-1.56.404-3.067.968-4.519 1.722-.457.242-.054.94.404.699a20.68 20.68 0 016.508-2.071 26.062 26.062 0 001.614 3.389c.242.457.941.053.7-.404a25.12 25.12 0 01-1.48-3.093 21.795 21.795 0 015.917.189 24.674 24.674 0 01-2.206 4.572c-.269.43.43.86.7.403a25.538 25.538 0 002.313-4.814c.645.134 1.29.296 1.91.484a20.279 20.279 0 014.276 1.883c.457.269.86-.43.403-.7a20.78 20.78 0 00-6.32-2.42 25.75 25.75 0 001.156-5.863c.054-.834.08-1.695.054-2.528h8.902c.538-.027.538-.834.027-.834zM90.163 6.643a21.17 21.17 0 006.644.188 25.162 25.162 0 011.425 4.653 25.42 25.42 0 01.43 3.2h-9.36c-.08-2.716.189-5.432.861-8.04zm7.585 16.352c-.08.242-.135.485-.215.727a21.817 21.817 0 00-6.482-.189 29.38 29.38 0 01-1.695-8.041h9.36a25.227 25.227 0 01-.968 7.503z" fill="#fff"/><path d="M115.741 17.052c-.215-.108-.431 0-.538.188-.108.188 0 .43.188.538 3.631 1.721 4.787 2.958 4.653 3.496-.161.646-2.259 1.264-7.692.86-3.55-.268-7.88-.914-12.533-1.882 4.303-.887 8.23-1.91 11.403-2.985 5.057-1.721 7.504-3.281 7.289-4.68-.188-1.21-2.286-1.91-6.401-2.07a.434.434 0 00-.43.376c0 .215.161.403.376.43 4.034.161 5.567.86 5.648 1.399.242 1.425-7.127 4.625-19.875 7.1-1.157-.27-2.34-.538-3.524-.807-15.384-3.739-24.286-8.257-23.91-9.844.054-.161.484-1.022 4.815-.968a.414.414 0 00.403-.403.414.414 0 00-.403-.404c-3.524-.027-5.353.484-5.621 1.587-.323 1.372 1.99 3.12 6.885 5.218 4.599 1.963 10.838 3.953 17.59 5.594.564.134 1.156.269 1.72.403a81.28 81.28 0 01-2.716.458c-6.831 1.102-13.313 1.72-18.262 1.694-5.433-.027-7.477-.78-7.584-1.452-.027-.162.027-1.13 4.06-2.77.216-.081.297-.323.216-.538-.08-.216-.323-.296-.538-.216-3.254 1.345-4.733 2.529-4.545 3.658.215 1.399 3.039 2.098 8.391 2.125h.188c4.976 0 11.43-.619 18.209-1.721 1.56-.242 3.093-.538 4.572-.807 5.379 1.183 10.435 1.963 14.469 2.286 1.184.08 2.26.134 3.228.134 3.281 0 5.056-.538 5.325-1.587.323-1.21-1.345-2.635-5.056-4.41zm-12.533 17.132c-.458.242-.861-.457-.404-.7 1.721-.914 3.443-1.828 5.164-2.77.457-.242.861.458.404.7-1.749.94-3.47 1.855-5.164 2.77zm1.613 3.012c1.722-.403 3.443-.834 5.191-1.237.511-.108.296-.888-.215-.78-1.721.403-3.443.834-5.191 1.237-.484.135-.269.915.215.78zm-18.208 1.291c-2.555-.457-5.11-.914-7.665-1.399-.51-.08-.726.673-.215.78 2.555.458 5.11.915 7.665 1.399.511.08.726-.7.215-.78zm.215 2.985l-8.633 1.776c-.511.107-.296.887.215.78l8.634-1.776c.51-.107.295-.887-.216-.78z" fill="#211F1C"/><path d="M125.235 131.303c-1.748-4.68-3.47-9.36-5.218-14.04-1.694-4.572-3.577-9.117-5.002-13.743-.7-2.232-1.238-4.545-1.345-6.912-.108-2.394.242-4.788.538-7.181.511-4.008.941-8.069-1.049-11.78-.807-1.507-1.937-2.824-3.362-3.766-.161-.107-.35-.242-.538-.35 2.878-3.576 5.809-7.772 4.814-12.586a7.384 7.384 0 00-1.587-3.335c-.134-.162-.295-.162-.43-.081 0-.43-.027-.888-.081-1.318-.161-1.372-.699-2.663-1.802-3.55-1.075-.86-2.581-1.318-3.899-.78a.276.276 0 00-.162.134c-.565-.806-1.371-1.479-2.367-1.479-.806.027-1.64.619-1.909 1.372-.135-.108-.269-.242-.43-.323-.619-.376-1.453-.565-2.152-.376.108-1.426.161-2.878.188-4.304.027-1.828-.027-3.657-.242-5.486-.188-1.668-.43-3.39-1.21-4.922-.646-1.264-1.694-2.313-3.04-2.797-1.263-.484-3.011-.377-3.71.914-.727 1.318-.055 3.04.241 4.411.377 1.748.7 3.496.969 5.272a92.442 92.442 0 011.13 12.156c-.673.242-1.292.592-1.776 1.157-.941 1.049-1.157 2.5-.968 3.846.242 1.721 1.21 3.227 2.07 4.706.915 1.56 1.83 3.335 1.48 5.191-.108.511.672.726.78.215.592-3.093-1.614-5.54-2.851-8.122-.565-1.183-.941-2.555-.645-3.873a3.319 3.319 0 012.178-2.394c1.103-.376 2.286-.376 3.416-.242 1.398.162 2.824.538 4.169.969 1.29.403 2.689.806 3.846 1.56.833.564 1.64 1.56 1.102 2.608-.511 1.022-1.882 1.426-2.958 1.372-1.641-.108-3.147-.968-4.76-1.237-.512-.08-.727.699-.216.78 1.587.269 3.039 1.049 4.653 1.237 1.183.134 2.447-.162 3.362-.968.834-.727 1.103-1.856.699-2.851.135-.323.215-.7.269-1.05.135-.725.188-1.478.162-2.231a10.785 10.785 0 00-1.103-4.384c-.027-.027-.027-.054-.054-.108.941-.377 1.936-.188 2.77.35.915.564 1.506 1.479 1.775 2.528.323 1.237.189 2.528.054 3.765-.107.968-.161 2.233-.995 2.905-.457.376-1.856.43-1.856-.404 0-.51-.807-.51-.807 0-.027 1.103 1.238 1.587 2.179 1.453 1.291-.189 1.909-1.453 2.125-2.61a21.6 21.6 0 00.295-2.312c1.238 1.587 1.587 3.685 1.372 5.648-.242 2.26-1.318 4.357-2.582 6.213-.726 1.049-1.506 2.044-2.313 3.039a1.203 1.203 0 00-.618 0c-1.103.269-2.179.592-3.309.726a19.034 19.034 0 01-3.281.135c-.968-.054-1.91-.323-2.824-.673-1.533-.538-3.254-1.425-4.922-1.049-1.318.296-2.366 1.318-3.173 2.34-1.022 1.291-1.802 2.77-2.448 4.276-1.452 3.309-2.474 6.859-1.963 10.517a11.328 11.328 0 002.232 5.406c1.264 1.667 2.77 3.146 3.228 5.271.914 4.357-2.26 8.418-4.465 11.834-.027.054-.054.081-.08.134-.458-.672-.942-1.318-1.426-1.99-1.91-2.582-3.98-5.056-6.374-7.208-3.04-2.743-6.482-5.056-10.194-6.777-3.2-1.48-6.885-2.26-9.736-4.411a8.184 8.184 0 01-1.775-1.83c-.43-.59-.699-1.263-1.022-1.909 0-.027-.027-.027-.027-.053v-.027c0-.108-.026-.189-.026-.296l-.081-.726-.162-1.641c-.484-5.11-.968-10.22-1.452-15.303-.027-.27-.054-.565-.08-.834l8.956-4.115c.215-.108.269-.484.08-.646-4.599-3.98-9.063-8.068-13.636-12.102-1.748-1.534-3.55-3.04-5.755-3.739a7.301 7.301 0 002.017-1.21c1.694-1.48 2.85-6.536-.188-9.36-3.174 6.778-7.8 3.066-13.448 7.1-4.357 3.12-2.555 11.942.296 15.896-1.426.161-2.797.887-3.658 2.07-1.372 1.99-1.076 4.922.726 6.563.807.753 1.856 1.156 2.932 1.264-.08.619-.215 1.237-.377 1.856-.35 1.506-.726 3.012-1.102 4.518-.753 2.851-1.56 5.702-2.367 8.553-.43 0-.888.215-1.291.35a31.97 31.97 0 00-2.42.887 34.243 34.243 0 00-4.465 2.179 36.506 36.506 0 00-7.854 6.212c-4.787 5.084-7.746 11.539-9.817 18.128-1.21 3.846-2.151 7.773-3.093 11.726-.107.511.646.726.78.215 1.587-6.697 3.201-13.474 6.16-19.714 2.877-6.024 7.073-11.269 12.694-14.927 1.506-.968 3.066-1.856 4.707-2.582a36.796 36.796 0 012.662-1.075c.43-.162.888-.296 1.318-.43.296-.082.511-.243.78-.135.08.027.135.027.215 0-.053.107-.053.215.054.35 2.286 3.039 5.621 5.217 9.306 6.158 1.856.484 3.765.646 5.675.458 2.286-.216 4.438-.996 6.535-1.856 1.668-.7 3.766-1.399 4.841-2.959l.081.162a8.655 8.655 0 001.237 2.017c.995 1.21 2.34 2.098 3.739 2.797 1.506.753 3.066 1.318 4.626 1.91a41.725 41.725 0 015.244 2.366 39.574 39.574 0 019.575 7.289c2.017 2.071 3.765 4.33 5.433 6.697.215.296.43.592.618.887-1.936 3.093-3.711 6.912-2.393 10.516.591 1.641 1.829 3.174 3.577 3.631 1.506.404 3.308-.215 4.115-1.587.618-1.022.484-2.313.242-3.415-.296-1.345-.834-2.663-1.452-3.9-.888-1.829-1.964-3.577-3.12-5.271 1.425-2.26 3.039-4.438 4.06-6.939.727-1.749 1.13-3.685.861-5.568-.295-1.963-1.452-3.496-2.689-4.975-1.291-1.587-2.286-3.255-2.716-5.299-.404-1.99-.296-4.061.161-6.024.35-1.56.941-3.093 1.56-4.573.619-1.452 1.372-2.904 2.34-4.168.807-1.022 1.91-2.152 3.281-2.233 1.748-.08 3.523.996 5.164 1.48 1.856.538 3.873.403 5.755.134.511-.08 1.022-.161 1.533-.296.485-.107 1.023-.376 1.48-.403.269-.027.565.215.807.35.403.215.78.484 1.129.78 2.878 2.366 3.927 6.159 3.766 9.736-.189 4.545-1.426 9.036-.834 13.608.591 4.519 2.393 8.768 3.98 13.018 1.668 4.491 3.335 8.956 5.003 13.447.807 2.206 1.64 4.411 2.447 6.617.296.457 1.076.242.888-.242zm-30.096-75.2c-.242.027-.484.054-.7.108a101.586 101.586 0 00-.833-9.897 78.287 78.287 0 00-.807-5.03 82.125 82.125 0 00-.51-2.501c-.162-.753-.377-1.506-.485-2.286-.08-.592-.08-1.264.323-1.721.43-.511 1.21-.619 1.829-.538 1.29.161 2.42 1.075 3.093 2.178.833 1.345 1.13 2.932 1.317 4.465.216 1.694.296 3.416.296 5.137 0 1.936-.107 3.9-.242 5.836-.054.888-.161 1.748-.161 2.636 0 .672.027 1.156-.162 1.775-.995-.162-1.99-.27-2.958-.162zm3.98.35c-.08-.027-.16-.027-.242-.054.162-.538.162-.995.162-1.586 0-.807.054-1.614.107-2.421 0-.108.027-.215.027-.296a.805.805 0 01.215-.107c.7-.242 1.507.107 2.018.618.564.565.914 1.345 1.264 2.044.403.78.78 1.587 1.102 2.394.135.296.242.618.35.941-.054-.027-.081-.027-.134-.054a33.885 33.885 0 00-4.868-1.479zm7.504 3.066c-.43-.457-.968-.807-1.533-1.102a17.947 17.947 0 00-.591-1.695 32.274 32.274 0 00-1.372-2.931 8.439 8.439 0 00-.457-.834c0-.08 0-.135-.054-.215-.377-.673.511-1.399 1.156-1.399.942 0 1.641.968 2.018 1.721 1.022 1.937 1.317 4.33.833 6.455zM51.246 90.718c-2.044.86-4.115 1.667-6.32 1.99-3.55.484-7.262-.35-10.328-2.152-1.721-1.022-3.281-2.366-4.492-3.98a.432.432 0 00-.484-.135c.027-.026.027-.053.027-.08a340.888 340.888 0 002.098-7.477c.35-1.318.7-2.636 1.022-3.954.323-1.29.753-2.636.914-3.98v-.081c1.022-.08 2.017-.43 2.797-1.103a.417.417 0 00.054-.565.417.417 0 00-.565-.053c-1.533 1.264-4.06 1.21-5.54-.135-1.48-1.345-1.748-3.873-.592-5.513 1.13-1.64 3.604-2.233 5.38-1.318.188.107.43.027.537-.162.108-.188.027-.43-.161-.537-.162-.081-.296-.135-.457-.216l.86-.134c2.744-2.448 1.722-5.406 2.098-7.827.592-3.523 2.394-3.711 4.545-4.249 2.125.377 3.981 1.398 5.622 2.85 4.814 4.17 9.494 8.5 14.281 12.669a846.648 846.648 0 01-8.66 3.98c-.108.054-.215.215-.189.35.377 3.953.754 7.907 1.103 11.86.215 2.313.43 4.653.646 6.966-.727 1.64-2.61 2.313-4.196 2.986zm39.16 29.208c.457 1.13.86 2.34.887 3.55.027 1.587-1.103 2.797-2.716 2.851-1.99.054-3.443-1.829-3.954-3.55-.592-2.017-.161-4.142.619-6.025a21.825 21.825 0 011.64-3.146c1.345 1.99 2.609 4.088 3.523 6.32zM36.56 65.409c.404.35-.188.915-.565.565-1.102-.968-2.662-1.372-4.115-1.103-.215.054-.43-.053-.484-.269-.053-.188.08-.457.27-.484a5.77 5.77 0 014.894 1.291zm8.203 13.555c-2.905-.672-5.352-2.823-6.455-5.567-.08-.215.081-.457.27-.484.214-.054.403.08.483.269.995 2.501 3.282 4.41 5.89 5.002.538.108.323.888-.188.78zm-2.259-22.726c.188-.135.43-.027.565.135.43.645.86 1.264 1.29 1.909.135.188.028.43-.134.565-.188.134-.43.027-.565-.135-.43-.645-.86-1.264-1.29-1.91-.135-.188-.027-.456.134-.564zm5.271-.188c.162.161.135.403 0 .565-.16.16-.403.134-.564 0a10.21 10.21 0 01-1.13-1.265c-.054-.08-.054-.215-.054-.322a.43.43 0 01.189-.242.44.44 0 01.322-.054.429.429 0 01.242.188c.027.027.027.054.054.08.296.404.592.727.941 1.05zm-7.53-.888a4.346 4.346 0 011.748-2.447c.188-.135.43-.027.565.134.134.189.027.43-.135.565-.053.027-.107.08-.161.108-.027 0-.08.053 0 0l-.054.053c-.08.081-.161.162-.242.215a1.74 1.74 0 00-.215.243c-.027.026-.027.053-.054.053 0 0-.027.027-.027.054s-.027.027-.027.027c0 .027-.027.027-.027.054a3.034 3.034 0 00-.322.565c0 .026-.027.053-.027.08-.027.054-.027.108-.054.135-.027.107-.08.215-.108.323-.053.215-.295.322-.484.269-.295 0-.43-.243-.376-.43zm5.702-3.362c-.027 0-.054.027-.054.027-.027.027-.08.027-.108.054-.161.08-.296.161-.457.242-.161.08-.296.188-.43.296-.027 0-.027.027-.054.027h-.027l-.054.027c-.027 0-.027.026-.054.026-.053.054-.134.108-.188.162a.39.39 0 01-.565 0c-.161-.135-.161-.43 0-.565A6.057 6.057 0 0146 50.886c.216-.08.43.08.485.269.08.215-.081.43-.27.484a.589.589 0 01-.268.161zm.699 80.498c.161.511-.619.699-.78.215-.968-3.147-1.91-6.32-2.286-9.602-.323-2.824-.135-5.675.834-8.364.457-1.291 1.049-2.528 1.506-3.819.43-1.237.726-2.582.403-3.9-.618-2.636-3.254-4.115-4.33-6.509-.484-1.049-.645-2.232-.215-3.335.376-.968 1.13-1.775 2.205-1.963.511-.08.726.7.215.78-1.102.188-1.775 1.264-1.855 2.34-.108 1.371.726 2.636 1.56 3.658.806.995 1.72 1.882 2.393 2.958a6.135 6.135 0 01.942 3.55c-.162 2.663-1.695 5.003-2.421 7.504-1.533 5.487.215 11.242 1.829 16.487zm-1.183-32.032c0-.027 0-.027 0 0zm-.108.86c.296.135.645.162.968.081.323-.081.592-.269.78-.538.323-.43.404-1.076.215-1.587-.134-.296-.323-.565-.618-.726a1.522 1.522 0 00-.834-.188c-.672.053-1.345.51-1.48 1.21v.108c0 .026-.026.053-.026.08-.054.7.403 1.291.995 1.56zm.323-.726c0-.027 0-.027 0 0-.054-.027 0-.027 0 0zm-.404-1.076c.027-.027.054-.08.108-.107 0 0 .027-.027.054-.027 0 0 .027 0 .027-.027.053-.027.08-.054.134-.08.027 0 .027-.028.054-.028.053-.027.107-.027.161-.054.027 0 .054 0 .08-.026h.242c.055 0 .108.026.135.026h.027s.027 0 .027.027c.027 0 .054.027.08.027h.028c.027.027.08.054.107.108 0 .027.027.027.027.054 0 .026.027.026.027.053 0 0 0 .027.027.054 0 .027.027.054.027.08 0 .028 0 .055.027.055v.295c0 .027 0 .054-.027.081 0 .054-.027.08-.054.135 0 .027-.027.027-.027.053-.027.054-.054.081-.08.135-.027.027-.027.054-.054.054l-.054.054c-.054.026-.08.053-.135.08-.026 0-.053.027-.08.027-.027 0-.054 0-.08.027h-.189c-.027 0-.054 0-.08-.027-.028 0-.055-.027-.108-.027 0 0-.081-.027-.081-.054-.027-.026-.054-.026-.08-.053l-.028-.027-.027-.027c-.026 0-.026-.027-.053-.027-.054-.027-.081-.081-.108-.135l-.027-.026c-.027-.027-.027-.054-.054-.081 0-.027-.027-.054-.027-.08 0-.028 0-.028-.026-.028 0-.027-.027-.054-.027-.08V99.7v.027-.027c0-.054 0-.027 0 0v-.162c0-.053.026-.107.026-.134 0-.027.027-.054.027-.054.027.027.027 0 .054-.027zm2.206 20.064c0 .027 0 .027 0 0 0 .027 0 0 0 0zm.026-2.125c-.591-.161-1.317 0-1.694.484-.134.162-.161.404 0 .565.135.135.43.189.565 0 .027-.054.08-.08.108-.107l.026-.027c.027-.027.081-.054.108-.081 0 0 .027-.027.054-.027-.027 0-.027 0 0 0h.027c.053-.027.08-.027.134-.027h.188c.027 0 .108.027.162 0h.054c.053 0 .08.027.134.054h.027c.027 0 .027 0 0 0 .027 0 .054.027.054.027s.08.027.107.054l.027.027.027.027.054.053c.027.027.054.081.08.108v.027c0 .027 0 .027.027.054 0 .053.027.08.027.134v.269c0 .054-.026.081-.026.135 0 .026-.027.053-.027.08a.385.385 0 00-.054.108c0 .027-.027.027-.027.054 0 .026-.027.026-.027.053-.027.027-.054.081-.08.081l-.054.054h-.027c-.027.027-.027.027 0 0-.027.027-.081.054-.081.054-.027 0-.027.027-.054.027h-.027s-.08.026-.107.026h-.242c-.027 0-.054-.026-.081-.026-.027 0-.054 0-.054-.027h-.027a.587.587 0 01-.134-.081c-.027 0-.027-.027-.054-.027 0 0-.027 0-.027-.027-.054-.027-.08-.081-.108-.107l-.053-.054.027.027c0-.027-.027-.027-.027-.054a.59.59 0 00-.081-.135c0-.026-.027-.053-.027-.08 0-.027 0-.054-.027-.081v-.027a.413.413 0 00-.403-.403c-.215 0-.43.188-.404.403.027.592.404 1.13.942 1.372.564.242 1.21.188 1.667-.215.43-.377.592-.969.511-1.533a1.63 1.63 0 00-1.102-1.211zm-.322 2.26c-.027.026-.027.026 0 0-.027 0 0 0 0 0zm.538-.431c-.027.027 0 0 0 0zm0-.027s0-.027 0 0c0-.027 0 0 0 0zm-1.05-.995c.028 0 .028 0 0 0 .028 0 0 0 0 0zm.727 0s0 .027 0 0c0 .027-.027 0 0 0-.027 0-.027 0 0 0zM36.722 97.226a13.275 13.275 0 01-3.039-.941c-3.442-1.48-6.32-4.276-7.826-7.719-.215-.484.484-.887.7-.403.402.941.914 1.829 1.532 2.662 2.125 2.905 5.352 4.949 8.849 5.594.484.135.269.915-.216.807z" fill="#211F1C"/></svg>