<svg width="140" height="132" fill="none" xmlns="http://www.w3.org/2000/svg"><path d="M31.782 102.72C41.82 75.038-1.244 72.776 24.996 52.898c4.326-3.054 9.274-6.221 10.66-11.31 1.3-4.808-.961-9.813-.99-14.818C38.427-.346 70.86 5.705 88.391 16.534c7.097 3.563 15.099 8.37 15.919 16.26.311 3.081-.565 6.277.453 9.217 5.485 10.858 22.168 5.825 24.939 25.873 1.556 22.31-20.556 19.623-26.014 33.592" fill="#F8F6F2"/><path d="M109.994 97.715c-6.193-8.313-14.534-16.089-20.048-19.935a38.734 38.734 0 00-8.341-4.467c-1.358-3.902-2.63-7.72-3.903-11.933 1.273-.085 2.517-.594 3.394-1.498 3.393-3.62.113-8.964-4.072-8.653.622-4.835 1.64-9.698-1.16-13.968-11.48-12.668-24.09 9.783-32.121 15.834 0 0 7.012 2.743 10.462 4.072 0 0-.622 12.781-.82 18.436-7.097 3.902-12.979 9.897-16.768 16.287H3.477c-2.092 0-3.562 2.404-2.912 4.75l7.692 27.824c.424 1.499 1.583 2.517 2.912 2.517h1.244c.764 2.375 2.997 4.128 5.627 4.128h47.023c3.365.028 5.938-2.771 5.938-6.051 2.12 2.177 14.28 6.051 22.847 6.051 5.655 0 19.228-1.187 21.207-2.262 6.589-3.563 5.514-19.001-5.061-31.132zM53.017 123.22c0-.339-.056-.65-.14-.99l-1.924-6.927c.65-.198 1.273-.368 1.895-.509.31.254.763.481 1.414.565 2.516.255 5.287-.763 7.55.877 1.328.961 1.922 2.601 2.827 3.959a8.968 8.968 0 003.704 3.025H53.017zm17.984.82l-.056.057c-.029-.057-.029-.085-.057-.142.057 0 .113.029.198.029-.057.028-.057.028-.085.056z" fill="#fff"/><path d="M26.07 49.844l-12.978 3.902c-2.15.65-4.383-.566-5.034-2.715-.763-3.393-4.552-9.981.736-11.621l12.978-3.902a4.029 4.029 0 015.034 2.714c.763 3.393 4.552 9.982-.736 11.622z" fill="#E8C444" fill-opacity=".7"/><path d="M7.097 42.86a178.711 178.711 0 008.879 4.778c.367.198.735.368 1.103.538.31.17.65.367.99.452.537.113 1.102 0 1.498-.368.226-.226.34-.48.452-.763.17-.396.368-.792.566-1.188.367-.791.735-1.555 1.103-2.347.82-1.781 1.668-3.534 2.488-5.316.226-.48-.509-.933-.735-.424-1.386 2.941-2.743 5.853-4.129 8.794-.226.453-.395.962-1.017.82-.283-.056-.538-.254-.792-.367-.368-.17-.735-.368-1.103-.538a151.976 151.976 0 01-4.241-2.205c-1.556-.849-3.11-1.697-4.638-2.602-.48-.254-.904.481-.424.735z" fill="#211F1C"/><path d="M64.498 9.183c-.198 12.243-18.408 12.243-18.634 0 .198-12.244 18.408-12.244 18.634 0z" fill="#F06445" fill-opacity=".7"/><path d="M58.418 6.807c-.763-1.385-2.714-1.526-3.817-.452-.537.537-.735 1.272-.65 1.98a1.868 1.868 0 00-.905-.623 2.07 2.07 0 00-1.725.283c-.509.368-.877.933-.848 1.584.028.848.65 1.47 1.329 1.922.509.34 1.102.566 1.696.764.82.282 1.64.452 2.489.594a8.5 8.5 0 00.82.113c.226.028.424-.226.424-.425a.408.408 0 00-.057-.197c.085-.962.679-1.782 1.075-2.63.48-.905.707-1.951.17-2.913zm-1.018 2.8c-.395.792-.876 1.583-1.046 2.488a26.747 26.747 0 01-2.064-.424 12.77 12.77 0 01-.961-.311c-.057-.028-.142-.057-.198-.085h-.029c-.028-.028-.084-.028-.113-.056l-.339-.17c-.198-.113-.396-.226-.594-.368 0 0-.085-.056-.028-.028L52 10.625c-.029-.028-.085-.057-.114-.085-.056-.057-.14-.113-.197-.198l-.085-.085-.029-.028c-.028-.057-.084-.113-.113-.198-.028-.028-.028-.057-.056-.085-.028-.056-.057-.113-.057-.198v-.255.029-.028c0-.057 0-.029 0 0v-.057c0-.056.029-.113.057-.17 0-.028.028-.056.028-.056a.599.599 0 01.085-.141l.056-.057c.029-.057.085-.085.114-.113l.056-.057c.057-.028.085-.056.142-.084.056-.029.084-.057.14-.085.03 0 .057-.029.086-.029.056-.028.113-.028.17-.056h.339c.056 0 .113.028.17.028.028 0 .056.028.084.028l.17.085c.028 0 .028.029.056.029 0 0 .029 0 .029.028.056.056.113.085.141.141l.028.028c0 .029.029.057.057.057.056.057.085.141.113.198.028.028.028.056.056.085 0 .028 0 .028.029.056.028.085.056.17.085.283.056.226.31.368.509.283.226-.057.367-.311.282-.51l-.084-.254c.282.057.622-.17.508-.509a2.966 2.966 0 01-.113-.48c0-.17 0-.311.029-.424.056-.255.17-.51.339-.65a1.72 1.72 0 011.386-.566c.226 0 .452.085.678.226.226.141.396.34.537.594.396.735.057 1.555-.31 2.262z" fill="#211F1C"/><path d="M51.576 10.2c.028 0 .028 0 0 0l.028.029c.028 0 0-.028-.028-.028zm48.238 19.483c.538-.085.764.735.227.82-1.131.198-2.29.17-3.422.056-1.16-.113-2.347-.31-3.478-.65-.99-.311-1.979-.707-2.77-1.386-.651-.565-1.075-1.328-.962-2.205.17-1.16 1.074-2.093 1.95-2.8-.027.114-.084.199-.112.312-.028-.622-.226-1.131-.566-1.64-.254-.368-.537-.736-.622-1.188-.085-.537.142-1.018.48-1.442a8.24 8.24 0 01.85-.877c.056-.056.169-.113.225-.198.057-.056.057-.254.057-.339l.17-.594c.367-1.215 1.046-2.403 2.177-3.025 2.347-1.273 5.174.254 7.069 1.668-.198.17-.424.311-.622.48-.226-1.385.056-2.883.622-4.184.452-1.075 1.272-2.234 2.516-2.432.311-.056.623-.028.934.029.367.084.565.226.791.537.283.424.396.99.396 1.498 0 1.245-.452 2.432-.452 3.676-.029 1.81.905 3.252 2.234 4.44.424.367-.198.961-.594.593-1.414-1.244-2.404-2.799-2.489-4.693-.056-1.216.311-2.376.425-3.563.028-.396.056-.849-.085-1.244-.057-.114-.142-.227-.198-.34-.028-.056-.113-.085.028 0-.056-.028-.141-.028-.226-.056a1.16 1.16 0 00-.622 0c-1.018.198-1.64 1.329-1.951 2.234-.368 1.018-.622 2.233-.453 3.308.057.31-.282.735-.622.48-1.838-1.385-5.09-3.195-7.04-.99-.396.453-.68 1.047-.877 1.613a8.812 8.812 0 00-.311 1.159c-.085.396-.566.65-.848.961-.311.311-.707.735-.679 1.16 0 .084.085.254.17.367.085.17.198.311.31.481.284.424.51.877.623 1.357.056.311.198.792-.028 1.046-.198.227-.481.396-.68.623-.338.339-.678.735-.876 1.187-.141.283-.198.65-.17.877.114.65.651 1.13 1.245 1.498.791.481 1.725.764 2.63.99 1.724.452 3.817.707 5.626.396zm5.034 2.46c.367-2.008.791-4.015 1.527-5.938.367-.961.848-1.923 1.526-2.686.283-.311.594-.622.99-.82.17-.085.339-.17.509-.227.226-.056.452.029.65.142.905.509 1.018 1.781.962 2.686a20.374 20.374 0 01-.255 1.753c-.339 1.725-.82 3.478-1.611 5.033-.34.679-.792 1.442-1.414 1.838-.283.17-.481.255-.792.226-.254-.028-.594-.17-.877-.395-.424-.34-1.018.254-.593.593 3.534 2.8 5.429-4.213 5.938-6.475.367-1.696.904-3.845-.227-5.372-.367-.481-.848-.82-1.442-.933-.509-.085-1.046.17-1.47.452-.905.594-1.555 1.499-2.064 2.46-1.188 2.29-1.725 4.863-2.206 7.38-.056.594.764.82.849.283z" fill="#211F1C"/><path d="M135.414 80.043l-16.457 2.714c-3.054.509-5.966-1.584-6.475-4.637-.707-4.666-3.167-11.678 3.563-13.036l16.456-2.714c3.054-.509 5.967 1.583 6.476 4.637.707 4.666 3.167 11.678-3.563 13.035z" fill="#4FC9DA" fill-opacity=".7"/><path d="M121.559 69.1c.48 1.498.82 3.025 1.131 4.552.169.962.311 1.923.593 2.856.17.566.481 1.188 1.131 1.3.736.114 1.471-.423 2.036-.791 1.556-1.046 2.969-2.262 4.411-3.45.17-.141.142-.452 0-.593a14.78 14.78 0 00-7.295-4.214c-.537-.113-.763.707-.226.82a13.852 13.852 0 016.928 3.987v-.593c-1.245 1.017-2.517 2.064-3.818 3.025-.367.283-.763.537-1.159.764-.085.028-.141.084-.226.113-.057.028-.028.028-.142.056-.056.028-.113.028-.169.057-.028 0-.057 0-.085.028.085 0 .057 0 0 0h-.113c.056 0-.057-.028-.085-.028.113.056 0 0-.028-.029.113.085 0-.028-.057-.056-.056-.057.028.056 0 0-.028-.028-.028-.057-.056-.057a12.79 12.79 0 01-.085-.17l-.057-.113c-.028-.084-.056-.14-.085-.226-.254-.848-.367-1.753-.537-2.63-.311-1.611-.678-3.223-1.159-4.806-.198-.537-1.018-.311-.848.198zM41.905 32.991c-.141-.198-.028-.452.141-.594.198-.141.453-.028.594.142.028.056.057.113.113.141l.057.057a.661.661 0 00.198.198c.028.028.084.056.113.084-.029-.028-.057-.056 0 0l.028.029a.57.57 0 00.226.113c.029 0 .029.028.057.028.085.028-.113-.028-.028 0 .028 0 .056.028.084.028.057.029.142.029.227.057-.085-.028-.085 0-.029 0h.284c-.085 0-.028 0 0 0a.394.394 0 00.17-.057c.028 0 .056-.028.085-.028h.028l-.057.028.17-.084c.057-.029.113-.057.141-.085.057-.029-.084.056-.028.028l.028-.028c.029-.029.057-.029.085-.057l.113-.113.085-.085c.028-.056-.056.085 0 0a.614.614 0 01.085-.141l.085-.17-.029.057c0-.029.029-.029.029-.057s.028-.056.028-.085c.028-.056.028-.113.057-.198 0-.056 0-.141 0 0v-.367c0-.057.028.113 0 .056v-.028a.525.525 0 00-.057-.198c0-.028-.056-.113 0 0-.028-.028-.028-.056-.056-.085a.59.59 0 00-.114-.17l-.028-.028c-.056-.056.057.057.028.029-.028-.029-.056-.057-.056-.085l-.17-.17c-.028 0-.028-.028-.056-.028 0 0 .085.056.028.028-.028-.028-.085-.056-.113-.085-.085-.056-.17-.085-.255-.141-.028-.028-.084-.028-.113-.057-.028 0-.056-.028-.056-.028.084.028.028 0 0 0h-.057.057-.311s.113-.028.028 0c-.057 0-.113.028-.141.028a.216.216 0 00-.142.057c-.085.028.057-.028 0 0-.028 0-.056.028-.085.028-.084.057-.17.085-.254.142-.085.056.056-.057-.028 0-.029.028-.057.028-.085.056l-.085.085-.113.113c-.057.085.028-.056 0 0-.029.028-.028.057-.057.057-.056.084-.141.198-.141.282.028-.084.028-.028 0-.028 0 .028-.028.057-.028.085-.029.056-.029.085-.029.141 0 .029 0 .057-.028.085-.028.113 0-.085 0 0v.113c0 .029.028.142 0 .17 0-.028-.028-.085 0-.028 0 .028 0 .056.028.084.057.227-.056.453-.282.51-.198.056-.481-.085-.51-.283-.282-1.244.708-2.46 1.923-2.602.113 0 .227-.028.34 0 .17.029.31.057.48.142.17.084.34.17.51.282.339.255.593.566.763.962.254.594.113 1.329-.255 1.838-.396.565-.99.933-1.668.961-.82.085-1.499-.48-1.951-1.13zm89.946 74.112c.453.622 1.103 1.102 1.895 1.046.678-.057 1.272-.424 1.668-.961.368-.509.509-1.216.311-1.81a2.008 2.008 0 00-.622-.905 2.105 2.105 0 00-.622-.396 1.655 1.655 0 00-.65-.113c-1.018 0-2.065.735-2.206 1.781-.028.227.057.453.283.509.198.057.48-.056.509-.282 0-.085.028-.17.056-.255 0-.028 0-.028.029-.056v.028c0-.028.056-.085.056-.141.028-.029.028-.057.057-.114 0-.028.028-.028.028-.056.056-.057 0 0 0 .028.028-.085.141-.169.198-.198 0 0 .113-.085.056-.056l.029-.029c.028 0 .028-.028.056-.028.085-.056.17-.085.226-.141.029 0 .029-.029.057-.029-.085.029-.057.029-.028 0 .056-.028.085-.028.141-.056.057 0 .085-.028.142-.028h.056c.028 0 .113-.029.028 0-.056.028.029 0 .029 0h.282c.085 0-.056-.029 0 0H134c.057 0 .085.028.142.028.028 0 .141.056.084.028-.056-.028.029.028.029.028.028 0 .028.029.056.029.028.028.085.056.113.085.029.028.057.028-.028 0 .028 0 .028.028.057.028l.084.085.17.169.028.029c.029.028-.056-.085-.028-.029.028.029.028.057.057.085a.578.578 0 00.113.17c.056.085-.029-.057 0 0 0 .028.028.056.028.085.028.056.028.113.057.198.028.084 0-.114 0 0v.282c0 .113.028-.084 0 0 0 .029 0 .057-.029.085 0 .057-.028.113-.056.198 0 .028-.029.057-.029.085-.028.056.057-.085 0 0l-.084.17c-.029.056-.057.113-.113.169-.029.057.056-.085 0 0-.029.029-.057.057-.057.085-.028.057-.085.085-.113.113l-.057.057c-.085.085.057-.029 0 0-.113.056-.198.113-.311.169-.056.029.113-.028 0 0-.028 0-.056.029-.085.029-.056.028-.113.028-.197.056h-.029c-.056.028.085 0 .029 0h-.311c-.085 0 .113.028 0 0-.029 0-.057 0-.114-.028-.028 0-.084-.028-.113-.028-.028 0-.028 0-.028-.029-.085-.028 0 .029.028 0a.705.705 0 01-.198-.113c-.028-.028-.056-.056-.113-.056-.028-.029-.028-.029.029.028 0-.028-.057-.028-.057-.057-.057-.056-.141-.113-.198-.197-.028-.029-.057-.057-.085-.114-.028-.028-.056-.084 0 0-.028-.028-.028-.056-.056-.084-.142-.17-.368-.283-.594-.142-.198.113-.311.396-.17.566zm-18.549-50.134c0-.056-.028-.085-.028-.141.028.113 0 .056 0 .028v-.169c0-.029.028-.114 0 .028v-.085c0-.028.028-.085.028-.113 0-.028.085-.17 0-.057.057-.085.085-.17.141-.226l.029-.028c.028-.029.085-.057 0 0 .028-.029.056-.057.085-.113l.084-.085.057-.057c.085-.084-.057.029 0 0 .057-.056.141-.084.198-.141.028 0 .056-.028.056-.028s-.113.028-.028.028c.057-.028.085-.028.142-.057.028 0 .084-.028.113-.028.084-.028-.113 0-.029 0h.227-.057.057c-.029 0-.029-.028-.057-.028 0 0 .028 0 .028.028.029 0 .029.028.057.028.028.029.056.029.113.057a.884.884 0 01.198.141c.028 0 .028.029.056.029-.113-.085-.056-.029-.028-.029.028.029.057.029.057.057l.141.141.028.029c-.084-.114-.056-.057-.028-.029l.057.057c.028.056.056.113.084.141l-.028-.056s0 .028.028.028c0 .028.029.056.029.056 0 .029 0 .057.028.085v-.028.198c-.028.028-.028.113-.028.141a.218.218 0 01-.057.142c-.028.056.057-.113.028-.057 0 0 0 .028-.028.028 0 .029-.028.057-.028.057-.028.056-.057.085-.085.141 0 .029-.028.029-.028.057.085-.142.028-.057 0 0l-.113.113c-.029.028-.17.141-.029.028-.056.029-.084.057-.141.085a.215.215 0 01-.141.057c-.085.056.084-.029.028 0-.028 0-.057.028-.085.028-.056.028-.085.028-.141.028h.028-.254c-.029 0-.085-.028.056 0h-.028c-.028 0-.057 0-.085-.028-.028 0-.057-.028-.085-.028 0 0-.028 0-.028-.029-.085-.028.085.057.028.029a26.938 26.938 0 00-.17-.085c-.028-.028-.056-.028-.084-.057.141.085.028 0-.029-.028l-.169-.17-.029-.028c-.056-.085.057.057 0 0-.028-.028-.056-.085-.084-.113-.057-.085-.085-.17-.142-.255-.113-.197-.396-.282-.594-.14-.197.14-.254.367-.141.593.311.622.848 1.13 1.584 1.16.537.028 1.102-.255 1.442-.651.367-.453.565-1.046.367-1.612-.113-.31-.283-.594-.537-.792-.141-.113-.311-.226-.481-.339l-.169-.085c-.085-.028-.17-.056-.283-.056h-.283a2.028 2.028 0 00-1.216.622c-.311.34-.509.791-.48 1.272 0 .113.028.255.056.368.057.226.311.367.509.283.226.113.368-.114.311-.34zM.678 60.702c.538.31 1.188.395 1.754.113.424-.226.735-.707.82-1.188.084-.537-.029-1.074-.396-1.47a1.737 1.737 0 00-.736-.424c-.17-.057-.339-.057-.508-.085-.227 0-.425.056-.65.141-.85.396-1.245 1.612-.736 2.404.113.198.396.282.594.141a.415.415 0 00.141-.594c-.028-.028-.028-.056-.056-.084-.029-.057 0 .028 0 .028s-.029-.028-.029-.057c0-.028-.028-.085-.028-.113v-.311c.028.057-.028.085 0 .028 0-.056.028-.084.028-.141 0-.028.029-.057.029-.113l.028-.057s-.028.085 0 .029c.028-.085.085-.142.113-.198l.028-.057s-.056.085-.028.028l.085-.084.085-.085c.056-.057-.029.028-.029.028s.057-.028.057-.057c.028-.028.057-.028.085-.056.028 0 .028-.028.056-.028.057-.029-.028.028-.028 0 0 0 .085-.029.113-.029h.057c.085-.028-.085 0 0 0h.254s-.113-.028-.056 0c.028 0 .056 0 .085.029.056 0 .113.028.17.056.027 0 .056.028.084.028l-.057-.028s.029 0 .029.028c.056.029.085.057.141.085.028 0 .028.029.057.029 0 0-.085-.085-.057-.029l.028.029.085.084s.057.085 0 0c-.056-.056 0 0 .028.029a.215.215 0 01.057.113c0 .028.057.085 0 0-.028-.085 0 0 0 .028.028.028.028.085.028.141v.057c.029.085 0-.113 0-.028v.254c0 .085.029-.085 0-.028v.056c0 .057-.028.085-.028.142a.214.214 0 01-.057.113c.057-.17 0 0-.028.028-.028.029-.028.085-.056.113 0 .029-.029.029-.029.057.085-.113.029-.057 0 0l-.085.085c-.028 0-.028.028-.056.028-.028.028.056-.028.056-.028l-.028.028c-.028.028-.085.057-.113.085-.056.028-.113.028.028 0-.028 0-.056.028-.084.028-.057.028-.085.028-.142.028-.056.029.057 0 .057 0h-.312c.142 0 .029 0 0 0-.028 0-.056 0-.084-.028a.524.524 0 00-.198-.056c.141.028 0 0-.028-.029-.029-.028-.085-.028-.113-.056-.198-.113-.481-.057-.594.141-.085.311-.028.566.17.679zM73.8 56.008c1.358-1.33 3.309-2.008 5.203-1.753.226.028.424.17.424.424 0 .198-.198.452-.424.424a5.572 5.572 0 00-4.609 1.527c-.368.367-.961-.226-.594-.622zm-8.37 5.683l-.028-.028s0 .028.028.028zm-2.714-16.74c.113.199.396.284.594.142.198-.141.254-.367.141-.594l-.594-1.102c-.113-.198-.395-.283-.593-.142a.446.446 0 00-.142.594l.594 1.103zm-.368 18.578c0 .028 0 .028 0 0 0 .028 0 .028 0 0 0 .028 0 0 0 0zm0 0c0 .028 0 .028 0 0zm8.794 60.963c.029 0 .029 0 0 0 .029 0 0 0 0 0zm-3.93-40.321c.226.905-.085 1.866-.82 2.431-.848.623-2.15.538-2.912-.197-.707-.65-.877-1.754-.538-2.63.368-1.018 1.273-1.64 2.347-1.612.283 0 .424.255.396.48.226.057.453.142.679.284.424.282.707.735.848 1.244zm-1.555 1.866s.056-.028 0 0zm.763-1.216v-.283c0-.028-.028-.084-.028-.113a1.96 1.96 0 00-.085-.226c0-.028-.028-.028-.028-.056-.028-.029-.028-.085-.057-.114-.028-.028-.028-.056-.056-.084l-.028-.029c-.057-.056-.114-.141-.199-.198l-.028-.028c-.028-.028-.056-.028-.085-.056a.216.216 0 00-.141-.057c-.028 0-.028 0-.056-.028a.837.837 0 00-.283-.057h-.397c-.027 0-.169.028-.112 0-.198.028-.396-.056-.481-.226-.056.028-.085.056-.141.085h-.029l-.028.028c-.085.057-.141.141-.226.226 0 .028-.028.029-.028.057-.029.056-.057.085-.085.141a.215.215 0 00-.057.113l-.028.057V84c-.028.085-.057.198-.085.283 0 .056-.028.085-.028.141v.538c.028.084.028.17.056.254.029.057.029.085.057.141 0 .029.028.029.028.057.029.085.085.141.142.226l.028.057a.398.398 0 01.085.113.398.398 0 00.113.085l.028.028h.028c.085.056.17.113.255.141.028 0 .056.029.056.029.057.028.114.028.142.056.056.028.113.028.17.028h.424c.028 0 .056 0 .084-.028.057 0 .085-.028.142-.028.056 0 .085-.028.141-.057.028 0 .029-.028.057-.028.085-.028.141-.085.198-.113a.06.06 0 00.056-.057l.085-.085.085-.084.028-.029a.846.846 0 00.113-.226s0-.028.029-.028v-.028c0-.029.028-.085.028-.113.028-.085.028-.142.056-.227v-.056c.085-.085.085-.142.085-.17zm16.316 7.437c.197 1.074-.68 1.81-1.584 2.205.396.594.679 1.244.707 1.951.028.481-.141 1.018-.537 1.33a1.412 1.412 0 01-1.33.254c-1.017-.311-1.413-1.386-1.47-2.404a1.828 1.828 0 01-.961.17c-1.046-.057-2.093-.905-1.98-2.036.085-.678.481-1.244 1.16-1.442.424-.113.848-.085 1.216.113-.17-.622-.226-1.272.028-1.866.396-.905 1.555-1.103 2.29-.453.34.311.481.68.481 1.047.877-.227 1.81.198 1.98 1.13zm-1.188-.311c-.028 0 0 0 0 0zm-2.771-1.018c.028-.029.028-.029 0 0zm1.725 6.305c.056 0 .056 0 0 0zm.367-.198c-.028.029-.028.029 0 0zm1.046-4.439v-.141c0-.029-.028-.057-.028-.113l-.028-.057c0-.028-.028-.056-.028-.056-.029-.029-.029-.057-.057-.085l-.028-.029-.085-.085c-.028-.028-.057-.028-.085-.056h-.028c-.028 0-.085-.028-.113-.028h-.226c-.029 0-.085 0-.085.028-.028 0-.085.028-.113.028 0 0-.029 0-.029.028a.215.215 0 01-.113.057c-.028 0-.113.085-.113.085-.028.028-.085.056-.113.085-.056.028-.085.085-.113.141-.17.368-.424.707-.65.99-.142.17-.396.141-.566.028a.442.442 0 01-.113-.537c.17-.34.368-.707.65-1.018.029-.028.029-.085.029-.085.028-.056.028-.141.056-.198 0-.028 0-.056.028-.085v-.17c0-.056-.028-.197 0-.084 0-.028-.028-.085-.028-.113 0-.029-.028-.057-.028-.113 0 0 0-.029-.028-.029a.214.214 0 01-.057-.113l-.028-.028a67.838 67.838 0 01-.085-.085.214.214 0 00-.113-.056h-.028c-.057 0-.114-.029-.17-.057h-.142c-.028 0-.056.028-.113.028h-.028c-.028.029-.056.029-.085.057l-.028.028-.085.085-.028.028s0-.028.028-.028l-.028.028v-.028.028c-.028.028-.028.057-.057.085 0 0-.028.028-.028.057-.028.056-.028.084-.056.141 0 .028-.029.085-.029.113v.566c0 .028 0 .084.029.113.028.084.028.141.056.226l.17.509c.085.226-.085.452-.283.509h-.085a.45.45 0 01-.198.254c-.226.113-.452.029-.594-.141-.197-.283-.706-.255-1.017-.057a.624.624 0 00-.283.368c-.028.057-.028.113-.028.17-.029.085 0 0 0 .056v.199c0 .057.028.085.028.141l.028.057c.028.085.085.142.113.226 0 .029.028.029.028.057l.085.085c.057.056.057.056.142.113.282.198.565.254.933.226h.085c.056 0 .113-.028.14-.028.114-.029.114-.029.199-.085.17-.085.283-.17.424-.34.226-.282.764-.056.735.312-.028.367-.056.848 0 1.13.028.17.057.312.113.481 0 .029.029.085.057.113l.085.17a.593.593 0 00.113.17c0 .028.028.028.028.028l.028.028.17.17c.028.028.056.056.085.056.028.029.085.029.113.057h.028c.028 0 .085.028.113.028h.198c.028 0 .085-.028.113-.028h.029c.028-.028.056-.028.113-.056 0 0 .028 0 .028-.029l.085-.085.028-.028v-.028c.028-.028.028-.057.057-.113v-.057c0-.028.028-.085.028-.113 0-.028.028-.141.028-.113v-.368c-.113-.678-.452-1.244-.876-1.81-.17-.226.028-.565.254-.621.34-.085.622-.198.905-.396.141-.085.141-.113.255-.198l.112-.113.029-.029.028-.028c.028-.056.057-.085.085-.141l.028-.057c.028-.056.028-.141.057-.198-.029 0-.029-.028-.029-.028zm-.904 3.676c0 .028 0 .056 0 0zm38.54 24.685c-.17 2.319-.763 4.722-2.234 6.588-.565.707-1.301 1.386-2.149 1.753-.735.34-1.555.481-2.347.622-2.771.509-5.598.792-8.426 1.047-2.969.254-5.938.48-8.935.565-3.082.085-6.164-.198-9.19-.735a63.183 63.183 0 01-9.614-2.488 32.876 32.876 0 01-3.59-1.471c-.708-.339-1.415-.707-2.037-1.215-.254 3.025-2.714 5.513-5.881 5.513H18.096a5.906 5.906 0 01-5.627-4.128h-1.244c-1.329 0-2.516-1.018-2.912-2.517L.622 96.669c-.65-2.347.82-4.75 2.912-4.75h32.63c1.245-2.121 2.687-4.129 4.242-6.023a44.357 44.357 0 018.229-7.72 39.023 39.023 0 014.354-2.77c.028-1.047.085-2.122.113-3.168.142-3.28.283-6.56.453-9.84.084-1.64.141-3.252.226-4.892-.792-.31-1.584-.622-2.375-.933-2.602-.99-5.175-2.007-7.776-3.025-.368-.142-.396-.537-.113-.764.254-.198.508-.395.763-.622 2.771-2.375 5.118-5.23 7.55-7.917 2.12-2.319 4.298-4.666 6.758-6.673.509-3.648 6.814-8.624 10.858-5.684 10.858-4.128 19.34 9.586 15.325 18.578a28.16 28.16 0 01-2.177 4.326c.537 1.583.396 3.421-.933 5.061 2.149 3.11 6.73 4.242 10.038 2.15.452-.283 1.131-.538 1.414-.114-1.357 4.836-7.07 8.2-11.876 9.19l.678 1.951c.142.057.255.085.396.141 3.959 1.612 7.55 3.902 10.887 6.56 3.28 2.63 6.334 5.514 9.246 8.54 2.799 2.912 5.457 5.994 7.889 9.246a45.816 45.816 0 013.337 4.383c2.035 3.082 3.647 6.475 4.693 10.01.905 2.912 1.414 5.994 1.188 9.048zm-58.87-85.026c.876-.622 1.78-1.188 2.77-1.64a8.563 8.563 0 00-2.77 1.64zm-6.335 20.811c.17.056.311.198.311.396l-.084 1.866c-.142 2.97-.283 5.91-.396 8.879-.113 2.827-.255 5.655-.34 8.483a35.456 35.456 0 005.656 1.498c7.493 1.33 15.382.198 22.196-3.195a152.65 152.65 0 01-1.159-3.308c-1.103-3.167-2.12-6.362-3.11-9.558h-.029c-1.159 0-2.29-.339-3.223-1.018-.198-.14-.226-.395-.085-.593.141-.198.396-.226.594-.085 1.781 1.329 4.609 1.074 6.164-.537 1.895-2.008 1.47-4.525.226-6.108-1.272-1.584-3.62-2.573-5.994-1.188a.412.412 0 01-.566-.141.453.453 0 01.141-.594c.227-.141.453-.254.68-.34-.255-1.413-.481-2.827-.708-4.24-8.285.17-12.583-4.977-9.105-12.612-2.149.707-4.1 2.036-5.825 3.394-3.11 2.516-5.796 5.485-8.454 8.454-2.092 2.319-4.157 4.779-6.588 6.758.056.028.141.057.198.085a945.828 945.828 0 009.5 3.704zm-4.382 69.389c.622 0 1.187-.311 1.611-.876.566-.764.764-1.838.51-2.828l-7.692-27.823c-.31-1.131-1.16-1.895-2.092-1.895H3.562c-.622 0-1.187.311-1.611.877-.566.763-.764 1.838-.51 2.827l7.692 27.824c.31 1.131 1.16 1.894 2.092 1.894h38.739zm-.51-20.217c-.14 0-.282.028-.424 0-.395-.056-.65-.226-.82-.452l2.602 9.444c.424-.113.82-.226 1.244-.339a1.453 1.453 0 01-.17-.707c-.056-1.301 1.33-2.008 2.46-2.093.792-.056 1.612.113 2.404-.169.34-.114.622-.34.678-.707a1.74 1.74 0 000-.764c-.197-.905-1.357-1.103-2.177-1.187-1.13-.113-2.319-.029-3.45-.255-1.272-.254-2.46-1.442-2.346-2.771zm1.612 9.784l1.81 6.531c.085.34.141.679.141.99H67.41c-1.216-.679-2.319-1.612-3.11-2.771-1.075-1.527-1.697-3.506-3.507-4.326-1.781-.792-3.817-.283-5.683-.311-.735 0-1.669-.142-2.347-.594-.566.17-1.131.311-1.697.481zm19.115 8.935v-.057a.469.469 0 00-.141-.339c-.198-.057-.396-.085-.594-.141H52.96c-.283 1.611-1.47 2.912-3.026 2.912H13.346c.735 1.923 2.573 3.28 4.722 3.28H65.12a4.922 4.922 0 003.675-1.612 5.342 5.342 0 001.386-4.043zm1.357-1.838a15.4 15.4 0 001.386-2.234c.791-1.555 1.357-3.28 1.527-5.005.056-.763.084-1.527-.085-2.29a10.744 10.744 0 00-.198-.792 34.687 34.687 0 00-2.319-2.969c-1.866-2.177-3.93-4.241-6.22-5.966-2.093-1.584-4.44-2.997-6.985-3.62-2.233-.537-4.552-.282-6.447 1.047a9.284 9.284 0 00-.622.48 12.755 12.755 0 018.907.679c.51.226.057.961-.424.735-2.969-1.385-6.56-1.442-9.557-.113a.338.338 0 01-.283.028c-.085.029-.17.085-.255.114-.254.169-.508.367-.678.622-.255.367-.51.904-.368 1.329.029.113.113.226.227.254.254.085.509 0 .763-.085h.057c2.488-3.025 6.786-1.385 9.444.453.452.311.028 1.046-.424.735-2.347-1.612-6.221-3.308-8.427-.594-.028.057-.085.085-.113.085v.028c-.367.848.453 1.753 1.188 2.064.48.198 1.046.198 1.583.227 1.216.056 2.545 0 3.704.424 1.047.396 1.612 1.244 1.5 2.375-.057.396-.114.735-.425 1.046-.255.283-.566.452-.905.566-.763.254-1.583.226-2.375.198-.566 0-1.188.113-1.584.537-.254.283-.367.65-.226.961.226.537.905.764 1.442.82.905.142 1.867.028 2.771-.028 1.867-.113 3.79-.028 5.288 1.244 1.386 1.188 1.923 3.026 3.082 4.383 1.075 1.301 2.545 2.205 4.157 2.686h.113c.254 0 .509.085.707.198l.509.085c.17-.198.367-.453.565-.707zm47.023-6.164c-.424-3.224-1.414-6.391-2.799-9.331-1.612-3.478-3.732-6.674-6.277-9.558-.113-.141-.142-.282-.085-.424l-.283-.085a44.378 44.378 0 00-2.036-2.544c-2.884-3.507-6.051-6.843-9.36-9.954-2.742-2.544-5.598-5.005-8.708-7.097a38.141 38.141 0 00-6.702-3.591l.255.763c.056.17 0 .311-.085.396.028.085.057.17.028.255-.31 1.527-1.018 2.912-2.007 4.1-1.725 2.007-4.242 3.252-6.843 3.534-2.686.283-5.4-.537-7.409-2.347-.395-.367.198-.961.594-.593a8.58 8.58 0 003.648 1.922c4.694 1.131 9.897-1.725 11.112-6.418-1.724.848-3.534 1.527-5.4 2.092-7.55 2.234-15.835 2.008-23.243-.735a.426.426 0 01-.283-.48 43.905 43.905 0 00-7.408 5.456 46.827 46.827 0 00-7.098 8.229c-.367.565-.735 1.13-1.074 1.696h5.09c1.329 0 2.516 1.018 2.912 2.517l2.8 10.179c0-.509.197-1.074.452-1.47a4.09 4.09 0 01.763-.792c.142-.113.311-.198.48-.282.03-.029.086-.029.114-.057.028 0 .085-.057.113-.057.028-.028.085-.113.113-.141a9.419 9.419 0 011.555-1.442c2.065-1.527 4.666-1.838 7.126-1.272 2.771.622 5.316 2.177 7.55 3.873 2.431 1.867 4.637 4.044 6.588 6.419.452.537.905 1.103 1.329 1.697.226-.679.82-1.16 1.414-1.556.848-.537 1.696-1.018 2.714-1.215 1.98-.368 3.959.197 5.91.565.141.028.255.057.396.085.056 0 .113.028.17.028.056 0 .141-.028.198-.028.197-.057.367-.085.537-.141.424-.142.876-.283 1.3-.453a62.558 62.558 0 003.196-1.301c2.403-.989 4.835-2.007 7.38-2.658.82-.197 1.724-.395 2.63-.48-.085-.17-.199-.311-.283-.453a1.694 1.694 0 00-.311-.339c-.029-.028-.029-.028 0 0-.029-.028-.057-.057-.114-.085a1.52 1.52 0 01-.17-.226 3.034 3.034 0 00-.254-.311c-.735-.848-1.64-1.47-2.658-1.951-1.611-.735-3.59-.962-4.92-2.206-1.894-1.753-1.102-4.948-.537-7.069.142-.537.962-.31.82.227-.368 1.357-.707 2.827-.565 4.241.084.848.367 1.555.96 2.092.538.481 1.33.764 2.037 1.018 1.95.679 3.874 1.329 5.316 2.913.113.113.198.226.31.367.086.113.255.255.284.396.028 0 .028.029.056.029.028.028.057.056.085.056l.17.17c.282.339.509.735.735 1.131v.028c.905.028 1.809.226 2.573.679.848.509 1.414 1.357 1.696 2.29.085.255.142.537.17.82.028.226.057.368-.056.566a2.61 2.61 0 01-.227.367c-.282.368-.622.707-1.102.764-.934.113-1.584-.849-2.008-1.527-.622-.99-1.075-2.064-1.583-3.111-.17 0-.34 0-.481.029-2.375.198-4.722 1.046-6.928 1.922-2.149.849-4.241 1.81-6.418 2.602-.396.141-.764.283-1.188.367-.17.057-.34.085-.48.113-.397.085-.877-.084-1.245-.169-1.866-.368-3.846-.933-5.74-.396-.848.254-1.697.735-2.375 1.301-.48.396-.735.848-.65 1.47.056.368.197.735.254 1.074.085.368.113.736.141 1.103.029.792-.028 1.612-.17 2.404a16.318 16.318 0 01-1.724 4.807 14.488 14.488 0 01-1.357 2.064c-.255.311-.51.622-.792.876-.141.113 0 0-.085.085h-.028v.028c.028.029.028.057.056.114 0 .028.029.028.029.056l.028.028c.028.057.085.085.141.142.057.056.113.113.17.141.056.057.113.085.141.113.736.538 1.584.962 2.432 1.329 2.601 1.16 5.4 1.98 8.172 2.658 3.195.792 6.447 1.386 9.727 1.584 2.63.141 5.316-.029 7.945-.198 2.998-.198 5.995-.453 8.992-.82a52.205 52.205 0 003.591-.538c.453-.084.905-.169 1.357-.282.17-.057.34-.085.509-.142.085-.028.142-.056.227-.084.028 0 .113-.057.141-.057 1.697-.763 2.771-2.573 3.308-4.27.82-2.431.82-5.089.509-7.634zm-33.846-7.663h.028-.028zm19.878-1.103v-.056a9.628 9.628 0 01-.085-.396c-.056-.226-.113-.481-.226-.707-.537-1.273-1.64-1.782-2.884-1.923.339.707.678 1.414 1.046 2.092.226.425.452.82.763 1.188.113.141.255.283.368.339a.21.21 0 00.113.057c.057.028.028 0 .028.028.029 0 .057.028.113.028h.085c.029 0 .057 0 .085-.028 0 0 .057-.028.141-.085.085-.056.255-.282.368-.424.028 0 .057-.056.085-.113zm0 0c0 .057.028.057 0 0zm-75.893-.594c.707 1.16.848 2.771.141 3.987-.707 1.273-2.347 1.895-3.676 1.216-1.159-.594-1.724-2.007-1.724-3.252 0-.989.339-1.922 1.018-2.544a.476.476 0 01.198-.283c.706-.481 1.583-.735 2.403-.509.679.226 1.272.763 1.64 1.385zm-.905.17c-.311-.396-.679-.65-1.16-.763a2.001 2.001 0 00-.706.028c-.028 0-.028 0-.057.028a.565.565 0 01-.17.113c-1.13.424-1.555 1.668-1.413 2.8.056.452.226.961.509 1.385.226.368.594.679.99.792.452.141.99.085 1.47-.142.48-.254.848-.735 1.018-1.215.367-.99.17-2.206-.48-3.026zm36.816-27.06c.226-.48-.51-.933-.736-.424-.876 1.838-2.63 2.997-4.609 3.308-1.753.283-3.732-.198-4.891-1.612-.736-.876-.99-2.007-.962-3.138 0-.538-.848-.538-.848 0-.028 1.159.226 2.346.905 3.336.594.877 1.442 1.499 2.431 1.895 1.98.791 4.327.48 6.136-.594a6.246 6.246 0 002.574-2.771zm-2.263-16.966v.028-.028zm-5.853-12.441c.255.056.424-.085.51-.283.339-.848.706-1.725 1.045-2.573.085-.198-.084-.48-.282-.51-.255-.056-.424.086-.51.284-.339.848-.706 1.724-1.046 2.573-.084.198.085.452.283.509zm5.147 13.007c-.396-.65.084-1.499.706-1.81.198-.113.425-.17.65-.198.057-.82.962-1.385 1.726-1.442.452-.028.933.141 1.244.452.141.142.254.34.34.538a6.606 6.606 0 001.215-2.234c.17-.51.99-.283.82.226-.283.905-.764 1.753-1.329 2.488a.44.44 0 01.17.227c.226.678.282 1.413.17 2.12-.17.933-.792 1.923-1.81 2.093-1.16.198-2.036-.679-2.602-1.584a8.018 8.018 0 01-2.856.368c-.537-.028-.537-.877 0-.849a7.698 7.698 0 001.81-.14.555.555 0 01-.255-.255zm.706-.425c.057.057.029.029 0 0zm3.591-.424a7.675 7.675 0 01-2.233 1.414c.113.17.226.311.339.453l.311.31.028.029c.029.028.057.028.057.056.056.029.113.085.17.114.028.028.056.028.084.056 0 0 .029 0 .029.028.028 0 .084.029.113.029.056 0 .085.028.141.028 0 0 .085 0 .085.028h.254c.029 0 .085-.028.114-.028.028 0 .113-.028.113-.028.028 0 .056-.029.085-.029.028-.028.084-.028.112-.056 0 0 .057-.028.057-.057l.028-.028.057-.056.085-.085c.028-.029.056-.057.056-.085 0 0 .057-.057.057-.085.056-.085.113-.198.17-.283 0-.028.028-.085.056-.085.028-.028.028-.084.057-.113l.084-.339c.029-.113.029-.198.057-.254.028-.396 0-.736-.057-1.075a.443.443 0 01-.395.255c-.029-.085-.057-.085-.114-.114zm-2.12-1.046v.085c.367.198.678.509.905.848.31-.226.622-.48.904-.735-.028-.113-.056-.254-.084-.367v-.029c0-.028-.029-.028-.029-.056-.028-.057-.056-.085-.085-.142l-.028-.028-.028-.028a.376.376 0 00-.113-.085c-.028 0-.028-.028-.057-.028-.028-.029-.056-.029-.113-.057h-.028c-.028 0-.085-.028-.113-.028h-.283c-.085.028-.17.028-.226.056-.028 0-.028 0-.057.029-.028.028-.056.028-.085.056-.056.028-.14.085-.197.113l-.029.029-.085.084-.056.057c0 .028-.028.028-.028.056-.029.029-.029.057-.057.085v.029c0-.029-.028 0-.028.056zm-.82.764h.028H63zm-.679.593v.057c0-.028-.028-.028 0 0l.057.056c.028.029.056.029.085.057.084.028.141.028.226.057h.225c.114 0 .227.056.284.113.254-.113.48-.227.735-.34-.283-.17-.566-.367-.735-.65h-.227a.525.525 0 00-.197.057s.084-.057.028-.029c0 0-.028 0-.028.029-.029 0-.057.028-.085.056-.029.029-.057.029-.085.057-.057.028-.085.085-.113.113l-.028.028c0 .028-.029.028-.029.057-.028.028-.028.056-.028.084 0 .029-.028.057-.028.085-.029.057-.057.057-.057.113zM58.842 51.37c.255.057.424-.084.51-.282.31-.792.593-1.584.904-2.347.085-.198-.085-.48-.283-.51-.254-.056-.424.086-.509.284-.31.791-.593 1.583-.905 2.347-.084.17.085.452.283.508zm.622-9.613h.65a.594.594 0 00.312-.113c.084-.085.141-.198.113-.311a.425.425 0 00-.113-.311.425.425 0 00-.311-.114h-.65a.592.592 0 00-.312.114c-.085.084-.141.197-.113.31 0 .114.028.227.113.312a.425.425 0 00.311.113z" fill="#211F1C"/></svg>