<svg width="140" height="142" fill="none" xmlns="http://www.w3.org/2000/svg"><path d="M42.156 77.475c-5.403-.117-9.368-5.785-9.427-11.189-.058-5.404 2.761-10.396 5.845-14.801 3.083-4.405 6.607-8.693 8.281-13.832 1.82-5.55 1.351-11.718 3.76-17.033 2.936-6.52 9.543-10.455 15.74-13.979 6.784-3.876 14.39-7.87 22.025-6.285 10.25 2.115 16.27 13.304 26.137 16.887 3.319 1.204 6.931 1.468 10.308 2.437 3.378.97 6.814 2.966 8.106 6.255 1.791 4.582-1.116 9.486-1.997 14.332-1.88 10.249 5.58 20.263 4.61 30.63-.822 8.927-8.017 16.357-16.416 19.441-8.399 3.084-17.767 2.35-26.46.117-8.663-2.231-16.886-5.902-25.373-8.751-8.487-2.849-17.474-4.875-26.372-3.7" fill="#F8F6F2"/><path d="M61.744 99.236c.147.088.265.147.412.206l.264.176-.676-.382zm69.014-45.578a5.543 5.543 0 01-.412.44c.03.206 0 .441-.029.647a5.541 5.541 0 01-.294 1.057l.03.03c-.088 1.409-.676 2.76-1.615 3.817v.089c0 .175-.088.322-.147.498-.47.94-1.146 1.763-1.909 2.467-.441.382-.999.764-1.586.705-.499-.059-.91-.382-1.263-.763-.499-.5-.94-1.205-.734-1.88.029-.147.118-.294.206-.411-.03-.147-.03-.323-.03-.47.03-.5.265-.998.499-1.439.089-.176.206-.323.294-.47.059-.323.206-.675.382-.969a4.78 4.78 0 01-.646-.059c-.029.206-.059.382-.088.558-.235 1.38-.588 2.79-1.292 3.994-.441.734-1.028 1.351-1.704 1.88l.088.235c.441.675.881 1.38 1.322 2.055l1.439 1.733-2.056.881-10.278-.881.44-1.527 1.057-2.026-.851.499c-1.175.675-2.643.411-3.906-.088-1.263-.5-2.438-1.204-3.789-1.38-1.027-.147-2.085.058-3.112.029-1.028-.03-2.174-.411-2.673-1.292 0 0-.059-1.116-.088-2.878A276.331 276.331 0 0095.84 79.03c1.909 2.203 2.79 4.523 2.173 6.872-.411 1.528-2.496 3.23-5.14 4.758 3.378-1.087 6.785-2.173 10.221-2.76 1.938-.324 4.317-.294 5.403 1.35 1.41 2.144-.587 4.875-2.584 6.49-12.158 9.633-30.131 11.16-43.757 3.73a2.49 2.49 0 01-.705-.763 21.574 21.574 0 00-1.087 5.902c-.235 5.081.793 10.162.5 15.271-.177 3.29-1.498 7.107-4.23 8.546-.322 2.408 1.351 5.433-.146 7.46-.793 1.086-2.262 1.439-3.583 1.732-.059 0-.088.03-.147.03-5.433 1.703-13.538 3.994-18.296 4.052-5.903-.822-.205-9.515 6.901-10.043l-.029.088c.118.147.235.323.352.47 1.792-1.997 3.583-4.024 5.404-6.021-1.615-.763-3.2-1.292-4.875-.763l-.264.705c3.876-10.25 1.967-21.615 2.29-32.54.089-2.584.294-5.227.852-7.752-4.816 5.374-9.603 10.748-14.42 16.122a32.755 32.755 0 00-1.468-6.02c-1.321 1.88-1.908 4.758-4.082 5.433-1.321.411-2.701-.147-3.964-.734-3.847-1.733-7.724-3.466-11.571-5.198a5.601 5.601 0 01-1.204-.705c-.558.294-1.145.558-1.82.764.704 1.204 7.282 9.162 6.812 9.808-.176.088-.44-.117-.587-.293C9.001 100.969 2.481 93.656.19 88.87c-1.673-5.61 8.135-4.523 11.835 1.321 4.259-.91 8.517-1.82 12.746-2.731-.235-.294-.47-.617-.705-.91l-.059-.089c8.018-8.957 15.741-19.03 27.84-21.35a29.298 29.298 0 00-4.081-6.578c-.764.176-1.557.235-2.35.235-.293 0-.587-.03-.851-.147-.265-.117-.47-.352-.5-.646-.03-.235.118-.47.294-.617.117-.117.264-.176.411-.234-.323.029-.675.029-.998.029-.294 0-.588-.03-.852-.147-.264-.117-.47-.352-.5-.646a.88.88 0 01.177-.529h-.5c-.293 0-.587-.03-.851-.147-.264-.117-.47-.352-.5-.646-.029-.234.118-.47.294-.616.118-.088.235-.176.353-.235h-.617c-.294 0-.587-.03-.852-.147-.264-.118-.47-.352-.499-.646-.03-.235.118-.47.294-.617a1.78 1.78 0 01.617-.323c.117-.03.235-.059.352-.117-3.172-2.027-6.725-3.466-10.455-4.082 3.407-7.43 12.07-12.07 20.117-10.778 2.672.44 5.257 1.439 7.958 1.439 4.23.03 8.047-2.35 11.894-4.082a40.685 40.685 0 018.634-2.82c.411-2.819.764-5.609.764-5.609-2.232-.793-6.725-2.437-6.725-2.437 1.41-1.469 2.907-3.025 4.434-4.64-.264-.764-.206-1.616.235-2.29l1.468.498 3.554-3.73c.91-.94 2.055-1.79 3.318-2.202-.646-.147-1.292-.382-1.967-.88-1.292-.94-2.379-4.435-.411-6.638 2.643 4.581 5.697 1.703 9.926 4.229 3.171 1.909 2.555 7.988.851 11.013.177-.059.323-.147.5-.206.352-.176.763-.323 1.145-.264.587.088.998.617 1.35 1.116l-1.761.176c.44.206.822.47 1.116.852.998 1.204.94 3.142-.118 4.287-.675.734-1.674 1.087-2.672.999v.088c.587 1.909 1.175 3.67 1.762 5.374a42.704 42.704 0 017.136 1.938 278.317 278.317 0 00-1.204 5.257c.059-.059.118-.088.176-.147 1.146-.969 2.144 1.997 2.555 3.407.411 1.41.734 2.995 1.821 3.994 1.028.94 2.496 1.175 3.847 1.527 1.997.5 3.906 1.35 5.609 2.467l7.019-.294c.999-.91 2.173-1.644 3.436-2.085.441-.147.94-.294 1.41-.264.47.03.969.264 1.233.646.294.44.264.969.088 1.498.206.058.411.117.588.176.91.352 1.732.998 1.938 1.85.205.705-.059 1.41-.499 1.938zM74.167 93.04c-1.498-.793-2.908-1.821-4.258-2.908-.999.47-2.027.852-2.996 1.38-.088.06-.147.089-.235.147a12.3 12.3 0 011.82.06c1.91.234 3.76.88 5.669 1.32z" fill="#fff"/><path d="M91.758 22.823c.88-.881 2.173-1.38 3.436-1.234.235.03.44.176.44.44 0 .206-.205.47-.44.441a3.295 3.295 0 00-2.79.999c-.411.381-1.057-.235-.646-.646zm-4.112-7.049c.147.03.265.06.412.118.117.059.234.117.322.176.089.088.177.147.236.264.029.06.088.118.117.177.117.205.411.293.617.146a.431.431 0 00.147-.616 2.191 2.191 0 00-.764-.793 2.263 2.263 0 00-1.057-.353.617.617 0 00-.323.118c-.088.088-.147.205-.118.323 0 .117.03.235.118.323.117.088.205.117.293.117zm-4.434 1.91c-.294.557-.558 1.145-.852 1.703-.117.235-.41.264-.617.146-.205-.117-.264-.41-.146-.616.293-.558.558-1.146.851-1.704.118-.235.412-.264.617-.146.235.117.264.41.147.616zm1.292-3.32c-.03 0-.088.03-.117.03a.444.444 0 01-.529-.294.444.444 0 01.294-.528 2.278 2.278 0 011.174-.03c.382.088.735.265 1.058.53.205.146.146.469 0 .616a.441.441 0 01-.323.117c-.118 0-.206-.059-.324-.117.089.088 0 0-.029-.03-.03-.029-.059-.029-.088-.058-.059-.03-.147-.06-.206-.118h-.029c-.03 0-.059-.03-.117-.03-.06-.029-.147-.028-.206-.058-.03 0-.059 0-.088-.03h-.47zm2.438 4.288c.205.118.293.412.146.617-.058.118-.146.206-.205.323l-.088.176c.058-.117 0 0 0 .03s-.03.058-.03.088a3.1 3.1 0 00-.176.705v.029a.615.615 0 01-.117.323.442.442 0 01-.323.117.615.615 0 01-.323-.117c-.06-.059-.147-.206-.118-.323a3.847 3.847 0 01.617-1.791c.147-.235.411-.294.617-.177zm-4.23 9.163a1.556 1.556 0 00-1.438-.03 1.59 1.59 0 00-.823.97c-.058.235.088.499.294.528.235.059.47-.058.529-.293 0-.03.029-.06.029-.088 0 0 0-.03.03-.03.029-.03.029-.059.058-.088v-.03l.118-.117s.058-.03.058-.059c.03-.029.06-.029.088-.058h.03c.03 0 .088-.03.117-.03h.236c.029 0 .058 0 .058.03.03 0 .088.03.088.03.03 0 .03.028.059.028.205.118.499.06.616-.146.118-.235.06-.5-.146-.617zm-.499.705s0 .03 0 0c-.029 0-.058 0 0 0zm31.188 11.952a6.126 6.126 0 01.412-2.613c.205-.529 1.057-.294.851.234a5.198 5.198 0 00-.382 2.497c.089.822.441 1.527.735 2.261.323.822.235 1.615 0 2.438-.206.734-.529 1.585-.147 2.29.264.5-.499.94-.764.44-.411-.763-.323-1.644-.088-2.466.118-.44.294-.91.323-1.38.03-.44-.058-.852-.235-1.234-.352-.793-.646-1.556-.705-2.467zm3.495 4.464c.206-.382.353-.763.353-1.233a1.81 1.81 0 00-.382-1.087c-.147-.176-.176-.44 0-.617.147-.147.47-.176.617 0 .558.705.792 1.645.528 2.526-.117.44-.411.822-.558 1.233-.059.177-.117.588.088.676.235.088.382.294.294.529-.059.205-.323.381-.529.293a1.258 1.258 0 01-.793-1.028c-.029-.44.177-.88.382-1.292zm-37.707-5.99c-.793.352-1.586.704-2.38 1.086-.733.323-1.526.763-2.349.763-.734 0-1.233-.44-1.85-.822-.235-.147-.499-.323-.793-.176-.176.088-.293.176-.205.294.323.47-.44.91-.764.44-.44-.617.059-1.322.676-1.556.763-.324 1.38.146 1.997.557.323.235.646.412 1.086.382.411-.03.823-.205 1.175-.352.852-.382 1.733-.764 2.584-1.175a64.24 64.24 0 012.496-1.116c.764-.323 1.557-.558 2.409-.41.763.146 1.41.616 2.085.968a3.91 3.91 0 001.909.47 4.288 4.288 0 003.347-1.615c.353-.44.97.176.617.617-.88 1.116-2.232 1.762-3.612 1.85a4.925 4.925 0 01-1.85-.206c-.676-.205-1.234-.617-1.85-.94-.764-.41-1.498-.381-2.32-.088-.881.294-1.645.676-2.408 1.028zm12.158 3.494c-.5-.529-1.263-.382-1.85-.147-.735.294-1.38.822-2.086 1.145-.763.353-1.556.44-2.349.088-.352-.146-.734-.44-1.145-.47-.147 0-.588.089-.529.324.117.558-.734.793-.852.235-.205-.91.735-1.528 1.557-1.41.528.088.94.382 1.41.587.499.176.969.118 1.439-.088.91-.382 1.644-1.057 2.613-1.35.852-.236 1.792-.206 2.408.47.411.41-.235 1.027-.616.616zM78.13 49.077c.558-.059.558.822 0 .88a30.38 30.38 0 00-5.139.911c-.558.147-.793-.705-.235-.851a30.276 30.276 0 015.374-.94zM47.766 42.41c-2.115-.47-4.406.088-6.05 1.468-.176.147-.44.176-.617 0l-.088-.088-.176 1.674c-.059.558-.94.558-.881 0l.264-2.614c.03-.382.47-.587.764-.323.147.147.293.294.47.44a7.986 7.986 0 016.578-1.41c.528.118.294.97-.264.852zm1.174 4.287c-.03.059-.03.088.03.147.293.5-.47.94-.764.44-.323-.587-.059-1.204.47-1.556.529-.382 1.145-.382 1.732-.147.324.118.617.294.911.44.235.118.5.265.734.265.206 0 .44-.059.617-.176.147-.118.176-.176.147-.294-.147-.558.705-.793.851-.235.147.558-.176 1.087-.675 1.351-.529.294-1.116.294-1.674.059-.323-.118-.617-.294-.91-.44-.235-.118-.53-.265-.793-.265a.802.802 0 00-.558.235c-.059.059-.118.147-.118.176zm4.61 6.08c-1.174-.618-2.73-.412-3.7.498-.41.382-1.027-.235-.616-.616 1.263-1.175 3.23-1.44 4.757-.646.5.264.06 1.027-.44.763zm38.06 1.644c-2.407.969-5.02 1.263-7.605.94-.118.205-.264.381-.382.587-.323.47-1.087.03-.764-.44.177-.265.382-.559.559-.823.117-.176.293-.235.499-.206 2.525.382 5.11.06 7.459-.88.529-.236.734.616.235.822zm38.795-4.464c-.323-.235-.705-.382-1.057-.5.059-.381.059-.763-.088-1.115-.265-.676-.911-1.058-1.586-1.146-.793-.117-1.615.177-2.349.5a10.512 10.512 0 00-3.172 2.114c-2.085.03-4.141.088-6.226.117a20.08 20.08 0 00-3.7-1.908c-1.263-.47-2.585-.735-3.847-1.116-.617-.177-1.204-.411-1.704-.793a3.673 3.673 0 01-1.057-1.44c-.529-1.115-.675-2.378-1.145-3.523-.441-1.116-1.146-2.115-2.261-2.614.352-1.556.704-3.113 1.086-4.67a.444.444 0 00-.294-.528 42.845 42.845 0 00-6.9-1.909c-.53-1.556-1.058-3.083-1.528-4.64.91-.088 1.791-.47 2.408-1.145 1.204-1.322 1.263-3.495.118-4.875-.5-.617-1.234-1.028-1.997-1.204.352-.147.734-.323 1.086-.176.382.146.617.528.852.851.323.47 1.087.03.763-.44-.293-.411-.616-.881-1.086-1.116-.529-.294-1.116-.265-1.645-.03a1.1 1.1 0 00-.323.147c1.44-3.171 1.821-8.634-1.174-10.396-4.23-2.496-7.283.382-9.927-4.229-1.967 2.173-.88 5.698.412 6.637.44.323.851.529 1.262.676-1.674.734-2.966 2.114-4.258 3.465-.5.529-1.028 1.057-1.527 1.586l-1.733.176a.414.414 0 00-.47.088c-.146.059-.293.206-.264.411v.06a3.424 3.424 0 00-.176 2.025c-.44.47-.881.94-1.322 1.38-.969 1.029-1.967 2.056-2.936 3.055-.235.264-.118.617.205.734 2.115.764 4.258 1.556 6.373 2.32v.03c-.03.117-.03.205-.03.323-.088.646-.176 1.292-.264 1.908-.117.881-.235 1.792-.382 2.673-2.613.587-5.168 1.38-7.635 2.437-2.526 1.087-4.904 2.438-7.46 3.378-1.262.47-2.554.822-3.905.94-1.469.146-2.908-.06-4.347-.353-1.468-.323-2.907-.734-4.375-.97a16.494 16.494 0 00-3.407-.264c-2.232.03-4.464.47-6.549 1.263-4.2 1.586-7.929 4.552-10.19 8.458-.294.47-.529.97-.764 1.498-.117.235-.03.587.264.646 3.407.587 6.638 1.82 9.574 3.553 0 0-.03 0-.03.03-.41.264-.733.675-.675 1.174.03.47.382.852.823 1.028.176.088.382.118.558.147-.06.147-.088.294-.06.47.03.47.383.852.823 1.028.265.117.529.147.823.176v.117c.029.47.381.852.822 1.028.264.118.587.147.88.176-.058.147-.087.294-.058.441.03.47.382.852.822 1.028.5.206 1.028.176 1.557.147.529-.03 1.028-.088 1.556-.176h.03a31.881 31.881 0 012.555 3.7c.381.675.734 1.35 1.057 2.055-.323.06-.646.147-.999.235-3.142.793-6.137 2.174-8.84 3.906-5.579 3.612-10.072 8.605-14.448 13.568-1.086 1.204-2.144 2.438-3.23 3.642a.443.443 0 00-.03.557c.03.06.03.118.088.177.088.117.147.205.235.323-3.113.675-6.196 1.321-9.31 1.997-.968.205-1.967.41-2.965.616a9.26 9.26 0 00-.705-.88 10.004 10.004 0 001.762-2.38c.382-.734.881-1.879 0-2.466-.91-.617-1.556.44-1.85 1.145-.088.235-.176.47-.235.705a6.09 6.09 0 00-.118-.646c-.117-.734-.381-1.469-1.115-1.733-.177-.058-.382.059-.5.206a3.21 3.21 0 00-.41 2.584c.058.235.146.5.293.705-4.317-2.849-9.956-2.526-8.664 1.85 2.291 4.787 8.781 12.099 12.6 16.152.175.176.41.353.586.294.47-.646-6.108-8.605-6.813-9.809.5-.147.94-.323 1.38-.528.91.675 2.027 1.115 3.025 1.585l5.727 2.555c.969.44 1.938.881 2.937 1.322.94.411 1.85.881 2.819 1.204 1.468.499 3.054.44 4.229-.676.969-.91 1.497-2.173 2.085-3.347.117-.206.235-.44.352-.647.147.5.294.97.44 1.469.324 1.204.559 2.408.735 3.641.059.323.528.411.734.206 3.025-3.377 6.02-6.755 9.045-10.102a647.522 647.522 0 014.347-4.846c-.03.176-.06.382-.088.558-.852 5.668-.47 11.483-.323 17.209.117 5.697.146 11.453-1.205 17.004a37.946 37.946 0 01-1.204 3.935c-.205.529.647.764.852.235.059-.147.117-.294.147-.44 1.321-.324 2.614 0 3.847.528-1.645 1.821-3.29 3.671-4.934 5.492a.414.414 0 01-.088-.118l.03-.088a8.815 8.815 0 00-1.528.235c0-.059-.029-.088-.029-.147.118 0 .235-.058.323-.205a6.008 6.008 0 00.705-1.997c.088-.617.235-1.38-.206-1.909-.205-.235-.528-.352-.822-.235-.323.117-.529.44-.705.734a4.58 4.58 0 00-.499 1.85c0 .235 0 .47.03.705-.147-.205-.265-.382-.412-.587-.205-.294-.381-.558-.587-.852-.206-.294-.411-.587-.734-.705a.782.782 0 00-.91.323c-.177.323-.118.705.058.999.147.264.382.499.617.734.205.206.41.411.646.617.411.352.822.675 1.292.939 0 .03.03.03.03.059-5.668 2.085-9.251 8.693-4.141 9.427 3.377-.029 8.428-1.204 13.039-2.467 1.909-.411 3.817-.793 5.726-1.204 1.469-.323 3.055-.793 3.818-2.173.764-1.321.5-2.907.235-4.346-.147-.881-.352-1.88-.264-2.79.616-.353 1.145-.822 1.615-1.38 1.321-1.586 2.056-3.613 2.408-5.639.47-2.731.235-5.58.059-8.34-.206-2.996-.5-6.021-.323-9.016a22.1 22.1 0 01.793-4.728c.47.411 1.057.646 1.615.94a38.667 38.667 0 009.662 3.259c.47.088.94.177 1.439.265a140.596 140.596 0 00-8.664 19.03 209.702 209.702 0 00-1.938 5.579c-.176.529.675.764.852.235a138.543 138.543 0 017.811-19.265 177.663 177.663 0 012.732-5.256c.029-.088.058-.147.058-.206.529.059 1.028.147 1.557.206.675 4.963 1.321 9.955 1.997 14.918.03.235.176.441.44.441.206 0 .47-.206.44-.441-.675-4.933-1.32-9.897-1.996-14.83 2.672.205 5.345.176 7.988-.118 0 .059 0 .147.058.206 2.203 4.728 4.435 9.427 6.638 14.155.234.499.998.059.763-.441-2.203-4.669-4.376-9.338-6.578-14.008a41.51 41.51 0 006.784-1.439c3.26-.998 6.402-2.379 9.309-4.17.176-.117.323-.206.499-.323l-.47-.734c-2.848 1.82-5.932 3.23-9.133 4.258-6.696 2.115-13.92 2.496-20.763 1.057-1.908-.411-3.817-.939-5.638-1.644a30.243 30.243 0 01-2.672-1.116c-.441-.206-.882-.411-1.293-.646-.44-.235-.822-.44-1.145-.823.5-1.38 1.145-2.73 2.026-3.906.44-.616.97-1.174 1.528-1.673.117-.088.234-.177.323-.294.117-.088.205-.176.323-.264.058-.03.117-.089.176-.118l.03-.03c.146-.087.293-.205.44-.293.205-.059.499 0 .704 0 1.88.059 3.671.617 5.492 1.087 1.704.44 3.436.763 5.228.822 6.666.235 12.95-2.467 19.264-4.317l-.499-.764c-3.025.91-6.02 1.939-9.074 2.79-3.73 1.028-7.577 1.762-11.453 1.263a24.443 24.443 0 01-2.115-.382c-2.467-1.35-4.64-3.171-6.725-4.992-2.379-2.085-4.699-4.17-7.342-5.932-2.584-1.704-5.697-2.702-8.751-1.792a8.99 8.99 0 00-3.847 2.35c-.676.675-1.204 1.468-1.85 2.173-.764.852-1.498 1.674-2.262 2.525-2.937 3.29-5.903 6.608-8.84 9.897-1.233 1.38-2.496 2.79-3.73 4.17-.704-4.111-2.231-8.076-4.404-11.6-.617-.969-1.263-1.938-1.968-2.848C29 81.82 33.141 76.8 38.133 72.658c2.467-2.055 5.169-3.846 8.105-5.168 2.878-1.263 5.962-2.055 9.104-2.261 4.758-.294 9.574.5 14.185 1.556 5.315 1.234 10.543 2.937 15.476 5.287.529.234 1.058.499 1.557.763l-.94-1.468c-3.877-1.88-7.959-3.319-12.07-4.493a82.488 82.488 0 00-4.64-1.175c-1.057-7.43-3.436-14.508-6.96-21.115a90.768 90.768 0 00-2.995-5.169c1.027-.03 2.055-.206 3.024-.44 2.614-.676 5.022-1.968 7.43-3.113 4.905-2.35 10.161-3.789 15.565-4.17a43.096 43.096 0 0115.946 1.85c.5.176 1.028.352 1.527.528a279.136 279.136 0 00-3.788 18.502 280.548 280.548 0 00-2.526 19.088c-.234 2.32-.41 4.64-.587 6.96.294.323.558.646.822.94.353-5.403.881-10.778 1.557-16.152.059-.382.117-.793.147-1.175 1.556 1.939 4.552.705 6.637 1.293 2.202.616 4.464 2.378 6.754 1.439-.117.234-.264.47-.382.734-.117.205-.058.5.147.617.206.117.5.058.617-.147.294-.558.587-1.116.881-1.704.029 0 .029.03.059.03 2.026 1.086 4.375 1.145 6.461.235a8.36 8.36 0 001.116-.617c.381.617.792 1.233 1.174 1.85.118.206.411.294.617.147a.431.431 0 00.147-.617l-1.234-1.938a6.523 6.523 0 001.469-1.762c.235.675.793 1.263 1.321 1.674.558.382 1.204.5 1.85.264.588-.235 1.087-.675 1.527-1.145.5-.529.97-1.116 1.322-1.762a2.62 2.62 0 00.352-.881v-.03a6.726 6.726 0 001.645-3.993v-.06a5.3 5.3 0 00.294-1.174c0-.117.029-.235 0-.352.381-.382.704-.823.881-1.351.323-1.263-.323-2.379-1.322-3.025zM11.526 86.138c.059-.176.558-1.703.822-1.233.147.264-.058.646-.176.881-.147.294-.293.587-.47.881-.117.176-.235.382-.381.558.058-.382.117-.734.205-1.087zm28.487 42.231s0-.03 0 0c.058.205.029.558 0 .851a5.933 5.933 0 01-.47 1.557c-.118-.852.029-1.704.47-2.408zm16.65 5.726c-.029.588-.234 1.204-.616 1.645-.352.411-.793.675-1.292.881-1.263-.323-10.279 1.967-11.6 2.085.382-2.408-.088-4.346-1.234-6.138 1.763-1.938 3.495-3.906 5.257-5.844.206.118.411.206.617.323 1.82.969 3.612 2.115 5.697 2.35.91.117 1.792 0 2.614-.324.03 1.674.675 3.407.558 5.022zm14.831-42.2c-.382-.089-.763-.206-1.145-.265a14.827 14.827 0 00-1.938-.323c.47-.206.969-.411 1.439-.617.558.412 1.086.823 1.644 1.204zm-26.812 1.204c.088-2.35.294-4.758.822-7.078.44-.5.881-.97 1.292-1.468.588-.676 1.087-1.41 1.763-2.027 2.29-2.144 5.462-2.613 8.34-1.615 1.527.529 2.907 1.468 4.229 2.408 1.292.94 2.496 1.968 3.7 2.996 1.41 1.233 2.79 2.496 4.229 3.67a46.44 46.44 0 00-1.175.53c-.47.205-.91.44-1.35.704-.03 0-.06 0-.089.03-.205.087-.382.234-.558.381-.352.264-.705.529-1.057.822a13.02 13.02 0 00-1.498 1.616c-.03.029-.03.058-.059.058-.117.177-.264.353-.381.529-.03.03-.059.088-.088.117 0 .03-.03.03-.03.06-.117.146-.205.322-.294.469-.117.176-.205.352-.322.558-.03.059-.06.088-.089.147a14.44 14.44 0 00-.822 1.82c-.088.206-.176.412-.205.617-.294.823-.5 1.645-.676 2.497-1.116 5.491.059 11.071.088 16.621.03 2.291-.147 4.582-1.028 6.726-.675 1.703-1.88 3.406-3.7 3.994-1.909.646-3.818-.089-5.521-.97-1.733-.91-3.465-2.055-5.404-2.437a5.075 5.075 0 00-1.997-.059c1.557-4.787 1.968-9.838 1.997-14.86.118-5.609-.293-11.218-.117-16.856zM9.5 84.64c.235.41.264 1.116.323 1.468l.176 1.057a1.3 1.3 0 01-.352-.44c-.382-.646-.411-1.41-.147-2.085zm15.065 3.348a32.013 32.013 0 014.141 7.87c-.705 1.028-1.175 2.261-1.791 3.319-.588.969-1.38 1.82-2.585 1.879-.91.059-1.791-.294-2.613-.646-.91-.411-1.85-.822-2.76-1.234-1.822-.822-3.642-1.615-5.463-2.437l-2.731-1.233c-.676-.294-1.38-.588-1.997-1.028 1.498-.91 2.555-2.173 3.406-3.818l.088-.03c0-.029-.029-.029-.029-.058.617-.118 1.204-.264 1.82-.382a668.31 668.31 0 0010.514-2.202zm15.625-34.3c-.323-.147-.323-.412-.059-.617.352-.235.822-.352 1.233-.411.441-.088.91-.118 1.351-.088.088 0 .177-.03.235-.06h.03c.381-.058.705.177 1.028.324.088.059.323.147.352.264 0 .059-.088.088-.176.118-.059.029-.147.058-.206.088-.851-.03-1.88.059-2.672.47-.382.029-.793.058-1.116-.088zm2.496 1.556c-.088.059-.176.117-.264.206a2.03 2.03 0 01-.94-.118c-.323-.147-.323-.411-.059-.617.03-.029.088-.029.118-.058.47-.03.94-.088 1.41-.176a8.075 8.075 0 001.145-.265.32.32 0 00.176-.059h.03c.381-.058.704.177 1.027.324.059.029.176.088.264.146-.969-.03-2.114.088-2.907.617zm.44 1.38c-.176-.088-.264-.205-.234-.352.47-.03.94-.088 1.38-.176.5-.088 1.028-.206 1.498-.411a1.51 1.51 0 00.47-.265c.264.059.499.206.734.323.088.059.323.147.352.265 0 .058-.088.088-.176.117a1.35 1.35 0 01-.206.088c-.763 0-1.644.118-2.32.44h-.147c-.41.089-.969.148-1.35-.029zm2.967 1.733c-.412.03-.94.088-1.322-.088-.323-.147-.323-.411-.059-.617l.177-.088a6.26 6.26 0 001.027-.147 5.47 5.47 0 001.146-.294h.264a.56.56 0 00.235-.058h.03c.381-.059.704.176 1.027.323.088.059.323.147.353.264 0 .059-.089.088-.177.118-.822.41-1.791.558-2.701.587zm20.615 1.322c.47 1.908.823 3.847 1.116 5.785-3.2-.676-6.431-1.116-9.69-1.234-2.027-.058-4.053.06-6.05.412-.97-2.056-2.144-4.024-3.554-5.815l.529-.176c.41-.147.793-.47.793-.94 0-.587-.5-.91-.97-1.145-.234-.118-.47-.235-.704-.294 0-.059.029-.118.029-.206 0-.587-.5-.91-.97-1.145-.234-.117-.469-.235-.704-.294-.088-.499-.528-.793-.94-1.028a2.677 2.677 0 00-.41-.205.868.868 0 00.058-.294c0-.587-.5-.91-.97-1.145-.498-.264-.968-.44-1.526-.323-.03 0-.059.03-.088.03-.588-.03-1.263 0-1.91.175-1.086-.675-2.231-1.321-3.406-1.85-2.056-.94-4.2-1.644-6.431-2.055 1.909-3.789 5.168-6.755 9.015-8.517 1.997-.91 4.17-1.498 6.373-1.645a17.596 17.596 0 013.29.06c1.38.146 2.73.498 4.081.822 1.351.322 2.702.616 4.082.704 3.994 6.314 7.195 13.04 8.957 20.322zm11.16-42.143l.705-.088c-.294.323-.588.617-.881.94-.03-.294.058-.587.176-.852zm8.957 13.128c-2.496.058-4.963.352-7.4.822.176-1.351.381-2.702.557-4.053.06-.352.089-.675.147-1.028.03-.205-.147-.352-.323-.41-2.026-.735-4.052-1.47-6.079-2.203l3.524-3.7a3.42 3.42 0 001.821 1.438c1.968.676 4.023-.44 4.963-2.202.264-.5-.5-.94-.763-.44-.735 1.35-2.232 2.29-3.789 1.85-.705-.206-1.292-.647-1.615-1.322.147-.147.294-.323.44-.47.91-.94 1.792-1.909 2.702-2.849.852-.88 1.674-1.82 2.585-2.643.94-.822 2.055-1.439 3.26-1.644.029 0 .058-.03.088-.03 1.38.206 2.496.44 3.054 2.673.41 1.674-.147 3.818 1.938 5.403h.088a2.96 2.96 0 00-.44.206c-.235-.088-.53-.03-.647.264-.499 1.38-1.762 2.408-3.289 2.35-1.468-.088-2.613-1.351-2.408-2.82.03-.235-.235-.44-.44-.44-.265 0-.411.206-.44.44-.265 1.939 1.32 3.554 3.17 3.7 1.792.147 3.32-.998 4.054-2.525.029 0 .088-.03.117-.03.176-.087.352-.146.5-.234a.56.56 0 00.381-.03c1.145-.704 2.82-.44 3.671.588.852 1.028.822 2.731-.088 3.73-.91.998-2.614 1.174-3.7.41-.206-.146-.47-.087-.617.118-.147.206-.088.47.117.617.44.323.97.499 1.528.587.47 1.498.969 2.996 1.497 4.493-2.643-.499-5.403-.675-8.164-.616zm37.678 18.383a8.353 8.353 0 011.557-.734c.558-.205 1.204-.41 1.791-.176 1.263.5.264 2.056-.205 2.76-.705 1.029-1.498 2.056-2.438 2.879-.059.029-.205.176-.205.176-.059-.03-.059-.264-.059-.323 0-.323 0-.676.059-.999a5.076 5.076 0 01.734-1.85c.323-.47-.441-.91-.764-.44a4.412 4.412 0 00-.44.822 1.57 1.57 0 00-.382.206c-.029-.47-.059-.97-.118-1.44-.029-.176-.117-.293-.234-.352.234-.235.469-.382.704-.529zm-12.657 14.978c-.117-.118-.294-.176-.499-.059-2.115 1.204-4.523-.763-6.52-1.321-1.263-.353-2.496-.147-3.788-.147-.94 0-2.056-.206-2.584-1.087a.428.428 0 00-.382-.205 270.84 270.84 0 012.819-16.799c.323-1.673.675-3.318 1.057-4.992.881.44 1.41 1.41 1.733 2.32.411 1.145.617 2.379 1.145 3.495.558 1.145 1.469 1.909 2.643 2.35 1.234.469 2.555.645 3.789 1.056 1.028.353 2.026.793 2.966 1.322-1.968.03-3.906.088-5.874.117-.117 0-.205.03-.264.088-.206-.058-.441.03-.47.294-.44 2.82.294 5.639 1.028 8.34.323 1.234.734 2.467 1.498 3.495a7.677 7.677 0 001.703 1.674c.029 0 .029.03 0 .059zm11.071-6.255c-.411 2.231-1.262 4.346-3.23 5.609a6.476 6.476 0 01-5.903.617 6.891 6.891 0 01-2.467-1.704c-.793-.852-1.262-1.88-1.585-2.995a41.362 41.362 0 01-1.028-4.2c-.265-1.38-.411-2.79-.235-4.17l14.742-.264h.029c.206 2.35.118 4.757-.323 7.107zm3.73 4.023c-.499.558-1.351 1.468-2.173 1.057-.352-.176-.822-.617-1.087-1.086.529.352 1.204.381 1.821.293a5.064 5.064 0 001.792-.646c-.118.118-.235.264-.353.382zm-.734-.852c-.94.353-2.467.558-2.496-.851 0-.323.088-.646.205-.97a.832.832 0 00.265.294c.704.617 1.674.558 2.525.294a6.314 6.314 0 002.496-1.468c-.646 1.204-1.732 2.202-2.995 2.701zm3.318-4.493c-.558.97-1.439 1.733-2.437 2.203-.558.235-1.263.47-1.85.323-.646-.147-.793-.705-.588-1.292.03-.089.089-.177.118-.265a7.4 7.4 0 001.674-.264c1.145-.352 2.173-.97 3.142-1.645.176-.117.353-.235.499-.352a7.09 7.09 0 01-.558 1.292zm1.674-4.14c-.088.998-1.057 1.732-1.82 2.26-.793.559-1.586 1.087-2.467 1.469-.764.323-1.674.558-2.585.529.089-.735.147-1.498.177-2.262.029.059.058.118.088.147a.818.818 0 00.822.352c.411-.088.705-.381.969-.675a15.149 15.149 0 001.557-1.791c.44-.558 1.028-1.293 1.38-2.085l.44.176c.764.382 1.498.998 1.439 1.88zm-91.303 80.847c-.088 0-.146-.029-.176-.088-.03-.058-.03-.058-.03-.029v.059c0 .029-.058.147-.087.235-.118.264-.176.528-.088.793.088.264.323.411.558.528.146.059.323.088.44.176.235.206.323.558.264.852-.088.499-.41.94-.704 1.322-.147.205-.03.499.146.616.235.118.47.03.617-.146.353-.5.705-1.028.793-1.645a1.894 1.894 0 00-.44-1.557c-.177-.205-.44-.323-.705-.411-.088-.029-.176-.058-.206-.088.059.03 0 .118.03 0 .029-.058.058-.147.088-.205.205-.529.088-1.204-.588-1.293-.235-.029-.44.235-.44.441a.672.672 0 00.528.44zm-.293-1.204a4.1 4.1 0 00-2.643 2.732c-.059.235.088.499.293.528.235.059.47-.059.529-.293.03-.059.03-.147.059-.206 0-.029.029-.059.029-.088 0 0 .059-.118 0-.029l.176-.353c.059-.117.147-.235.235-.352.059-.088-.03.058.03-.03.029-.029.058-.058.058-.088.059-.058.088-.117.147-.147.088-.088.206-.205.294-.264 0 0 .088-.088.059-.029-.06.029.029-.03.029-.03.059-.029.117-.088.176-.117.118-.088.235-.147.382-.206.03-.029.059-.029.088-.058.088-.03-.059.029.03 0a.533.533 0 01.205-.059c.206-.059.382-.294.294-.529 0-.293-.235-.47-.47-.382z" fill="#211F1C"/><path d="M136.132 65.787H88.146c-2.702 0-4.317 2.995-2.849 5.257l19.823 30.395c.734 1.116.734 2.584 0 3.729l-19.823 30.396c-1.468 2.261.147 5.256 2.849 5.256h47.986c2.702 0 4.317-2.995 2.848-5.256l-19.822-30.396c-.735-1.115-.735-2.584 0-3.729l19.822-30.395c1.469-2.262-.146-5.257-2.848-5.257z" fill="#fff"/><path d="M135.545 135.152c-.852-1.762-1.792-3.641-3.495-4.581-1.88-1.028-4.141-.675-6.255-.382-3.936.588-7.93.911-11.924 1.058-.058-7.254.089-13.363 0-20.734-.029-3.23 1.616-7.488 3.466-10.22 1.703-1.82 2.907-4.14 4.053-6.372.323-.617.646-1.351.293-1.968-.382-.675-1.321-.764-2.085-.646-1.674.264-3.23 1.028-4.846 1.556-1.615.558-3.406.882-4.992.236-1.175-.47-2.114-1.41-3.054-2.233-.969-.822-2.085-1.615-3.348-1.673-1.263-.06-2.643.969-2.496 2.231.058.558.382 1.087.734 1.557 1.997 2.907 3.994 5.815 6.02 8.722 1.439 2.173 3.847 5.169 4.053 9.045.235 4.493.587 13.539.734 18.032.029 1.145-.147 1.938-.029 2.496-4.259.088-8.487-.118-12.716-.529-1.733-.176-3.495-.411-5.257-.176-1.733.235-3.495.969-4.552 2.35l.44.176c-1.204-.235-2.349 1.086-2.231 2.32.117 1.233 1.145 2.232 2.29 2.672 1.146.441 2.438.441 3.671.441 3.201 0 6.373 0 9.574-.03 9.838-.029 19.676-.029 29.514-.058 1.057 0 2.349-.147 2.761-1.146.323-.705 0-1.468-.323-2.144z" fill="#4FC9DA"/><path d="M136.132 141.261H88.146a3.782 3.782 0 01-3.377-2.026 3.86 3.86 0 01.146-3.936l19.823-30.395a2.934 2.934 0 000-3.23L84.915 71.279a3.73 3.73 0 01-.147-3.936 3.78 3.78 0 013.378-2.026h47.986a3.78 3.78 0 013.377 2.026 3.857 3.857 0 01-.147 3.936l-19.823 30.395a2.934 2.934 0 000 3.23l19.823 30.395a3.73 3.73 0 01.147 3.936c-.705 1.262-1.967 2.026-3.377 2.026zM88.146 66.227a2.935 2.935 0 00-2.614 1.557 2.941 2.941 0 00.118 3.025l19.822 30.395a3.88 3.88 0 010 4.199L85.65 135.799c-.617.91-.647 2.055-.118 3.024a2.933 2.933 0 002.614 1.557h47.986a2.934 2.934 0 002.614-1.557 2.941 2.941 0 00-.118-3.024l-19.823-30.396a3.883 3.883 0 010-4.199l19.823-30.395c.617-.91.646-2.056.118-3.025a2.936 2.936 0 00-2.614-1.557H88.146zm-.353 4.024c6.167-.088 12.364-.177 18.531-.294 6.167-.088 12.364-.176 18.531-.294 3.465-.058 6.931-.117 10.396-.147.558 0 .558-.88 0-.88-6.167.088-12.364.176-18.531.293-6.167.118-12.363.176-18.53.294-3.466.059-6.931.117-10.397.147-.558.03-.558.91 0 .88z" fill="#211F1C"/></svg>