<svg xmlns="http://www.w3.org/2000/svg"><defs><font id="icomoon" horiz-adv-x="1024"><font-face units-per-em="1024" ascent="960" descent="-64"/><glyph horiz-adv-x="512"/><glyph unicode="" glyph-name="abstract-1" d="M544-3.413c-32.717.143-61.483 16.925-78.289 42.316l-.218.351-145.92 218.027c-11.244 16.595-17.951 37.061-17.951 59.093s6.707 42.498 18.19 59.468l-.239-.374L455.68 579.841l-96.427 145.067c-10.235 14.815-16.348 33.16-16.348 52.932 0 32.137 16.15 60.502 40.777 77.421l.318.207 42.667 28.16c14.484 10.013 32.421 15.995 51.756 15.995 6.601 0 13.04-.697 19.245-2.022l-.601.108c25.258-4.998 46.425-19.605 59.947-39.77l.213-.337 145.92-218.88c11.244-16.595 17.951-37.061 17.951-59.093s-6.707-42.498-18.19-59.468l.239.374L567.04 316.162l96.427-145.067c10.013-14.484 15.995-32.421 15.995-51.756 0-6.601-.697-13.04-2.022-19.245l.108.601c-4.352-24.911-18.051-46.016-37.277-59.973l-.27-.187-42.667-28.16C582.779 2.48 564.817-3.423 545.475-3.423c-.518 0-1.036.004-1.552.013l.078-.001zm-25.173 77.226c5.585-8.318 14.955-13.719 25.587-13.719a30.571 30.571 0 0117.188 5.255l-.108-.069 42.667 28.587c8.318 5.585 13.719 14.955 13.719 25.587a30.571 30.571 0 01-5.255 17.188l.069-.108-100.693 151.893c-5.412 7.819-8.645 17.505-8.645 27.947s3.233 20.127 8.753 28.112l-.108-.165 141.227 213.333c4.407 6.607 7.033 14.73 7.033 23.467s-2.626 16.859-7.131 23.623l.098-.156-148.053 217.6c-4.481 6.443-11.192 11.065-18.994 12.762l-.206.038c-1.863.413-4.002.65-6.197.65a29.723 29.723 0 01-16.526-4.985l.11.069-42.667-28.587c-8.408-5.476-13.889-14.832-13.889-25.467a30.155 30.155 0 015.421-17.298l-.065.099 101.973-152.747c5.412-7.819 8.645-17.505 8.645-27.947s-3.233-20.127-8.753-28.112l.108.165-141.227-213.333c-4.407-6.607-7.033-14.73-7.033-23.467s2.626-16.859 7.131-23.623l-.098.156z"/><glyph unicode="" glyph-name="abstract-2" d="M512-10.667c-253.217.243-458.424 205.45-458.667 458.644V832c0 41.237 33.429 74.667 74.667 74.667h768c41.14-.241 74.426-33.526 74.667-74.644V448c-.243-253.217-205.45-458.424-458.644-458.667H512zM128 842.667c-5.891 0-10.667-4.776-10.667-10.667V448c0-217.968 176.698-394.667 394.667-394.667S906.667 230.031 906.667 448v384c0 5.891-4.776 10.667-10.667 10.667zM512 160c-158.96.243-287.757 129.04-288 287.977V704c.237 17.577 14.423 31.763 31.977 32H768c17.577-.237 31.763-14.423 32-31.977V448c-.243-158.96-129.04-287.757-287.977-288H512zM288 672V448c0-123.712 100.288-224 224-224s224 100.288 224 224v224z"/><glyph unicode="" glyph-name="abstract-3" d="M512-10.667l-.394-.001c-20.509 0-39.076 8.316-52.512 21.761l-384 384C61.619 408.663 53.291 427.359 53.291 448s8.328 39.337 21.807 52.911l383.996 383.996c13.745 13.082 32.386 21.13 52.907 21.13s39.162-8.048 52.939-21.16l-.032.03 384-384c13.475-13.57 21.803-32.266 21.803-52.907s-8.328-39.337-21.807-52.911L564.908 11.093c-13.436-13.445-32.003-21.761-52.512-21.761l-.416.001h.021zm0 853.334a11.479 11.479 0 01-7.689-2.995l.009.008-384-384c-1.82-2.029-2.933-4.724-2.933-7.68s1.113-5.651 2.943-7.691l-.009.011 384-384c1.732-2.257 4.431-3.698 7.467-3.698s5.734 1.441 7.45 3.676l.016.022 384 384c1.82 2.029 2.933 4.724 2.933 7.68s-1.113 5.651-2.943 7.691l.009-.011-384 384a11.463 11.463 0 01-7.229 2.986l-.025.001zm0-629.76a33.609 33.609 0 00-22.624 9.397L371.627 340.053a32.736 32.736 0 00-9.179 22.779c0 4.398.864 8.594 2.432 12.427l-.079-.219c4.958 11.605 16.262 19.596 29.436 19.627h235.524c17.661-.016 31.972-14.337 31.972-32 0-8.83-3.576-16.824-9.359-22.614l-117.76-117.76a33.581 33.581 0 00-22.575-9.386l-.038-.001zm-40.533 117.76L512 290.134l40.107 40.533zM629.76 501.333H394.24c-13.178.03-24.482 8.021-29.361 19.418l-.079.209c-1.488 3.614-2.352 7.81-2.352 12.208 0 8.85 3.499 16.882 9.189 22.789l117.75 117.75c5.878 5.585 13.844 9.021 22.613 9.021s16.736-3.436 22.627-9.034l-.014.013 117.76-117.76c5.782-5.789 9.359-13.784 9.359-22.613 0-17.663-14.311-31.984-31.97-32h-.002zm-158.293 64h83.2L512 605.866z"/><glyph unicode="" glyph-name="abstract-4" d="M512-10.667l-.394-.001c-20.509 0-39.076 8.316-52.512 21.761l-384 384C61.619 408.663 53.291 427.359 53.291 448s8.328 39.337 21.807 52.911l383.996 383.996c13.745 13.082 32.386 21.13 52.907 21.13s39.162-8.048 52.939-21.16l-.032.03 384-384c13.475-13.57 21.803-32.266 21.803-52.907s-8.328-39.337-21.807-52.911L564.908 11.093c-13.436-13.445-32.003-21.761-52.512-21.761l-.416.001h.021zm0 853.334a11.479 11.479 0 01-7.689-2.995l.009.008-384-384c-1.82-2.029-2.933-4.724-2.933-7.68s1.113-5.651 2.943-7.691l-.009.011 384-384c1.732-2.257 4.431-3.698 7.467-3.698s5.734 1.441 7.45 3.676l.016.022 384 384c1.82 2.029 2.933 4.724 2.933 7.68s-1.113 5.651-2.943 7.691l.009-.011-384 384a11.463 11.463 0 01-7.229 2.986l-.025.001zm0-629.76a33.609 33.609 0 00-22.624 9.397L286.294 425.386c-5.782 5.789-9.359 13.784-9.359 22.613s3.576 16.824 9.359 22.614l203.093 203.093c5.878 5.585 13.844 9.021 22.613 9.021s16.736-3.436 22.627-9.034l-.014.013 203.093-203.093c5.782-5.789 9.359-13.784 9.359-22.613s-3.576-16.824-9.359-22.614L534.613 222.293a33.581 33.581 0 00-22.575-9.386l-.038-.001zM354.133 448L512 290.133 669.867 448 512 605.867z"/><glyph unicode="" glyph-name="abstract-5" d="M512-10.667C258.685-10.667 53.333 194.685 53.333 448S258.685 906.667 512 906.667c253.315 0 458.667-205.352 458.667-458.667-.243-253.217-205.45-458.424-458.644-458.667H512zm0 853.334c-217.968 0-394.667-176.698-394.667-394.667S294.031 53.333 512 53.333c217.968 0 394.667 176.698 394.667 394.667-.243 217.87-176.796 394.424-394.643 394.667H512zm128-597.334H384c-41.237 0-74.667 33.429-74.667 74.667v256c0 41.237 33.429 74.667 74.667 74.667h256c41.14-.241 74.426-33.526 74.667-74.644V320c0-41.237-33.429-74.667-74.667-74.667zM384 586.667c-5.891 0-10.667-4.776-10.667-10.667V320c0-5.891 4.776-10.667 10.667-10.667h256c5.891 0 10.667 4.776 10.667 10.667v256c0 5.891-4.776 10.667-10.667 10.667z"/><glyph unicode="" glyph-name="abstract-6" d="M600.747 44.373c-.34-.006-.741-.009-1.143-.009-18.946 0-36.145 7.484-48.799 19.658l.023-.022-180.053 181.333h-157.44l-.814-.002c-88.366 0-160 71.634-160 160 0 77.483 55.077 142.102 128.216 156.843l1.025.172v13.799c0 135.023 109.457 244.48 244.48 244.48 79.36 0 149.888-37.812 194.551-96.403l.436-.596c18.15 7.757 39.268 12.267 61.44 12.267 88.328 0 159.939-71.574 160-159.887v-13.659c74.171-14.908 129.255-79.53 129.255-157.018 0-88.366-71.634-160-160-160-.441 0-.882.002-1.322.005h-138.6V115.201l.002-.572c0-28.859-17.365-53.663-42.216-64.532l-.453-.177c-7.852-3.523-17.019-5.574-26.664-5.574-.676 0-1.35.01-2.021.03l.098-.002zm-387.414 456.96c-53.019 0-96-42.981-96-96s42.981-96 96-96H384c8.833-.008 16.828-3.594 22.613-9.386l190.72-189.44c1.09-.69 2.417-1.1 3.84-1.1s2.75.41 3.87 1.117l-.03-.018c2.512.902 4.277 3.264 4.277 6.038 0 .127-.004.254-.011.38l.001-.017v160.427c.237 17.577 14.423 31.763 31.977 32h170.69c53.019 0 96 42.981 96 96s-42.981 96-96 96h-6.4a32.001 32.001 0 00-1.677-.043c-10.58 0-19.991 5.001-26 12.767l-.056.076c-3.935 5.256-6.301 11.885-6.301 19.067 0 4.033.746 7.892 2.108 11.446l-.074-.219c3.246 9.354 5.12 20.135 5.12 31.354v.231-.012c0 53.019-42.981 96-96 96-.198.002-.432.002-.666.002-19.867 0-38.28-6.229-53.391-16.84l.297.198c-4.963-3.492-11.133-5.581-17.791-5.581-2.621 0-5.166.324-7.597.933l.215-.046c-8.858 2.086-16.128 7.682-20.398 15.204l-.082.156c-31.782 54.791-90.163 91.051-157.013 91.051-99.912 0-180.907-80.995-180.907-180.907v-.322a176.47 176.47 0 014.053-37.704l-.213 1.162c.329-1.767.516-3.8.516-5.878a33.566 33.566 0 00-7.395-21.069l.051.066c-5.911-7.07-14.735-11.536-24.601-11.536-.351 0-.701.006-1.05.017l.051-.001z"/><glyph unicode="" glyph-name="abstract-7" d="M512-10.667l-.464-.001c-19.027 0-36.831 5.233-52.052 14.338l.463-.257-307.2 177.493c-31.302 18.117-52.029 51.435-52.053 89.597v354.99c.025 38.165 20.752 71.483 51.558 89.335l.496.265 307.627 177.493c14.891 8.653 32.769 13.76 51.84 13.76s36.949-5.107 52.342-14.028l-.502.268 307.2-177.493c31.302-18.117 52.029-51.435 52.053-89.597v-354.99c-.025-38.165-20.752-71.483-51.558-89.335l-.496-.265L563.627 3.413C549.1-5.433 531.53-10.67 512.738-10.67c-.259 0-.519.001-.777.003h.04zm0 853.334h-.13a39.5 39.5 0 01-19.691-5.223l.194.102-307.627-176.213c-12.024-7.035-19.988-19.86-20.053-34.551V271.786c.066-14.7 8.03-27.525 19.864-34.458l.189-.102L492.373 59.733c5.65-3.227 12.416-5.13 19.627-5.13s13.977 1.903 19.824 5.234l-.198-.104 307.627 174.933c12.024 7.035 19.988 19.86 20.053 34.551v356.276c.01.327.015.712.015 1.098 0 14.773-7.987 27.68-19.879 34.64l-.19.103-307.627 176.213c-5.609 3.221-12.331 5.12-19.497 5.12h-.137.007zm0-667.307l-.247-.001a31.856 31.856 0 00-16.118 4.349l.152-.082-208.213 120.32c-9.723 5.59-16.175 15.904-16.213 27.728V568.32c.039 11.829 6.49 22.143 16.058 27.651l.155.082 208.213 120.32c4.557 2.823 10.083 4.496 16 4.496s11.443-1.673 16.132-4.572l208.508-120.244c9.723-5.59 16.175-15.904 16.213-27.728V327.679c-.039-11.829-6.49-22.143-16.058-27.651l-.155-.082-208.64-120.32c-4.353-2.682-9.627-4.271-15.272-4.271-.181 0-.361.002-.541.005h.027zM335.36 346.027L512 244.48l176.64 101.547v203.947L512 651.947 335.36 549.974z"/><glyph unicode="" glyph-name="abstract-8" d="M512-10.667C258.685-10.667 53.333 194.685 53.333 448S258.685 906.667 512 906.667c253.315 0 458.667-205.352 458.667-458.667-.243-253.217-205.45-458.424-458.644-458.667H512zm0 853.334c-217.968 0-394.667-176.698-394.667-394.667S294.031 53.333 512 53.333c217.968 0 394.667 176.698 394.667 394.667-.243 217.87-176.796 394.424-394.643 394.667H512zM512 160c-159.058 0-288 128.942-288 288s128.942 288 288 288 288-128.942 288-288c-.243-158.96-129.04-287.757-287.977-288H512zm0 512c-123.712 0-224-100.288-224-224s100.288-224 224-224 224 100.288 224 224c-.242 123.614-100.386 223.758-223.977 224H512z"/><glyph unicode="" glyph-name="abstract-9" d="M853.333 32H170.666c-41.237 0-74.667 33.429-74.667 74.667v682.667c0 41.237 33.429 74.667 74.667 74.667h682.667c41.14-.241 74.426-33.526 74.667-74.644v-682.69C928 65.43 894.571 32 853.333 32zM170.667 800c-5.891 0-10.667-4.776-10.667-10.667V106.666c0-5.891 4.776-10.667 10.667-10.667h682.667c5.891 0 10.667 4.776 10.667 10.667v682.667c0 5.891-4.776 10.667-10.667 10.667zm554.666-597.333H298.666c-17.577.237-31.763 14.423-32 31.977v426.69c.237 17.577 14.423 31.763 31.977 32h426.69c17.577-.237 31.763-14.423 32-31.977v-426.69c-.237-17.577-14.423-31.763-31.977-32h-.023zm-394.666 64h362.667v362.667H330.667z"/><glyph unicode="" glyph-name="abstract-10" d="M853.333 565.333h-224v224c-.241 41.14-33.526 74.426-74.644 74.667h-85.356c-41.237 0-74.667-33.429-74.667-74.667v-224h-224c-41.237 0-74.667-33.429-74.667-74.667v-85.333c0-41.237 33.429-74.667 74.667-74.667h224v-224c0-41.237 33.429-74.667 74.667-74.667h85.333c41.237 0 74.667 33.429 74.667 74.667v224h224c41.237 0 74.667 33.429 74.667 74.667v85.333c-.241 41.14-33.526 74.426-74.644 74.667h-.023zm10.667-160c0-5.891-4.776-10.667-10.667-10.667h-288v-288c0-5.891-4.776-10.667-10.667-10.667h-85.333c-5.891 0-10.667 4.776-10.667 10.667v288h-288c-5.891 0-10.667 4.776-10.667 10.667v85.333c0 5.891 4.776 10.667 10.667 10.667h288v288c0 5.891 4.776 10.667 10.667 10.667h85.333c5.891 0 10.667-4.776 10.667-10.667v-288h288c5.891 0 10.667-4.776 10.667-10.667z"/><glyph unicode="" glyph-name="abstract-11" d="M677.973 448l158.293 158.293c13.475 13.57 21.803 32.266 21.803 52.907s-8.328 39.337-21.807 52.911l-60.156 60.156c-13.57 13.475-32.266 21.803-52.907 21.803s-39.337-8.328-52.911-21.807L511.999 613.974 353.706 772.267c-13.57 13.475-32.266 21.803-52.907 21.803s-39.337-8.328-52.911-21.807l-60.156-60.156c-13.475-13.57-21.803-32.266-21.803-52.907s8.328-39.337 21.807-52.911L346.025 448 187.732 289.707c-13.475-13.57-21.803-32.266-21.803-52.907s8.328-39.337 21.807-52.911l60.156-60.156c13.57-13.475 32.266-21.803 52.907-21.803s39.337 8.328 52.911 21.807l158.289 158.289 158.293-158.293c13.57-13.475 32.266-21.803 52.907-21.803s39.337 8.328 52.911 21.807l60.156 60.156c13.475 13.57 21.803 32.266 21.803 52.907s-8.328 39.337-21.807 52.911l.004-.004zM791.04 229.12l-60.16-60.16c-1.943-2.014-4.665-3.264-7.68-3.264s-5.737 1.251-7.677 3.261L512 372.48 308.48 168.96c-1.943-2.014-4.665-3.264-7.68-3.264s-5.737 1.251-7.677 3.261L232.96 229.12c-2.014 1.943-3.264 4.665-3.264 7.68s1.251 5.737 3.261 7.677L436.48 448 232.96 651.52c-2.014 1.943-3.264 4.665-3.264 7.68s1.251 5.737 3.261 7.677l60.163 60.163c2.029 1.82 4.724 2.933 7.68 2.933s5.651-1.113 7.691-2.943l-.011.009L512 523.519l203.52 203.52c2.029 1.82 4.724 2.933 7.68 2.933s5.651-1.113 7.691-2.943l-.011.009 60.16-60.16c2.014-1.943 3.264-4.665 3.264-7.68s-1.251-5.737-3.261-7.677L587.52 447.998l203.52-203.52c2.014-1.943 3.264-4.665 3.264-7.68s-1.251-5.737-3.261-7.677l-.003-.003z"/><glyph unicode="" glyph-name="abstract-12" d="M554.667-10.667h-85.333c-41.237 0-74.667 33.429-74.667 74.667v128c0 41.237 33.429 74.667 74.667 74.667h85.333c41.14-.241 74.426-33.526 74.667-74.644V64c0-41.237-33.429-74.667-74.667-74.667zm-85.334 213.334c-5.891 0-10.667-4.776-10.667-10.667V64c0-5.891 4.776-10.667 10.667-10.667h85.333c5.891 0 10.667 4.776 10.667 10.667v128c0 5.891-4.776 10.667-10.667 10.667zM755.2 464.213a77.765 77.765 0 00-20.17 2.685l.544-.125c-19.554 5.23-35.521 17.857-45.038 34.625l-.189.362L647.68 576c-6.191 10.68-9.845 23.499-9.845 37.17 0 27.488 14.769 51.526 36.805 64.612l.346.19 110.933 64c10.803 6.374 23.804 10.14 37.684 10.14 6.777 0 13.344-.898 19.588-2.58l-.526.121c19.554-5.23 35.521-17.857 45.038-34.625l.189-.362 42.667-73.813c6.191-10.68 9.845-23.499 9.845-37.17 0-27.488-14.769-51.526-36.805-64.612l-.346-.19-110.933-64c-10.571-6.57-23.369-10.52-37.08-10.666h-.04zm67.84 223.574c-.766.237-1.647.373-2.56.373s-1.794-.136-2.623-.39l.063.017-110.933-64c-3.168-1.888-5.258-5.297-5.258-9.193 0-1.956.526-3.788 1.445-5.364l-.027.051 42.667-73.813c1.291-2.533 3.579-4.401 6.332-5.105l.068-.015c1.19-.553 2.584-.876 4.053-.876s2.863.323 4.114.901l-.061-.025 110.933 64c3.168 1.888 5.258 5.297 5.258 9.193 0 1.956-.526 3.788-1.445 5.364l.027-.051-42.667 73.813c-1.291 2.533-3.579 4.401-6.332 5.105l-.068.015zM268.373 464.213c-13.703.007-26.516 3.813-37.444 10.422l.324-.182-110.933 64c-22.382 13.277-37.151 37.315-37.151 64.803 0 13.672 3.654 26.49 10.038 37.532l-.193-.362 42.667 73.813c13.154 22.46 37.167 37.306 64.647 37.306 13.743 0 26.618-3.713 37.679-10.19l-.353.191 110.933-64c22.461-13.259 37.291-37.34 37.291-64.885 0-13.467-3.545-26.105-9.752-37.034l.194.372-42.667-73.813c-9.706-17.129-25.673-29.757-44.716-34.87l-.51-.117c-5.842-1.741-12.575-2.821-19.535-2.985l-.092-.002zM200.96 687.787h-2.987a9.86 9.86 0 01-6.374-5.065l-.026-.055-42.667-73.813c-.553-1.19-.876-2.584-.876-4.053s.323-2.863.901-4.114l-.025.061a9.86 9.86 0 015.065-6.374l.055-.026 110.933-64c1.19-.553 2.584-.876 4.053-.876s2.863.323 4.114.901l-.061-.025a9.841 9.841 0 015.113 2.979l.007.008 42.667 73.813a10.548 10.548 0 011.418 5.313 10.66 10.66 0 01-5.209 9.166l-.049.027-110.933 64a8.91 8.91 0 01-5.088 2.131l-.032.002zm622.08-543.574c-13.703.007-26.516 3.813-37.444 10.422l.324-.182-110.933 64c-17.066 9.779-29.664 25.715-34.866 44.709l-.121.518c-1.495 5.614-2.353 12.06-2.353 18.706 0 13.843 3.725 26.817 10.227 37.973l-.193-.359 42.667 73.813c9.706 17.129 25.673 29.757 44.716 34.87l.51.117c5.719 1.562 12.286 2.46 19.063 2.46 13.88 0 26.88-3.766 38.035-10.331l-.352.191 110.933-64c22.382-13.277 37.151-37.315 37.151-64.803 0-13.672-3.654-26.49-10.038-37.532l.193.362-42.667-73.813c-9.706-17.129-25.673-29.757-44.716-34.87l-.51-.117c-5.447-1.365-11.7-2.148-18.136-2.148-.524 0-1.047.005-1.568.016l.078-.001zM755.2 367.787h-2.987a9.86 9.86 0 01-6.374-5.065l-.026-.055-42.667-73.813c-.449-1.206-.709-2.599-.709-4.053s.26-2.847.735-4.136l-.027.083a11.59 11.59 0 015.067-6.371l.053-.029 110.933-64c1.19-.553 2.584-.876 4.053-.876s2.863.323 4.114.901l-.061-.025a9.86 9.86 0 016.374 5.065l.026.055 42.667 73.813a10.548 10.548 0 011.418 5.313 10.66 10.66 0 01-5.209 9.166l-.049.027-110.933 64c-.95.374-2.049.591-3.2.591s-2.25-.217-3.261-.612l.061.021zM200.533 144.213h-.067c-27.578 0-51.664 14.951-64.595 37.19l-.191.357-42.667 73.813c-6.191 10.68-9.845 23.499-9.845 37.17 0 27.488 14.769 51.526 36.805 64.612l.346.19 110.933 64c10.735 6.384 23.668 10.157 37.482 10.157 27.474 0 51.462-14.924 64.3-37.107l.191-.357 42.667-73.813c6.539-10.949 10.406-24.15 10.406-38.254a75.65 75.65 0 00-2.415-19.017l.116.525c-5.221-19.449-17.665-35.371-34.21-45.038l-.35-.189-110.933-64c-10.615-6.434-23.442-10.241-37.159-10.241l-.409.001h.021zM268.8 367.787c-.766.237-1.647.373-2.56.373s-1.794-.136-2.623-.39l.063.017-110.933-64c-3.168-1.888-5.258-5.297-5.258-9.193 0-1.956.526-3.788 1.445-5.364l-.027.051 42.667-73.813c1.888-3.168 5.297-5.258 9.193-5.258 1.956 0 3.788.526 5.364 1.445l-.051-.027 110.933 64c2.41 1.438 4.223 3.665 5.097 6.319l.023.081c.553 1.19.876 2.584.876 4.053s-.323 2.863-.901 4.114l.025-.061-43.947 72.533c-1.291 2.533-3.579 4.401-6.332 5.105l-.068.015zm285.867 261.546h-85.333c-41.237 0-74.667 33.429-74.667 74.667v128c0 41.237 33.429 74.667 74.667 74.667h85.333c41.14-.241 74.426-33.526 74.667-74.644V704c0-41.237-33.429-74.667-74.667-74.667zm-85.334 213.334c-5.891 0-10.667-4.776-10.667-10.667V704c0-5.891 4.776-10.667 10.667-10.667h85.333c5.891 0 10.667 4.776 10.667 10.667v128c0 5.891-4.776 10.667-10.667 10.667z"/><glyph unicode="" glyph-name="abstract-13" d="M512-10.667l-.464-.001c-19.027 0-36.831 5.233-52.052 14.338l.463-.257-307.2 177.493c-31.302 18.117-52.029 51.435-52.053 89.597v354.99c.025 38.165 20.752 71.483 51.558 89.335l.496.265 307.627 177.493c14.849 8.538 32.65 13.575 51.627 13.575s36.778-5.036 52.139-13.845l-.512.271 307.627-177.92c31.302-18.117 52.029-51.435 52.053-89.597V270.08c-.025-38.165-20.752-71.483-51.558-89.335l-.496-.265L563.628 2.987c-14.362-8.587-31.68-13.664-50.183-13.664-.507 0-1.014.004-1.52.011l.076-.001zm0 853.334h-.173a38.211 38.211 0 01-20.048-5.643l.167.095-307.2-175.787c-12.024-7.035-19.988-19.86-20.053-34.551V271.785c.066-14.7 8.03-27.525 19.864-34.458l.189-.102L492.373 59.732c5.65-3.227 12.416-5.13 19.627-5.13s13.977 1.903 19.824 5.234l-.198-.104 307.627 174.933c12.024 7.035 19.988 19.86 20.053 34.551v356.276c.01.327.015.712.015 1.098 0 14.773-7.987 27.68-19.879 34.64l-.19.103-307.627 176.213c-5.609 3.221-12.331 5.12-19.497 5.12h-.137.007zm0-716.8c-5.958.165-11.517 1.725-16.408 4.363l.195-.096-250.88 145.067c-9.663 5.653-16.082 15.929-16.213 27.715v290.152a32.473 32.473 0 0016.058 25.517l.155.083 250.88 145.067c4.609 2.617 10.124 4.159 16 4.159s11.391-1.542 16.163-4.245l-.163.085 251.307-145.067c9.663-5.653 16.082-15.929 16.213-27.715V300.8c-.132-11.804-6.55-22.081-16.06-27.65l-.153-.083L527.787 128c-3.64-1.466-7.86-2.316-12.279-2.316-1.235 0-2.455.066-3.656.196l.149-.013zM292.693 320L512 192l219.307 128v256L512 701.013 292.693 576zM512 344.747c-57.025 0-103.253 46.228-103.253 103.253S454.975 551.253 512 551.253 615.253 505.025 615.253 448 569.025 344.747 512 344.747zm0 142.506c-21.679 0-39.253-17.574-39.253-39.253s17.574-39.253 39.253-39.253 39.253 17.574 39.253 39.253-17.574 39.253-39.253 39.253z"/><glyph unicode="" glyph-name="abstract-14" d="M896 629.333H128c-41.237 0-74.667 33.429-74.667 74.667v85.333C53.333 830.57 86.762 864 128 864h768c41.14-.241 74.426-33.526 74.667-74.644V704c0-41.237-33.429-74.667-74.667-74.667zM128 800c-5.891 0-10.667-4.776-10.667-10.667V704c0-5.891 4.776-10.667 10.667-10.667h768c5.891 0 10.667 4.776 10.667 10.667v85.333c0 5.891-4.776 10.667-10.667 10.667zM896 32H128c-41.237 0-74.667 33.429-74.667 74.667V192c0 41.237 33.429 74.667 74.667 74.667h768c41.14-.241 74.426-33.526 74.667-74.644v-85.356C970.667 65.43 937.238 32 896 32zM128 202.667c-5.891 0-10.667-4.776-10.667-10.667v-85.333C117.333 100.776 122.109 96 128 96h768c5.891 0 10.667 4.776 10.667 10.667V192c0 5.891-4.776 10.667-10.667 10.667zm768 128H128c-41.237 0-74.667 33.429-74.667 74.667v85.333c0 41.237 33.429 74.667 74.667 74.667h768c41.14-.241 74.426-33.526 74.667-74.644v-85.356c0-41.237-33.429-74.667-74.667-74.667zM128 501.333c-5.891 0-10.667-4.776-10.667-10.667v-85.333c0-5.891 4.776-10.667 10.667-10.667h768c5.891 0 10.667 4.776 10.667 10.667v85.333c0 5.891-4.776 10.667-10.667 10.667z"/><glyph unicode="" glyph-name="abstract-15" d="M826.88-10.667c-10.675.026-20.794 2.381-29.884 6.584l.444-.184-75.52 33.707c-26.713 11.369-45.102 37.396-45.102 67.717 0 10.371 2.151 20.24 6.032 29.184l-.183-.474 17.067 37.973c16.858 34.851 26.711 75.795 26.711 119.04s-9.852 84.189-27.435 120.709l.724-1.669c-29.391 62.066-46.551 134.842-46.551 211.627s17.16 149.561 47.854 214.704l-1.303-3.077 16.64 37.973c8.566 18.093 23.65 31.929 42.147 38.661l.519.165c8.254 3.541 17.86 5.6 27.947 5.6s19.693-2.059 28.421-5.78l-.474.18 75.52-33.707c18.239-8.362 32.151-23.524 38.672-42.158l.155-.509c3.531-8.323 5.583-18.002 5.583-28.16s-2.052-19.837-5.764-28.645l.182.485-16.64-37.547c-16.775-34.867-26.576-75.809-26.576-119.04s9.801-84.173 27.302-120.725l-.726 1.685c29.499-62.046 46.725-134.825 46.725-211.627s-17.226-149.58-48.025-214.682l1.3 3.056-16.64-37.973c-8.566-18.093-23.65-31.929-42.147-38.661l-.519-.165c-7.7-2.706-16.577-4.269-25.82-4.269-.223 0-.445.001-.668.003h.034zm-42.667 853.334H780.8c-2.305-1.012-4.108-2.815-5.095-5.057l-.025-.063L759.04 800c-25.863-54.553-40.964-118.526-40.964-186.027s15.101-131.474 42.109-188.726l-1.145 2.699c20.364-42.437 32.261-92.256 32.261-144.853s-11.897-102.416-33.146-146.913l.885 2.059-17.067-37.547a9.633 9.633 0 01-.624-3.443 9.817 9.817 0 015.683-8.905l.061-.025 75.52-33.707c1.014-.388 2.188-.613 3.413-.613s2.399.225 3.481.635l-.067-.022c2.305 1.012 4.108 2.815 5.095 5.057l.025.063 17.067 37.973c25.855 54.487 40.952 118.387 40.952 185.813s-15.097 131.327-42.095 188.506l1.143-2.693c-20.364 42.437-32.261 92.256-32.261 144.853s11.897 102.416 33.146 146.913l-.885-2.059 16.64 37.547c.386 1.081.61 2.328.61 3.627s-.223 2.546-.634 3.704l.024-.078a11.605 11.605 0 01-5.055 5.09l-.065.03-75.52 33.707zM532.053-10.667c-10.821.03-21.085 2.384-30.329 6.588l.463-.188-75.52 33.707c-17.838 7.775-31.56 22.193-38.241 40.047l-.159.486c-3.643 8.305-5.763 17.985-5.763 28.16s2.12 19.855 5.943 28.622l-.18-.462 17.067 37.547c16.665 34.888 26.398 75.827 26.398 119.04s-9.734 84.152-27.128 120.746l.73-1.706c-29.499 62.046-46.725 134.825-46.725 211.627s17.226 149.58 48.025 214.682l-1.3-3.056 17.067 37.973c8.362 18.239 23.524 32.151 42.158 38.672l.509.155c8.323 3.531 18.002 5.583 28.16 5.583s19.837-2.052 28.645-5.764l-.485.182 75.947-35.413c25.889-11.587 43.601-37.121 43.601-66.792 0-10.894-2.388-21.23-6.668-30.514l.187.453-16.64-37.547c-16.775-34.867-26.576-75.809-26.576-119.04s9.801-84.173 27.302-120.725l-.726 1.685c29.499-62.046 46.725-134.825 46.725-211.627s-17.226-149.58-48.025-214.682l1.3 3.056-17.067-37.973C592.386 14.616 577.224.704 558.59-5.817l-.509-.155c-7.464-2.767-16.085-4.469-25.073-4.691l-.1-.002zm-3.84 64.854c1.062-.511 2.31-.809 3.627-.809s2.564.298 3.678.831l-.051-.022a7.717 7.717 0 015.102 4.641l.018.053 16.64 37.973c25.963 54.466 41.127 118.369 41.127 185.813s-15.163 131.347-42.267 188.485l1.14-2.672c-20.364 42.437-32.261 92.256-32.261 144.853s11.897 102.416 33.146 146.913l-.885-2.059 17.067 37.547a9.236 9.236 0 01.815 3.825 9.389 9.389 0 01-5.45 8.524l-.058.024-74.667 33.707c-1.081.386-2.328.61-3.627.61s-2.546-.223-3.704-.634l.078.024c-2.305-1.012-4.108-2.815-5.095-5.057l-.025-.063-16.64-37.547c-25.971-54.533-41.138-118.508-41.138-186.027s15.167-131.493 42.28-188.705l-1.142 2.678c20.364-42.437 32.261-92.256 32.261-144.853s-11.897-102.416-33.146-146.913l.885 2.059-17.067-37.547c-.511-1.062-.809-2.31-.809-3.627s.298-2.564.831-3.678l-.022.051a7.717 7.717 0 014.641-5.102l.053-.018zm-289.28-64.854h-.168c-10.762 0-20.974 2.358-30.147 6.585l.448-.185-75.52 33.707c-25.889 11.587-43.601 37.121-43.601 66.792 0 10.894 2.388 21.23 6.668 30.514l-.187-.453 16.64 37.547c16.775 34.867 26.576 75.809 26.576 119.04s-9.801 84.173-27.302 120.725l.726-1.685c-29.499 62.046-46.725 134.825-46.725 211.627s17.226 149.58 48.025 214.682l-1.3-3.056 14.933 37.973c8.566 18.093 23.65 31.929 42.147 38.661l.519.165c8.254 3.541 17.86 5.6 27.947 5.6s19.693-2.059 28.421-5.78l-.474.18 75.52-33.707c18.239-8.362 32.151-23.524 38.672-42.158l.155-.509c3.515-8.358 5.557-18.074 5.557-28.267 0-9.789-1.884-19.137-5.308-27.703l.178.503-17.067-37.973c-16.858-34.851-26.711-75.795-26.711-119.04s9.852-84.189 27.435-120.709l-.724 1.669c29.391-62.066 46.551-134.842 46.551-211.627s-17.16-149.561-47.854-214.704l1.303 3.077-16.64-37.973C299.06 14.758 283.976.922 265.479-5.81l-.519-.165c-7.732-2.9-16.667-4.614-25.992-4.693h-.035zm-3.84 64.854c1.062-.511 2.31-.809 3.627-.809s2.564.298 3.678.831l-.051-.022a7.717 7.717 0 015.102 4.641l.018.053 16.64 37.973c25.855 54.487 40.952 118.387 40.952 185.813s-15.097 131.327-42.095 188.506l1.143-2.693c-20.364 42.437-32.261 92.256-32.261 144.853s11.897 102.416 33.146 146.913l-.885-2.059 17.067 37.973c.427 1.009.676 2.182.676 3.413s-.248 2.404-.698 3.472l.022-.059a10.744 10.744 0 01-4.638 5.092l-.055.028-75.947 33.707c-1.014.388-2.188.613-3.413.613s-2.399-.225-3.481-.635l.067.022c-2.305-1.012-4.108-2.815-5.095-5.057l-.025-.063-17.92-37.547c-25.855-54.487-40.952-118.387-40.952-185.813s15.097-131.327 42.095-188.506l-1.143 2.693c20.364-42.437 32.261-92.256 32.261-144.853s-11.897-102.416-33.146-146.913l.885 2.059-16.64-37.547a9.236 9.236 0 01-.815-3.825 9.389 9.389 0 015.45-8.524l.058-.024z"/><glyph unicode="" glyph-name="abstract-16" d="M346.027 2.56c-76.655.411-149.215 17.506-214.373 47.833l3.173-1.326L96.854 64c-18.093 8.566-31.929 23.65-38.661 42.147l-.165.519c-3.541 8.254-5.6 17.86-5.6 27.947s2.059 19.693 5.78 28.421l-.18-.474 33.707 75.52c11.05 27.116 37.208 45.881 67.749 45.881 11.019 0 21.467-2.443 30.833-6.816l-.448.188 37.973-17.067c34.867-16.775 75.809-26.576 119.04-26.576s84.173 9.801 120.725 27.302l-1.685-.726c62.066 29.391 134.842 46.551 211.627 46.551s149.561-17.16 214.704-47.854l-3.077 1.303 37.973-16.64c18.036-8.491 31.775-23.619 38.245-42.155l.155-.512c3.643-8.305 5.763-17.985 5.763-28.16s-2.12-19.855-5.943-28.622l.18.462-33.707-75.52c-7.894-17.869-22.254-31.674-40.041-38.656l-.493-.17c-8.323-3.531-18.002-5.583-28.16-5.583s-19.837 2.052-28.645 5.764l.485-.182-37.547 16.64c-34.867 16.775-75.809 26.576-119.04 26.576s-84.173-9.801-120.725-27.302l1.685.726C497.5 18.89 425.223 2.549 349.129 2.549c-1.09 0-2.18.003-3.268.01l.167-.001zm-185.6 213.333a8.537 8.537 0 01-8.514-5.488l-.02-.059-33.707-73.813c-.537-.988-.853-2.164-.853-3.413s.316-2.425.872-3.452l-.019.038a7.717 7.717 0 014.641-5.102l.053-.018 37.973-17.067C215.34 81.664 279.24 66.567 346.666 66.567s131.327 15.097 188.506 42.095l-2.693-1.143c42.437 20.364 92.256 32.261 144.853 32.261s102.416-11.897 146.913-33.146l-2.059.885 37.547-16.64c1.081-.386 2.328-.61 3.627-.61s2.546.223 3.704.634l-.078-.024c2.305 1.012 4.108 2.815 5.095 5.057l.025.063 33.707 75.52c.511 1.062.809 2.31.809 3.627s-.298 2.564-.831 3.678l.022-.051a7.717 7.717 0 01-4.641 5.102l-.053.018-37.973 16.64c-54.487 25.855-118.387 40.952-185.813 40.952s-131.327-15.097-188.506-42.095l2.693 1.143c-42.437-20.364-92.256-32.261-144.853-32.261s-102.416 11.897-146.913 33.146l2.059-.885-37.547 16.64a6.3 6.3 0 01-2.594.549c-.441 0-.872-.045-1.287-.13l.041.007zm185.6 78.934c-76.655.411-149.215 17.506-214.373 47.833l3.173-1.326-37.973 17.067c-25.828 11.741-43.463 37.315-43.463 67.009 0 10.806 2.336 21.067 6.53 30.305l-.187-.461 33.707 78.08c11.741 25.828 37.315 43.463 67.009 43.463 10.806 0 21.067-2.336 30.305-6.53l-.461.187 37.547-17.067c34.888-16.665 75.827-26.398 119.04-26.398s84.152 9.734 120.746 27.128l-1.706-.73c62.081 29.31 134.856 46.421 211.627 46.421s149.546-17.111 214.719-47.726l-3.093 1.306 37.973-17.067c18.22-8.235 32.056-23.462 38.257-42.17l.143-.497c3.643-8.305 5.763-17.985 5.763-28.16s-2.12-19.855-5.943-28.622l.18.462-34.987-74.667c-7.775-17.838-22.193-31.56-40.047-38.241l-.486-.159c-8.305-3.643-17.985-5.763-28.16-5.763s-19.855 2.12-28.622 5.943l.462-.18-37.547 16.64c-34.867 16.775-75.809 26.576-119.04 26.576s-84.173-9.801-120.725-27.302l1.685.726c-61.858-28.038-134.13-44.377-210.219-44.377-.645 0-1.29.001-1.934.004h.099zm-227.84 136.106a9.236 9.236 0 01-.815-3.825 9.389 9.389 0 015.45-8.524l.058-.024 37.973-17.067c54.487-25.855 118.387-40.952 185.813-40.952s131.327 15.097 188.506 42.095l-2.693-1.143c42.437 20.364 92.256 32.261 144.853 32.261s102.416-11.897 146.913-33.146l-2.059.885 37.547-16.64c1.062-.511 2.31-.809 3.627-.809s2.564.298 3.678.831l-.051-.022a7.717 7.717 0 015.102 4.641l.018.053 33.707 75.52c.511 1.062.809 2.31.809 3.627s-.298 2.564-.831 3.678l.022-.051a7.717 7.717 0 01-4.641 5.102l-.053.018-37.973 16.64c-54.487 25.855-118.387 40.952-185.813 40.952s-131.327-15.097-188.506-42.095l2.693 1.143c-42.437-20.364-92.256-32.261-144.853-32.261s-102.416 11.897-146.913 33.146l2.059-.885-37.547 17.067c-1.062.511-2.31.809-3.627.809s-2.564-.298-3.678-.831l.051.022a7.717 7.717 0 01-5.102-4.641l-.018-.053zm227.84 159.574c-76.705.571-149.243 17.809-214.364 48.262l3.164-1.329-37.973 16.64c-25.828 11.741-43.463 37.315-43.463 67.009 0 10.806 2.336 21.067 6.53 30.305l-.187-.461 33.707 75.52c11.467 25.864 36.917 43.58 66.504 43.58 10.845 0 21.133-2.38 30.372-6.646l-.45.186 37.973-16.64c34.867-16.775 75.809-26.576 119.04-26.576s84.173 9.801 120.725 27.302l-1.685-.726c62.046 29.499 134.825 46.725 211.627 46.725s149.58-17.226 214.682-48.025l-3.056 1.3 37.973-16.64c25.767-11.892 43.328-37.507 43.328-67.224 0-10.72-2.285-20.906-6.395-30.098l.187.468-33.28-75.52c-8.566-18.093-23.65-31.929-42.147-38.661l-.519-.165c-8.254-3.541-17.86-5.6-27.947-5.6s-19.693 2.059-28.421 5.78l.474-.18-37.973 17.067c-34.867 16.775-75.809 26.576-119.04 26.576s-84.173-9.801-120.725-27.302l1.685.726c-61.831-28.261-134.052-45.008-210.114-45.652l-.232-.002zm-227.84 134.4a9.236 9.236 0 01-.815-3.825 9.389 9.389 0 015.45-8.524l.058-.024 37.973-16.64c54.487-25.855 118.387-40.952 185.813-40.952s131.327 15.097 188.506 42.095l-2.693-1.143c42.437 20.364 92.256 32.261 144.853 32.261s102.416-11.897 146.913-33.146l-2.059.885 37.547-17.067c1.077-.42 2.323-.664 3.627-.664s2.55.244 3.697.688l-.07-.024c2.388.882 4.238 2.732 5.101 5.061l.019.059 33.707 75.52a8.826 8.826 0 01.794 3.687 8.96 8.96 0 01-5.429 8.237l-.058.022-37.973 17.92c-54.487 25.855-118.387 40.952-185.813 40.952s-131.327-15.097-188.506-42.095l2.693 1.143c-42.437-20.364-92.256-32.261-144.853-32.261s-102.416 11.897-146.913 33.146l2.059-.885-37.547 16.64a9.236 9.236 0 01-3.825.815 9.389 9.389 0 01-8.524-5.45l-.024-.058z"/><glyph unicode="" glyph-name="abstract-17" d="M222.293 109.653h-67.008c-19.129 0-36.386 8.018-48.592 20.877l-.028.029c-11.404 11.614-18.443 27.548-18.443 45.125 0 1.236.035 2.465.104 3.684l-.008-.169c20.183 374.048 318.432 672.297 690.63 692.4l1.85.08c.764.031 1.66.049 2.56.049 36.996 0 66.987-29.991 66.987-66.987v-.052.003-66.987l.002-.558c0-36.909-28.752-67.103-65.081-69.406l-.202-.01C520.343 649.982 310.013 439.652 292.35 176.539l-.086-1.608c-2.533-36.572-32.822-65.28-69.816-65.28h-.166.009zm564.054 695.04c-172.332-5.728-326.772-77.881-439.421-191.527l-.046-.047C233.813 500.487 161.126 347.39 152.386 177.394l-.066-1.608 69.973-2.133h.061a5.975 5.975 0 015.908 5.088l.004.033c9.32 149.252 72.746 282.115 170.694 380.614l-.027-.027c98.472 97.921 231.335 161.347 378.891 170.582l1.695.085a5.552 5.552 0 015.119 5.994l.001-.02zM729.6 24.32h-68.267c-20.053.124-38.012 8.985-50.281 22.964l-.066.076c-9.121 11.243-14.644 25.728-14.644 41.503 0 4.03.36 7.975 1.051 11.806l-.06-.402c8.951 69.487 39.843 130.496 85.392 177.127l-.058-.06c46.57 45.491 107.58 76.383 175.521 85.17l1.545.163c2.907.462 6.26.726 9.674.726 16.638 0 31.813-6.265 43.294-16.566l-.061.054c14.055-12.334 22.916-30.293 23.04-50.325v-68.289c-.27-33.835-24.082-62.032-55.848-69.033l-.472-.087c-40.295-9.188-71.452-40.345-80.503-79.927l-.137-.713c-7.922-31.334-35.852-54.158-69.117-54.187h-.003zm0 206.933c-37.013-36.525-62.421-84.728-70.243-138.629l-.157-1.318 71.253-2.987c3.84 0 5.973 4.267 6.827 6.827 7.57 32.593 23.603 60.69 45.655 82.775l-.002-.002c21.997 22.185 50.133 38.251 81.648 45.438l1.125.216c2.987 0 6.827 3.413 6.827 6.827v68.267c-56.696-4.57-106.829-29.494-143.74-67.365l-.047-.048zM476.16 66.987h-68.447c-19.161 0-36.406 8.202-48.417 21.286l-.043.048c-11.217 12.127-18.096 28.408-18.096 46.296 0 1.726.064 3.437.19 5.13l-.013-.226C361.769 395.506 564.495 598.232 818.65 618.55l1.83.118c1.421.105 3.079.164 4.751.164 17.935 0 34.264-6.873 46.498-18.129l-.049.044c13.132-12.054 21.334-29.299 21.334-48.46v-.19.01-67.413c.002-.215.004-.469.004-.723 0-35.922-27.402-65.443-62.444-68.802l-.28-.022c-76.265-7.431-143.518-41.089-193.684-91.71l-.023-.023c-50.644-50.189-84.302-117.442-91.631-192.415l-.102-1.292c-3.38-35.321-32.902-62.724-68.823-62.724-.254 0-.508.001-.762.004h.039zm349.013 487.68c-224.37-17.75-402.09-195.47-419.739-418.25l-.101-1.59 2.56-3.84h67.413l.138-.002a5.975 5.975 0 015.827 4.655l.008.04c8.778 91.711 49.194 172.618 110.052 232.933l.028.027c60.285 60.975 141.224 101.417 231.452 109.965l1.508.115c2.56 0 4.693 2.987 4.693 5.973v67.413zm-211.2-208.64z"/><glyph unicode="" glyph-name="abstract-18" d="M768-10.667H256c-40.026.656-72.22 33.257-72.22 73.377 0 16.57 5.492 31.858 14.755 44.142l-.135-.186 221.013 275.627c21.92 27.21 55.237 44.473 92.587 44.473s70.667-17.263 92.409-44.245l.178-.228L825.6 106.666c9.128-12.098 14.62-27.385 14.62-43.956 0-40.12-32.195-72.721-72.159-73.377l-.062-.001zM512 362.667c-17.197-.055-32.53-7.988-42.586-20.378l-.08-.102L248.321 67.84c-.791-1.346-1.258-2.965-1.258-4.693s.467-3.347 1.282-4.738l-.024.044c1.35-3.042 4.343-5.125 7.823-5.125.1 0 .199.002.298.005h511.559a8.535 8.535 0 018.085 5.065l.022.054c.833 1.335 1.328 2.957 1.328 4.693s-.494 3.358-1.35 4.731l.022-.038-221.44 275.627c-10.154 11.789-25.1 19.207-41.778 19.207-.312 0-.624-.003-.935-.008l.047.001zm0 104.106c-.495-.007-1.08-.012-1.666-.012-36.474 0-69.088 16.522-90.768 42.49l-.153.188L198.4 789.332c-9.128 12.098-14.62 27.385-14.62 43.956 0 40.12 32.195 72.721 72.159 73.377l.062.001h512c40.026-.656 72.22-33.257 72.22-73.377 0-16.57-5.492-31.858-14.755-44.142l.135.186-221.013-275.627c-21.682-27.708-55.042-45.415-92.548-45.653h-.039zM256 842.667a8.535 8.535 0 01-8.085-5.065l-.022-.054c-.833-1.335-1.328-2.957-1.328-4.693s.494-3.358 1.35-4.731l-.022.038 221.44-275.627c10.387-12.006 25.645-19.557 42.667-19.557s32.279 7.551 42.607 19.486l.06.071 220.587 275.627c.833 1.335 1.328 2.957 1.328 4.693s-.494 3.358-1.35 4.731l.022-.038c-1.269 2.875-4.001 4.893-7.226 5.118l-.027.002zm544.853-34.56z"/><glyph unicode="" glyph-name="abstract-19" d="M961.707 133.12L768 471.893 570.453 810.666c-11.856 20.362-33.582 33.831-58.453 33.831s-46.597-13.469-58.281-33.51l-.173-.321-195.413-338.773L62.293 133.12c-5.678-9.669-9.032-21.296-9.032-33.707C53.261 62.182 83.443 32 120.674 32h782.651c37.231 0 67.413 30.182 67.413 67.413 0 12.41-3.354 24.038-9.204 34.025l.172-.318zM515.84 777.813l166.827-289.707H341.334l167.253 289.707c.765 1.22 2.103 2.019 3.627 2.019s2.862-.799 3.616-2.001l.01-.018zm166.827-353.706L512 128 341.333 424.107zM120.747 96l-2.987 5.12 168.107 290.987L456.534 96zm782.506 0H567.466l170.667 296.107L906.24 101.12z"/><glyph unicode="" glyph-name="abstract-20" d="M968.96 483.84c-19.565 237.124-216.552 422.237-456.901 422.827H512c-608.427-25.173-608.427-892.16 0-917.333 240.409.59 437.396 185.704 456.85 421.17l.11 1.657c1.087 10.744 1.707 23.22 1.707 35.84s-.62 25.096-1.831 37.397l.124-1.557zM512 53.333c-217.87.243-394.424 176.796-394.667 394.643V448c-5.973 298.667 343.893 497.493 597.333 338.773-28.022 7.961-60.204 12.538-93.455 12.538-194.676 0-352.707-156.895-354.544-351.137l-.001-.174C268.569 253.634 426.575 96.805 621.21 96.805c33.096 0 65.133 4.535 95.524 13.016l-2.494-.594c-57.706-35.11-127.484-55.893-202.117-55.893h-.13.007zm0 576c100.148 0 181.333-81.186 181.333-181.333S612.147 266.667 512 266.667c-100.148 0-181.333 81.186-181.333 181.333S411.853 629.333 512 629.333zm-52.907-421.12c15.883-3.661 34.121-5.76 52.849-5.76 135.494 0 245.333 109.839 245.333 245.333S647.436 693.119 511.942 693.119c-18.728 0-36.967-2.099-54.492-6.073l1.643.313c44.729 30.073 99.806 48 159.069 48 158.822 0 287.573-128.751 287.573-287.573S776.984 160.213 618.162 160.213c-59.264 0-114.34 17.927-160.103 48.654l1.034-.654z"/><glyph unicode="" glyph-name="abstract-21" d="M989.44 533.333c.042 2.058.065 4.484.065 6.915 0 198.882-158.965 360.635-356.767 365.131l-.418.008c-130.73-1.063-244.528-72.543-305.432-178.33l-.915-1.724c-71.755-15.958-133.689-50.965-182.189-99.416l.003.003C76.36 558.493 34.656 465.343 34.656 362.453c0-205.78 166.818-372.598 372.598-372.598 102.89 0 196.04 41.704 263.467 109.131a366.262 366.262 0 0158.796 76.323l.937 1.757c151.393 48.8 258.999 188.439 258.999 353.212 0 1.074-.005 2.147-.014 3.22l.001-.164zM632.32 225.707c-163.012 4.012-293.626 137.11-293.626 300.714 0 2.43.029 4.854.086 7.271l-.007-.359V550.4c.029.51.045 1.106.045 1.707 0 17.698-14.347 32.045-32.045 32.045-17.098 0-31.068-13.39-31.996-30.256l-.004-.082v-20.48a348.63 348.63 0 01-.057-6.48c0-199.029 159.201-360.875 357.207-365.14l.397-.007H640c-5.342-6.903-10.65-13.022-16.272-18.835l.059.061c-55.638-54.753-132.031-88.558-216.32-88.558-170.369 0-308.48 138.111-308.48 308.48s138.111 308.48 308.48 308.48c170.369 0 308.48-138.111 308.48-308.48v-.199.01c0-17.673 14.327-32 32-32s32 14.327 32 32v.006c0 204.729-165.36 370.837-369.805 372.047l-.115.001c52.927 65.073 132.669 106.572 222.134 107.519l.159.001c162.883-4.467 293.221-137.573 293.221-301.12 0-2.738-.037-5.467-.109-8.188l.008.401c.039-1.807.061-3.936.061-6.07 0-163.448-130.364-296.448-292.788-300.695l-.393-.008z"/><glyph unicode="" glyph-name="abstract-22" d="M844.373 528.213c-12.762 22.324-36.429 37.125-63.553 37.125-.307 0-.614-.002-.92-.006H543.999v240.64c-.159 40.175-32.763 72.681-72.959 72.681-26.836 0-50.289-14.489-62.961-36.071l-.186-.343L179.2 442.026c-6.063-10.555-9.638-23.207-9.638-36.694 0-41.176 33.33-74.567 74.482-74.666h235.957V90.026c.544-32.985 23.155-60.541 53.684-68.581l.502-.112c5.755-1.614 12.366-2.548 19.193-2.56h.007c26.773.035 50.123 14.655 62.534 36.34l.186.353L844.8 455.679c5.898 10.332 9.376 22.706 9.376 35.891 0 13.489-3.639 26.128-9.99 36.989l.188-.347zm-600.32-133.546h-.039a11.085 11.085 0 00-9.322 5.077l-.026.043c-.825 1.547-1.309 3.384-1.309 5.333s.484 3.786 1.339 5.396l-.03-.062 228.693 399.787c1.152 2.386 3.315 4.128 5.917 4.683l.056.01h2.56c3.901-.632 6.844-3.976 6.844-8.008a8.35 8.35 0 00-.018-.55l.001.025V395.094zm545.28 90.88L560.64 85.76c-1.594-2.627-4.438-4.356-7.686-4.356a8.96 8.96 0 00-8.953 8.605l-.001.017v411.307h235.986c3.909 0 7.346-2.022 9.322-5.077l.026-.043c.825-1.547 1.309-3.384 1.309-5.333s-.484-3.786-1.339-5.396l.03.062z"/><glyph unicode="" glyph-name="abstract-23" d="M966.827 557.653c-10.268 31.683-39.518 54.189-74.024 54.189l-.678-.003H658.773l-72.107 220.16c-10.543 31.756-39.978 54.254-74.667 54.254s-64.123-22.499-74.507-53.7l-.16-.554-72.107-220.16H131.838l-.446.001c-43.358 0-78.507-35.149-78.507-78.507 0-26.052 12.689-49.139 32.224-63.42l.222-.155 189.013-136.96-72.107-221.867c-3.052-8.052-4.819-17.361-4.819-27.083 0-43.358 35.149-78.507 78.507-78.507 17.931 0 34.457 6.011 47.675 16.128l-.188-.138 188.587 139.093L700.586 21.331c12.876-9.608 29.102-15.383 46.677-15.383 43.358 0 78.507 35.149 78.507 78.507 0 8.86-1.468 17.378-4.174 25.323l.164-.553-72.107 221.867 189.013 138.667c19.637 14.271 32.257 37.163 32.257 63.002 0 8.909-1.5 17.467-4.262 25.437l.164-.545zm-469.334 256c1.591 6.162 7.099 10.64 13.653 10.64s12.063-4.479 13.632-10.542l.021-.098 65.707-202.24H432.639zm-85.333-266.24h200.533l61.867-190.72L512 239.36 349.867 357.12zm-288.427-26.026c-3.476 2.678-5.694 6.841-5.694 11.523 0 7.913 6.336 14.347 14.212 14.504h213.348l-50.347-150.613zM285.867 75.093c-2.351-1.972-5.409-3.17-8.747-3.17s-6.396 1.198-8.768 3.187l.021-.017c-3.656 2.488-6.026 6.629-6.026 11.324a13.6 13.6 0 00.938 4.982l-.032-.093 65.707 201.813 128-93.44zm474.88 16.214c.511-1.42.806-3.059.806-4.767 0-8.012-6.495-14.507-14.507-14.507-3.374 0-6.48 1.152-8.944 3.084l.032-.024L567.467 199.68l128 93.44zm139.946 430.506L730.026 396.8l-50.347 151.04h213.333c7.891-.157 14.227-6.591 14.227-14.504 0-4.682-2.218-8.845-5.66-11.498l-.034-.025z"/><glyph unicode="" glyph-name="abstract-24" d="M737.707 581.547c9.435 5.806 15.662 16.029 15.787 27.715v174.135c0 39.352-31.901 71.253-71.253 71.253-13.031 0-25.245-3.498-35.754-9.606l.34.183L512 767.574l-134.827 77.653c-10.169 5.925-22.382 9.423-35.413 9.423-39.352 0-71.253-31.901-71.253-71.253v-.039.002-174.08c.125-11.704 6.352-21.927 15.645-27.652l.142-.081L495.787 460.8c4.582-2.683 10.089-4.268 15.966-4.268l.261.001h-.013a29.304 29.304 0 0115.914 4.34l-.128-.073zm-58.88 207.786c1.04.611 2.291.972 3.627.972s2.586-.361 3.661-.99l-.034.019c2.068-1.089 3.454-3.223 3.454-5.682a6.59 6.59 0 00-.043-.748l.003.03v-154.88l-145.493-85.333v169.387zm-344.32-6.4a6.4 6.4 0 003.379 6.383l.035.017c1.04.611 2.291.972 3.627.972s2.586-.361 3.661-.99l-.034.019 134.827-77.653V541.014l-145.493 85.333zm600.32-313.6l-150.613 85.333c-4.557 2.823-10.083 4.496-16 4.496s-11.443-1.673-16.132-4.572l.132.076-209.493-119.467c-9.735-5.394-16.216-15.608-16.216-27.335l.003-.42v.021-241.92a24.467 24.467 0 01-.003-.399c0-11.727 6.481-21.94 16.057-27.254l.159-.081 150.613-85.333c10.177-6.168 22.476-9.818 35.627-9.818s25.45 3.65 35.938 9.993l-.311-.175c21.559 12.416 35.841 35.332 35.841 61.582l-.001.3v-.015 153.6l134.4 78.08c21.63 12.399 35.966 35.352 35.966 61.653s-14.336 49.254-35.621 61.471l-.345.183zm-202.24-362.666c-1.04-.611-2.291-.972-3.627-.972s-2.586.361-3.661.99l.034-.019-134.827 77.653v170.667l145.92-85.333V114.346a7.25 7.25 0 00-3.8-7.66l-.04-.019zM903.253 401.92L768 323.413l-145.92 85.333L768 490.666l134.4-78.08c2.302-1.246 3.84-3.644 3.84-6.4a6.854 6.854 0 00-3.379-4.676l-.035-.018zm-421.546 33.707l-209.92 120.747c-4.557 2.823-10.083 4.496-16 4.496s-11.443-1.673-16.132-4.572l.132.076-151.04-85.333c-21.396-12.561-35.534-35.456-35.534-61.653s14.137-49.092 35.199-61.472l.334-.182 134.827-78.08V114.347l-.001-.284c0-26.251 14.281-49.166 35.498-61.4l.343-.182c10.177-6.168 22.476-9.818 35.627-9.818s25.45 3.65 35.938 9.993l-.311-.175 150.613 85.333c9.735 5.394 16.216 15.608 16.216 27.335l-.003.42v-.021 239.787c.063.743.099 1.607.099 2.48 0 11.766-6.524 22.007-16.151 27.306l-.161.081zm-364.374-30.294a6.823 6.823 0 003.381 6.382l.033.017L256 490.665l145.92-85.333L256 323.412l-135.253 78.08a6.434 6.434 0 00-3.4 3.795l-.013.045zm181.334-298.666c-1.04-.611-2.291-.972-3.627-.972s-2.586.361-3.661.99l.034-.019c-2.302 1.246-3.84 3.644-3.84 6.4v154.88l145.92 85.333V182.612z"/><glyph unicode="" glyph-name="abstract-25" d="M298.667 64c-21.535.084-41.685 5.935-59.009 16.087l.555-.301-128 73.813c-35.035 20.886-58.199 58.483-58.453 101.51v150.224c.163 43.088 23.359 80.721 57.908 101.247l.545.3 90.453 50.773c4.371 2.387 9.575 3.791 15.107 3.791 11.675 0 21.89-6.252 27.479-15.591l.081-.146c2.542-4.448 4.041-9.777 4.041-15.455 0-11.533-6.184-21.622-15.417-27.132l-.144-.08L143.786 448c-14.967-8.884-25.154-24.458-26.443-42.494l-.01-.172V257.281c.086-19.532 10.575-36.596 26.208-45.944l.245-.136 128-73.813c7.669-4.413 16.864-7.016 26.667-7.016s18.997 2.603 26.931 7.156l-.264-.14 96 54.613c4.59 2.694 10.109 4.284 16 4.284 17.683 0 32.018-14.335 32.018-32.018 0-11.792-6.375-22.096-15.867-27.652l-.151-.082-96-55.467c-16.674-10.28-36.78-16.563-58.316-17.064l-.138-.003zM844.8 60.587c-9.771-5.832-21.549-9.28-34.133-9.28s-24.363 3.448-34.443 9.451l.31-.171c-20.481 11.983-34.042 33.838-34.133 58.867v.013c.091 25.042 13.652 46.897 33.811 58.706l.322.174c9.771 5.832 21.549 9.28 34.133 9.28s24.363-3.448 34.443-9.451l-.31.171c20.481-11.983 34.042-33.838 34.133-58.867v-.013c-.252-24.878-13.772-46.541-33.811-58.279l-.322-.174zM698.453 181.333L911.786 304.64c35.085 20.525 58.394 57.833 58.879 100.624l.001.069V652.8c-.097 43.33-23.496 81.173-58.326 101.672l-.554.301-213.333 122.88c-16.839 9.843-37.074 15.654-58.667 15.654s-41.828-5.811-59.227-15.955l.56.301-213.333-122.88c-35.154-20.958-58.359-58.745-58.453-101.96V405.332c.163-43.088 23.359-80.721 57.908-101.247l.545-.3 213.333-123.307c16.333-8.883 35.767-14.105 56.421-14.105.865 0 1.727.009 2.588.027l-.128-.002.413-.001c21.347 0 41.362 5.701 58.606 15.662l-.566-.302zm-32 640l213.333-122.88c16.168-9.46 26.861-26.732 26.88-46.504V405.333c-.088-19.634-10.771-36.754-26.624-45.943l-.256-.137-213.333-123.307c-7.669-4.413-16.864-7.016-26.667-7.016s-18.997 2.603-26.931 7.156l.264-.14-213.333 123.307c-15.879 9.484-26.368 26.548-26.453 46.068V652.8c.107 19.65 10.574 36.831 26.213 46.37l.24.136 213.333 122.88c7.722 4.491 16.979 7.173 26.857 7.253h.023c9.759-.032 18.883-2.723 26.693-7.386l-.24.133z"/><glyph unicode="" glyph-name="abstract-26" d="M512-10.667l-.466-.001c-19.966 0-39.016 3.918-56.425 11.028l.997-.36-350.293 140.373c-30.881 12.621-52.244 42.429-52.244 77.227s21.363 64.606 51.689 77.026l.555.201c3.763 1.681 8.154 2.66 12.774 2.66 13.567 0 25.163-8.443 29.818-20.362l.075-.218c1.475-3.522 2.331-7.614 2.331-11.907 0-14.316-9.528-26.406-22.588-30.276l-.223-.057c-7.068-2.939-11.947-9.789-11.947-17.777l.001-.15v.008a18.837 18.837 0 01-.005-.43c0-7.914 4.896-14.683 11.825-17.445l.127-.045 350.72-139.947c9.468-3.939 20.467-6.227 32-6.227s22.532 2.288 32.567 6.435l-.567-.207 353.28 140.8c7.055 2.807 11.952 9.577 11.952 17.49 0 .151-.002.302-.005.452v-.022a19.22 19.22 0 01-11.82 17.02l-.127.047c-12.198 4.555-20.727 16.107-20.727 29.652 0 4.717 1.034 9.192 2.888 13.211l-.081-.196c4.73 12.137 16.325 20.58 29.893 20.58 4.62 0 9.011-.979 12.978-2.741l-.204.081c30.881-12.621 52.244-42.429 52.244-77.227s-21.363-64.606-51.689-77.026l-.555-.201L567.895.002c-16.411-6.749-35.462-10.667-55.427-10.667l-.491.001h.025zm0 230.4c-20.174.105-39.369 4.172-56.887 11.46l.994-.367-350.293 139.947C74.933 383.394 53.57 413.202 53.57 448s21.363 64.606 51.689 77.026l.555.201 42.667 16.64c3.801 1.72 8.241 2.722 12.916 2.722 13.43 0 24.927-8.273 29.674-20.001l.077-.215c1.594-3.702 2.521-8.011 2.521-12.536 0-13.592-8.363-25.231-20.224-30.052l-.217-.078-42.667-16.64c-7.055-2.807-11.952-9.577-11.952-17.49 0-.151.002-.302.005-.452v.022l-.001-.143c0-7.989 4.879-14.838 11.82-17.731l.127-.047 350.72-139.947c9.468-3.939 20.467-6.227 32-6.227s22.532 2.288 32.567 6.435l-.567-.207L896 430.08c7.068 2.939 11.947 9.789 11.947 17.777l-.001.15v-.008c.003.128.005.279.005.43 0 7.914-4.896 14.683-11.825 17.445l-.127.045-42.667 16.64c-12.02 4.816-20.355 16.368-20.355 29.867 0 17.722 14.367 32.089 32.089 32.089 4.223 0 8.256-.816 11.949-2.299l-.216.077 42.667-17.067c30.881-12.621 52.244-42.429 52.244-77.227s-21.363-64.606-51.689-77.026l-.555-.201-350.293-139.947c-16.756-7.018-36.227-11.094-56.651-11.094l-.551.001h.028zM512 448c-20.174.105-39.369 4.172-56.887 11.46l.994-.367-350.293 142.08C74.933 613.794 53.57 643.602 53.57 678.4s21.363 64.606 51.689 77.026l.555.201L456.107 896c16.552 6.784 35.763 10.722 55.893 10.722s39.341-3.938 56.904-11.086l-1.01.364 350.293-140.373c30.881-12.621 52.244-42.429 52.244-77.227s-21.363-64.606-51.689-77.026l-.555-.201-350.293-139.947c-16.384-7.6-35.479-12.387-55.594-13.217l-.299-.01zm-32 70.4c9.468-3.939 20.467-6.227 32-6.227s22.532 2.288 32.567 6.435l-.567-.207 352 142.933c7.068 2.939 11.947 9.789 11.947 17.777l-.001.15v-.008c-.18 7.743-5.022 14.312-11.82 17.022l-.127.045-352 140.373c-9.468 3.939-20.467 6.227-32 6.227s-22.532-2.288-32.567-6.435l.567.207-352-140.373c-7.055-2.807-11.952-9.577-11.952-17.49 0-.151.002-.302.005-.452v.022a19.22 19.22 0 0111.82-17.02l.127-.047z"/><glyph unicode="" glyph-name="abstract-27" d="M930.987 500.907l-366.08 366.08c-13.475 13.682-32.201 22.159-52.907 22.159s-39.432-8.477-52.897-22.149L93.014 500.908c-13.475-13.57-21.803-32.266-21.803-52.907s8.328-39.337 21.807-52.911L459.094 29.014C472.589 15.36 491.3 6.886 511.989 6.827H512c20.701.059 39.411 8.533 52.9 22.179l366.087 366.087c13.682 13.475 22.159 32.201 22.159 52.907s-8.477 39.432-22.149 52.897l-.009.009zM504.32 821.76c1.943 2.014 4.665 3.264 7.68 3.264s5.737-1.251 7.677-3.261L637.44 704 426.667 493.227l-125.44 125.44zM512 407.893L471.893 448 512 488.107 552.107 448zM138.24 455.68L256 573.44l210.773-210.773-125.44-125.44L138.24 440.32c-2.014 1.943-3.264 4.665-3.264 7.68s1.251 5.737 3.261 7.677l.003.003zM519.68 74.24c-1.595-2.621-4.436-4.345-7.68-4.345s-6.085 1.724-7.658 4.305l-.022.04L386.56 192l210.773 210.773 125.44-125.44zm366.08 366.08L768 322.56 557.227 533.333l125.44 125.44L885.76 455.68c2.014-1.943 3.264-4.665 3.264-7.68s-1.251-5.737-3.261-7.677l-.003-.003z"/><glyph unicode="" glyph-name="abstract-28" d="M277.333 458.667c-123.712 0-224 100.288-224 224s100.288 224 224 224 224-100.288 224-224c-.242-123.614-100.386-223.758-223.977-224h-.023zm0 384c-88.366 0-160-71.634-160-160s71.634-160 160-160 160 71.634 160 160-71.634 160-160 160zM746.667-10.667c-123.712 0-224 100.288-224 224s100.288 224 224 224 224-100.288 224-224c-.242-123.614-100.386-223.758-223.977-224h-.023zm0 384c-88.366 0-160-71.634-160-160s71.634-160 160-160 160 71.634 160 160-71.634 160-160 160zm-469.334-384c-123.712 0-224 100.288-224 224s100.288 224 224 224 224-100.288 224-224c-.242-123.614-100.386-223.758-223.977-224h-.023zm0 384c-88.366 0-160-71.634-160-160s71.634-160 160-160 160 71.634 160 160-71.634 160-160 160zm469.334 85.334c-123.712 0-224 100.288-224 224s100.288 224 224 224 224-100.288 224-224c-.242-123.614-100.386-223.758-223.977-224h-.023zm0 384c-88.366 0-160-71.634-160-160s71.634-160 160-160 160 71.634 160 160-71.634 160-160 160z"/><glyph unicode="" glyph-name="abstract-29" d="M213.333 608c-76.583 0-138.667 62.083-138.667 138.667s62.083 138.667 138.667 138.667c76.583 0 138.667-62.083 138.667-138.667-.242-76.486-62.181-138.425-138.643-138.667h-.023zm0 213.333c-41.237 0-74.667-33.429-74.667-74.667s33.429-74.667 74.667-74.667c41.237 0 74.667 33.429 74.667 74.667-.241 41.14-33.526 74.426-74.644 74.667h-.023zM810.667 10.667C734.084 10.667 672 72.75 672 149.334s62.083 138.667 138.667 138.667c76.583 0 138.667-62.083 138.667-138.667-.242-76.486-62.181-138.425-138.643-138.667h-.023zm0 213.333C769.43 224 736 190.571 736 149.333s33.429-74.667 74.667-74.667c41.237 0 74.667 33.429 74.667 74.667-.241 41.14-33.526 74.426-74.644 74.667h-.023zM512 10.667c-76.583 0-138.667 62.083-138.667 138.667S435.416 288.001 512 288.001c76.583 0 138.667-62.083 138.667-138.667-.242-76.486-62.181-138.425-138.643-138.667h-.023zM512 224c-41.237 0-74.667-33.429-74.667-74.667S470.762 74.666 512 74.666c41.237 0 74.667 33.429 74.667 74.667-.241 41.14-33.526 74.426-74.644 74.667H512zM213.333 10.667c-76.583 0-138.667 62.083-138.667 138.667s62.083 138.667 138.667 138.667c76.583 0 138.667-62.083 138.667-138.667-.242-76.486-62.181-138.425-138.643-138.667h-.023zm0 213.333c-41.237 0-74.667-33.429-74.667-74.667s33.429-74.667 74.667-74.667c41.237 0 74.667 33.429 74.667 74.667-.241 41.14-33.526 74.426-74.644 74.667h-.023zm597.334 85.333C734.084 309.333 672 371.416 672 448s62.083 138.667 138.667 138.667c76.583 0 138.667-62.083 138.667-138.667-.242-76.486-62.181-138.425-138.643-138.667h-.023zm0 213.334C769.43 522.667 736 489.238 736 448s33.429-74.667 74.667-74.667c41.237 0 74.667 33.429 74.667 74.667-.241 41.14-33.526 74.426-74.644 74.667h-.023zM512 309.333c-76.583 0-138.667 62.083-138.667 138.667S435.416 586.667 512 586.667c76.583 0 138.667-62.083 138.667-138.667-.242-76.486-62.181-138.425-138.643-138.667h-.023zm0 213.334c-41.237 0-74.667-33.429-74.667-74.667s33.429-74.667 74.667-74.667c41.237 0 74.667 33.429 74.667 74.667-.241 41.14-33.526 74.426-74.644 74.667H512zM213.333 309.333c-76.583 0-138.667 62.083-138.667 138.667s62.083 138.667 138.667 138.667C289.916 586.667 352 524.584 352 448c-.242-76.486-62.181-138.425-138.643-138.667h-.023zm0 213.334c-41.237 0-74.667-33.429-74.667-74.667s33.429-74.667 74.667-74.667C254.57 373.333 288 406.762 288 448c-.241 41.14-33.526 74.426-74.644 74.667h-.023zM810.667 608C734.084 608 672 670.083 672 746.667s62.083 138.667 138.667 138.667c76.583 0 138.667-62.083 138.667-138.667-.242-76.486-62.181-138.425-138.643-138.667h-.023zm0 213.333c-41.237 0-74.667-33.429-74.667-74.667s33.429-74.667 74.667-74.667c41.237 0 74.667 33.429 74.667 74.667-.241 41.14-33.526 74.426-74.644 74.667h-.023zM512 608c-76.583 0-138.667 62.083-138.667 138.667S435.416 885.334 512 885.334c76.583 0 138.667-62.083 138.667-138.667-.242-76.486-62.181-138.425-138.643-138.667h-.023zm0 213.333c-41.237 0-74.667-33.429-74.667-74.667s33.429-74.667 74.667-74.667c41.237 0 74.667 33.429 74.667 74.667-.241 41.14-33.526 74.426-74.644 74.667H512z"/><glyph unicode="" glyph-name="abstract-30" d="M170.667 672c-64.801 0-117.333 52.532-117.333 117.333s52.532 117.333 117.333 117.333S288 854.134 288 789.333 235.468 672 170.667 672zm0 170.667c-29.455 0-53.333-23.878-53.333-53.333s23.878-53.333 53.333-53.333S224 759.879 224 789.334s-23.878 53.333-53.333 53.333zM853.333-10.667C788.532-10.667 736 41.865 736 106.666s52.532 117.333 117.333 117.333 117.333-52.532 117.333-117.333S918.134-10.667 853.333-10.667zm0 170.667C823.878 160 800 136.122 800 106.667s23.878-53.333 53.333-53.333 53.333 23.878 53.333 53.333S882.788 160 853.333 160zM512-10.667c-64.801 0-117.333 52.532-117.333 117.333S447.199 223.999 512 223.999s117.333-52.532 117.333-117.333S576.801-10.667 512-10.667zM512 160c-29.455 0-53.333-23.878-53.333-53.333S482.545 53.334 512 53.334s53.333 23.878 53.333 53.333S541.455 160 512 160zM170.667-10.667c-64.801 0-117.333 52.532-117.333 117.333s52.532 117.333 117.333 117.333S288 171.467 288 106.666 235.468-10.667 170.667-10.667zm0 170.667c-29.455 0-53.333-23.878-53.333-53.333s23.878-53.333 53.333-53.333S224 77.212 224 106.667 200.122 160 170.667 160zm682.666 170.667C788.532 330.667 736 383.199 736 448s52.532 117.333 117.333 117.333S970.666 512.801 970.666 448s-52.532-117.333-117.333-117.333zm0 170.666C823.878 501.333 800 477.455 800 448s23.878-53.333 53.333-53.333 53.333 23.878 53.333 53.333-23.878 53.333-53.333 53.333zM512 330.667c-64.801 0-117.333 52.532-117.333 117.333S447.199 565.333 512 565.333 629.333 512.801 629.333 448 576.801 330.667 512 330.667zm0 170.666c-29.455 0-53.333-23.878-53.333-53.333s23.878-53.333 53.333-53.333 53.333 23.878 53.333 53.333-23.878 53.333-53.333 53.333zM170.667 330.667c-64.801 0-117.333 52.532-117.333 117.333s52.532 117.333 117.333 117.333S288 512.801 288 448s-52.532-117.333-117.333-117.333zm0 170.666c-29.455 0-53.333-23.878-53.333-53.333s23.878-53.333 53.333-53.333S224 418.545 224 448s-23.878 53.333-53.333 53.333zM853.333 672C788.532 672 736 724.532 736 789.333s52.532 117.333 117.333 117.333 117.333-52.532 117.333-117.333S918.134 672 853.333 672zm0 170.667c-29.455 0-53.333-23.878-53.333-53.333s23.878-53.333 53.333-53.333 53.333 23.878 53.333 53.333-23.878 53.333-53.333 53.333zM512 672c-64.801 0-117.333 52.532-117.333 117.333S447.199 906.666 512 906.666s117.333-52.532 117.333-117.333S576.801 672 512 672zm0 170.667c-29.455 0-53.333-23.878-53.333-53.333s23.878-53.333 53.333-53.333 53.333 23.878 53.333 53.333-23.878 53.333-53.333 53.333z"/><glyph unicode="" glyph-name="abstract-31" d="M955.307 330.24c9.452 34.772 14.882 74.696 14.882 115.888 0 253.315-205.352 458.667-458.667 458.667S52.855 699.443 52.855 446.128c0-93.621 28.049-180.69 76.203-253.263L128 194.561c5.999-8.535 15.792-14.052 26.876-14.08h.004a29.304 29.304 0 0115.914 4.34l-.128-.073 240.64 138.667c9.435 5.806 15.662 16.029 15.787 27.715v236.818L670.72 448.001 194.987 173.228c-8.285-5.002-14.057-13.449-15.343-23.305l-.017-.161a31.483 31.483 0 01-.275-4.216c0-8.823 3.524-16.823 9.241-22.67l-.006.006C271.586 39.508 386.449-12.085 513.361-12.085c211.722 0 389.907 143.587 442.49 338.694l.736 3.206zM512 842.667l.849.001c217.497 0 393.813-176.316 393.813-393.813 0-21.387-1.705-42.376-4.986-62.839l.298 2.251-151.04 87.467-485.547 280.32C331.795 810 417.38 842.67 510.596 842.67c.494 0 .987-.001 1.481-.003h-.076zM364.8 369.92L167.68 255.573c-31.664 55.418-50.334 121.794-50.334 192.53 0 100.748 37.873 192.65 100.158 262.246l-.331-.376L364.8 624.64zM512 53.333c-.888-.007-1.937-.011-2.988-.011-92.502 0-177.49 32.171-244.385 85.935l.76-.59L734.72 409.6l151.467-87.467C832.296 164.587 685.512 53.332 512.743 53.332l-.783.001h.041z"/><glyph unicode="" glyph-name="abstract-32" d="M938.667 615.253c-23.973 61.304-58.736 113.609-102.378 156.991l-.022.022c-82.803 82.961-197.278 134.284-323.74 134.284-60.401 0-118.068-11.708-170.854-32.978l3.073 1.094c-61.318-23.936-113.629-58.704-156.987-102.374l-.026-.026C104.854 689.348 53.594 574.819 53.594 448.318c0-60.317 11.654-117.912 32.832-170.656l-1.094 3.084c23.936-61.318 58.704-113.629 102.374-156.987l.026-.026C270.419 40.69 384.84-10.698 511.263-10.698c60.485 0 118.223 11.763 171.051 33.125l-3.063-1.094c61.153 23.988 113.316 58.748 156.555 102.368l.032.032c82.981 83.063 134.3 197.77 134.3 324.463 0 60.116-11.555 117.534-32.565 170.153l1.091-3.096zM791.04 727.04c32.847-32.585 59.821-71.031 79.232-113.648l.981-2.405-117.76-117.76-218.88 218.453L416 832c28.601 7.431 61.436 11.697 95.267 11.697 109.399 0 208.379-44.608 279.744-116.627l.029-.029zM315.733 448L512 644.267 708.267 448 512 251.733zM232.96 727.04c32.585 32.847 71.031 59.821 113.648 79.232l2.405.981 117.76-117.76-218.88-218.88L128 352c-7.431 28.601-11.697 61.436-11.697 95.267 0 109.399 44.608 208.379 116.627 279.744l.029.029zm0-558.08c-32.847 32.585-59.821 71.031-79.232 113.648l-.981 2.405 117.76 117.76L608 64c-28.562-7.402-61.352-11.651-95.134-11.651-109.432 0-208.451 44.587-279.88 116.585l-.026.026zm442.027-80.213l-117.76 117.76 218.88 218.88L896 544c7.592-28.903 11.952-62.085 11.952-96.285 0-108.891-44.195-207.46-115.626-278.748l-.006-.006c-32.877-33.039-71.776-60.049-114.917-79.253l-2.416-.96z"/><glyph unicode="" glyph-name="abstract-33" d="M909.227 677.547c-80.903 138.443-228.802 229.975-398.08 229.975-253.786 0-459.52-205.734-459.52-459.52s205.734-459.52 459.52-459.52c253.785 0 459.519 205.733 459.52 459.518-.065 84.507-22.867 163.674-62.619 231.732l1.179-2.185zm-292.694-410.88H407.04L302.507 448l104.96 181.333H616.96L721.493 448zM117.333 448v.304c0 52.134 10.186 101.89 28.676 147.384l-.942-2.622 188.16-326.4H162.56c-28.011 52.613-44.68 114.966-45.226 181.162l-.001.171zm789.334 0v-.304c0-52.134-10.186-101.89-28.676-147.384l.942 2.622-188.16 326.4H861.44c28.011-52.613 44.68-114.966 45.226-181.162l.001-.171zm-85.334 245.333H444.16l85.333 148.907c118.127-5.647 221.991-62.239 290.808-148.125l.606-.782zM454.4 838.4l-93.44-161.28L265.813 512l-86.187 149.333c61.218 93.634 158.74 159.182 272.118 176.782l2.229.285zM203.093 202.667H579.84L494.507 53.76c-118.17 5.47-222.093 62.111-290.804 148.117l-.61.79zM570.027 57.6l188.16 325.547L843.52 234.24C782.404 140.96 685.236 75.62 572.27 57.89l-2.243-.29z"/><glyph unicode="" glyph-name="abstract-34" d="M741.547 845.227C675.523 883.182 596.376 905.57 512 905.57s-163.523-22.388-231.825-61.546l2.278 1.204C144.608 764.29 53.528 616.782 53.528 448.001s91.08-316.289 226.77-396.056l2.154-1.171c65.715-38.637 144.752-61.459 229.12-61.459s163.406 22.821 231.277 62.628l-2.157-1.169c137.845 80.938 228.925 228.446 228.925 397.227s-91.08 316.289-226.77 396.056l-2.154 1.171zM905.387 480h-128l-104.96 181.333 64 111.36c94.511-66.509 158.293-171.208 168.853-291.184l.107-1.509zM616.96 266.667H407.04L302.507 448 407.04 629.333h209.92L721.067 448zm65.707 538.026l-64-111.36H407.04l-65.707 111.36c49.97 24.147 108.671 38.259 170.667 38.259s120.697-14.112 173.064-39.298l-2.398 1.039zm-393.387-32l62.293-111.36L247.466 480h-128c10.455 121.357 73.93 226.035 166.867 291.86l1.24.834zM118.613 416h128l104.96-181.333-64-111.36C193.062 189.816 129.28 294.515 118.72 414.491l-.107 1.509zm222.72-324.693l64 111.36h209.92l67.413-111.36c-49.97-24.147-108.671-38.259-170.667-38.259S391.302 67.16 338.935 92.346l2.398-1.039zm393.387 32l-62.293 111.36L776.534 416h128c-10.455-121.357-73.93-226.035-166.867-291.86l-1.24-.834z"/><glyph unicode="" glyph-name="abstract-35" d="M969.387 415.573V448c-.52 241.819-187.747 439.744-425.151 457.297l-1.515.09h-32.427C268.475 904.867 70.55 717.64 52.997 480.236l-.09-1.515v-32.427C53.427 204.475 240.654 6.55 478.058-11.003l1.515-.09h33.28c241.819.52 439.744 187.747 457.297 425.151l.09 1.515zm-65.707 81.494l-50.347 49.067c-5.786 5.793-13.78 9.379-22.612 9.387h-.002c-7.893-.688-14.87-4.146-20.05-9.384l-.003-.003-57.173-55.467c-17.382 99.379-93.13 177.136-189.996 197.272l-1.577.274L481.707 768l72.96 72.107c181.857-20.62 325.231-161.954 348.798-341.036l.216-2.004zm-419.84-227.84c-87.208 13.533-153.175 88.081-153.175 178.036l.002.777V448a144.468 144.468 0 002.71 29.071l-.15-.912c13.533 87.208 88.081 153.175 178.036 153.175l.777-.002H512a141.45 141.45 0 0029.057-2.709l-.897.149c87.208-13.533 153.175-88.081 153.175-178.036l-.002-.777v.04a141.45 141.45 0 00-2.709-29.057l.149.897c-13.533-87.208-88.081-153.175-178.036-153.175l-.777.002h.04a144.468 144.468 0 00-29.071 2.71l.912-.15zM462.933 839.68l-49.067-50.347c-5.057-5.635-8.149-13.123-8.149-21.333s3.092-15.698 8.175-21.363l-.026.03 55.467-57.173c-99.489-17.44-177.293-93.378-197.276-190.429l-.27-1.571L192 417.707l-72.107 72.96c20.62 181.857 161.954 325.231 341.036 348.798l2.004.216zM121.6 398.933l49.067-49.067c5.786-5.793 13.78-9.379 22.612-9.387h.002c7.893.688 14.87 4.146 20.05 9.384l.003.003 56.747 55.467c17.671-99.376 93.497-177.067 190.415-197.27l1.585-.276L542.294 128l-72.96-72.107c-181.857 20.62-325.231 161.954-348.798 341.036l-.216 2.004zM562.347 57.6l47.787 49.067c5.782 5.789 9.359 13.784 9.359 22.613s-3.576 16.824-9.359 22.614l-55.467 54.187c99.485 17.729 177.223 93.745 197.274 190.848l.273 1.579 79.787 79.787 72.107-72.96C883.488 223.478 742.154 80.104 563.072 56.537l-2.004-.216z"/><glyph unicode="" glyph-name="abstract-36" d="M947.2 533.333c-28.35 47.554-77.507 80.159-134.582 85.285l-.672.049c9.408 20.699 14.891 44.888 14.891 70.357 0 95.906-77.747 173.653-173.653 173.653-57.196 0-107.933-27.652-139.573-70.316l-.331-.468c-31.78 46.112-84.299 75.952-143.787 75.952-95.994 0-173.84-77.698-174.079-173.636v-.023c.52-26.678 7.083-51.706 18.368-73.932l-.448.972c-90.526-6.55-161.488-81.602-161.488-173.227s70.962-166.677 160.925-173.194l.563-.033c-10.422-21.341-16.552-46.424-16.64-72.93v-.03c.851-95.493 78.46-172.577 174.074-172.577 57.925 0 109.241 28.291 140.886 71.81l.347.501c31.622-45.112 83.377-74.24 141.936-74.24h.152-.008c16.119.106 31.685 2.279 46.507 6.267l-1.281-.293c74.968 20.857 129.067 88.518 129.067 168.813 0 15.827-2.102 31.163-6.042 45.745l.282-1.225c-3.008 10.852-6.644 20.203-11.084 29.083l.418-.923c88.94 8.025 158.106 82.218 158.106 172.565 0 31.639-8.482 61.297-23.297 86.824l.444-.83zm-349.867 256c15.789 9.27 34.775 14.744 55.04 14.744 60.809 0 110.104-49.295 110.104-110.104 0-40.544-21.914-75.97-54.544-95.079l-.52-.281L544 503.466v190.72l-.002.579c0 39.904 21.15 74.868 52.852 94.293l.483.275zm-227.413 15.36C430.767 804.451 480 755.068 480 694.187V503.466l-165.12 95.573c-33.375 19.33-55.466 54.874-55.466 95.577 0 60.796 49.284 110.08 110.08 110.08.3 0 .599-.001.898-.004h-.046zM132.267 503.04c19.276 34.02 55.235 56.602 96.468 56.602 19.724 0 38.24-5.167 54.27-14.222l-.551.286 165.547-97.707-165.547-95.573c-15.772-9.247-34.734-14.708-54.971-14.708-60.796 0-110.08 49.284-110.08 110.08 0 20.347 5.52 39.405 15.145 55.757l-.281-.515zM369.92 91.307a111.74 111.74 0 00-.852-.003c-60.796 0-110.08 49.284-110.08 110.08 0 40.703 22.091 76.246 54.938 95.294l.528.282 165.12 95.573V201.81c0-60.731-48.99-110.02-109.608-110.503h-.046zm379.733 55.466c-14.475-25.238-38.09-43.846-66.225-51.451l-.762-.175c-8.574-2.398-18.42-3.777-28.587-3.777-60.796 0-110.08 49.284-110.08 110.08l.001.383v-.02 190.72l165.12-95.573c33.351-19.123 55.456-54.517 55.456-95.075 0-20.311-5.544-39.327-15.201-55.617l.277.506zm103.68 205.654c-15.86-9.268-34.918-14.739-55.253-14.739s-39.393 5.472-55.781 15.023l.528-.284L576 448l165.12 95.573c16.061 9.585 35.422 15.252 56.107 15.252 61.207 0 110.825-49.618 110.825-110.825 0-40.522-21.748-75.965-54.209-95.293l-.509-.281z"/><glyph unicode="" glyph-name="abstract-37" d="M970.667 448v.373c0 84.384-42.826 158.765-107.929 202.594l-.871.553c-6.121 82.755-52.588 153.461-119.61 193.085l-1.136.622c-34.96 20.771-77.075 33.048-122.057 33.048-22.918 0-45.091-3.187-66.101-9.141l1.705.413c-16.416-4.671-30.575-10.338-43.982-17.257l1.316.617c-31.157 15.342-67.823 24.316-106.585 24.316-44.585 0-86.397-11.872-122.447-32.628l1.192.633c-55.558-32.446-96.447-84.88-113.108-147.213l-.385-1.693c-3.842-13.722-6.716-29.861-8.047-46.436l-.06-.924C96.993 604.618 54.459 530.531 54.459 446.509S96.993 288.4 161.704 244.603l.858-.548c8.97-126.726 113.977-226.134 242.202-226.134l.602.001h-.031c38.894.524 75.509 9.758 108.149 25.833l-1.482-.66c31.052-15.4 67.62-24.41 106.292-24.41 129.179 0 234.876 100.539 243.11 227.637l.037.72c65.444 43.996 108.192 117.376 109.225 200.803l.002.157zm-64 0v-.222c0-48.357-19.2-92.23-50.392-124.411l.045.046c-2.917 11.524-6.129 21.192-9.941 30.551l.554-1.538s0 3.413-2.133 5.547c-10.183 24.408-23.391 45.419-39.485 63.844l.232-.271-2.987 3.84c-9.24 10.206-19.143 19.433-29.777 27.77l-.516.39-5.12 4.267c-9.936 7.36-21.235 14.57-33.024 20.994l-1.536.766-7.253 2.987c-10.904 5.502-23.785 10.584-37.159 14.513l-1.668.42c-11.575 39.098-34.824 71.745-65.659 94.807l-.474.339c4.132 3.154 8.865 6.391 13.76 9.389l.746.425 5.12 3.413c25.456 14.676 55.983 23.333 88.533 23.333s63.078-8.658 89.406-23.796l-.873.463c53.988-32.074 89.606-90.088 89.606-156.422 0-.508-.002-1.015-.006-1.522l.001.078zM469.333 338.773c-38.104 15.245-65.879 48.969-72.445 89.786l-.088.667c-1.3 5.62-2.075 12.09-2.133 18.732v.041c.082 36.311 16.586 68.752 42.476 90.299l.191.154c19.735 17.025 45.629 27.395 73.944 27.395 15.654 0 30.567-3.169 44.134-8.901l-.745.28c38.735-14.746 67.092-48.633 73.725-89.79l.088-.663c1.3-5.62 2.075-12.09 2.133-18.732V448l.001-.346c0-36.223-16.534-68.584-42.467-89.947l-.2-.16c-19.798-17.243-45.853-27.755-74.362-27.755-15.982 0-31.193 3.304-44.987 9.265l.736-.283zm101.12 469.334c14.188 3.698 30.497 5.871 47.296 5.973h.064l.67.001c33.428 0 64.709-9.197 91.449-25.198l-.812.451c40.04-23.01 69.733-60.204 82.468-104.569l.306-1.244c-9.813 2.56-19.627 4.693-29.867 6.4h-2.56c-10.051 1.416-21.869 2.339-33.858 2.556l-.275.004c-43.305-.162-83.881-11.696-118.941-31.77l1.181.623c-18.991-10.623-35.376-22.794-50.012-36.781l.092.088c-13.187 3.518-28.326 5.538-43.937 5.538-26.115 0-50.909-5.653-73.226-15.803l1.11.452c-.509 4.989-.799 10.78-.799 16.64s.29 11.651.857 17.362l-.058-.722v9.387c1.194 9.555 2.989 18.081 5.413 26.338l-.293-1.164 2.56 9.813c3.955 12.104 8.723 22.546 14.492 32.328l-.412-.755c5.571 9.242 11.203 17.183 17.354 24.681l-.287-.361 9.387 10.24 6.827 6.4a198.789 198.789 0 0030.75 23.836l.824.484c12.497 7.46 26.928 13.848 42.146 18.419l1.374.355zm-341.333-128c21.238 77.759 91.247 133.974 174.385 133.974l.578-.001h-.03c15.275-.283 29.945-2.289 44.004-5.832l-1.337.285-5.547-5.973c-4.267-4.693-8.533-8.96-12.373-13.653-8.66-9.916-16.563-20.946-23.356-32.699l-.537-1.008c-6.651-11.298-12.707-24.405-17.452-38.124l-.468-1.556a21.204 21.204 0 01.009-4.791l-.009.098c-4.247-11.59-7.541-25.148-9.293-39.184l-.094-.922v-6.827c-.614-6.076-.965-13.13-.965-20.267s.35-14.191 1.035-21.147l-.07.881a43.129 43.129 0 01.012-7.415l-.011.162c.857-15.572 3.142-30.169 6.741-44.239l-.341 1.572v-2.133c-26.733-27.613-44.721-63.837-49.414-104.12l-.08-.84c-11.134 4.941-20.661 10.358-29.579 16.588l.566-.374c-2.987 0-5.12 3.84-7.68 5.547-7.225 5.48-13.628 11.072-19.628 17.068l.001-.001-6.827 7.253a185.909 185.909 0 00-20.017 26.92l-.463.814c-4.312 7.519-8.477 16.379-11.944 25.581l-.429 1.299c0 4.267-2.987 8.533-4.267 13.227s0 6.4 0 9.813c-2.989 12.238-4.704 26.288-4.704 40.739 0 .678.004 1.355.011 2.031l-.001-.103c-.763 6.108-1.199 13.176-1.199 20.347 0 9.385.746 18.596 2.183 27.576l-.13-.989zM117.333 448l-.001.567c0 48.248 19.205 92.01 50.387 124.06l-.039-.04 2.987-7.253c0-5.973 3.413-11.947 5.547-17.92 5.262-14.605 11.015-26.99 17.707-38.772l-.64 1.225c7.793-13.227 16.111-24.669 25.395-35.244l-.221.257 3.413-4.267a267.652 267.652 0 0129.373-27.772l.494-.388 5.973-4.267c9.918-7.632 21.099-14.721 32.905-20.762l1.229-.571 6.4-3.413c10.904-5.502 23.785-10.584 37.159-14.513l1.668-.42c11.575-39.098 34.824-71.745 65.659-94.807l.474-.339c-3.923-3.052-8.377-6.147-12.992-9.005l-.661-.381-5.547-3.84c-25.385-14.679-55.841-23.34-88.32-23.34s-62.935 8.661-89.185 23.8l.865-.46c-54.205 31.71-90.037 89.639-90.037 155.937 0 .679.004 1.356.011 2.033l-.001-.103zM452.267 87.893c-13.909-3.837-29.879-6.042-46.365-6.042-33.709 0-65.264 9.219-92.282 25.274l.834-.459c-39.9 23.051-69.453 60.244-82.046 104.574l-.301 1.239c9.813-2.56 20.053-4.693 30.293-6.4 10.198-1.434 22.166-2.358 34.309-2.557l.251-.003.833-.001c43.602 0 84.505 11.555 119.814 31.771l-1.181-.623c18.868 10.494 35.127 22.674 49.54 36.738l-.046-.045c13.086-3.525 28.111-5.551 43.608-5.551 26.271 0 51.182 5.819 73.516 16.239l-1.071-.448c.507-5.052.796-10.919.796-16.853s-.289-11.801-.854-17.587l.058.734v-9.387c-.988-9.534-2.792-18.221-5.377-26.564l.257.964-2.56-9.387c-4.072-12.319-8.837-22.898-14.539-32.872l.459.872c-5.735-9.109-11.357-16.904-17.413-24.331l.346.438-9.387-10.24-6.827-6.4a177.859 177.859 0 00-32.438-24.293l-.842-.454c-11.872-7.159-25.576-13.386-40.012-17.97l-1.375-.377zm256 18.347c-25.663-15.203-56.564-24.187-89.564-24.187-15.471 0-30.481 1.975-44.792 5.686l1.236-.272a77.21 77.21 0 005.526 5.954l.02.019c4.267 4.693 8.533 8.96 12.373 13.653 8.33 9.819 16.212 20.688 23.24 32.137l.653 1.143c6.529 11.356 12.582 24.601 17.408 38.422l.512 1.685a21.204 21.204 0 01-.009 4.791l.009-.098c4.247 11.59 7.541 25.148 9.293 39.184l.094.922v6.827c.614 6.076.965 13.13.965 20.267s-.35 14.191-1.035 21.147l.07-.881a43.129 43.129 0 01-.012 7.415l.011-.162c-.857 15.572-3.142 30.169-6.741 44.239l.341-1.572v2.133c26.813 27.564 44.823 63.815 49.417 104.139l.076.821c11.134-4.941 20.661-10.358 29.579-16.588l-.566.374c2.987 0 5.12-3.84 7.68-5.547 7.255-5.446 13.669-11.183 19.558-17.42l.068-.073 6.827-6.827a170.59 170.59 0 0020.045-27.363l.435-.797c4.134-7.481 8.297-16.479 11.858-25.775l.516-1.532c1.098-2.938 2.269-6.785 3.243-10.71l.17-.81c0-4.267 2.133-8.96 3.413-13.227 2.267-11.199 3.656-24.151 3.838-37.395l.002-.151c.063-1.785.099-3.882.099-5.987 0-64.305-33.63-120.755-84.262-152.721l-.744-.438z"/><glyph unicode="" glyph-name="abstract-38" d="M959.573 308.907c-5.394 9.735-15.608 16.216-27.335 16.216l-.42-.003H383.999l123.307 213.333 99.84-175.787c5.56-9.505 15.719-15.789 27.345-15.789.137 0 .273.001.409.003h247.872c17.629.058 31.899 14.362 31.899 32a31.854 31.854 0 01-4.248 15.942l.082-.155-227.84 394.667c-20.97 35.673-59.139 59.253-102.819 59.307H381.438c-11.935-.033-22.31-6.684-27.651-16.475l-.083-.165-277.76-479.573c-10.067-17.064-16.015-37.597-16.015-59.52s5.947-42.456 16.317-60.075l-.302.555 98.56-170.667c5.502-9.743 15.788-16.214 27.585-16.214h554.968c44.23 0 82.866 23.951 103.647 59.59l.307.57 98.56 170.667c2.832 4.483 4.513 9.938 4.513 15.787s-1.681 11.304-4.586 15.91l.073-.123zm-333.226 449.28l200.96-347.733h-174.08l-216.32 375.04h142.08c20.061-.249 37.549-11.028 47.22-27.056l.14-.251zM131.413 320L381.44 753.493l85.333-150.613-261.12-453.547-3.413-5.547-70.827 121.6c-4.56 7.843-7.251 17.261-7.251 27.307s2.691 19.464 7.393 27.571l-.141-.264zm674.134-182.187c-9.727-16.626-27.46-27.639-47.773-27.733H256.001l85.333 150.613h535.04z"/><glyph unicode="" glyph-name="abstract-39" d="M970.667 448c-.102 30.24-3.048 59.726-8.584 88.288l.477-2.955c-12.933 66.471-38.706 125.307-74.767 176.356l.954-1.423c-42.25 60.621-97.078 109.583-160.96 143.864l-2.454 1.203c-61.969 33.483-135.644 53.162-213.914 53.162-154.575 0-291.223-76.749-373.918-194.219l-.968-1.45c-35.754-50.297-61.862-110.039-74.217-174.664l-.45-2.83c-5.059-25.607-8.005-55.093-8.106-85.249v-.084c.242-253.067 205.206-458.181 458.193-458.667H512c20.071.207 39.598 1.596 58.774 4.102l-2.454-.262c227.611 29.359 401.759 221.666 402.347 454.766v.061zm-853.334 0a400.176 400.176 0 003.192 47.193l-.205-1.966c86.722-17.963 161.088-62.16 216.422-123.792l.325-.368c5.912-7.105 14.756-11.594 24.65-11.594 8.667 0 16.529 3.446 22.292 9.042l-.008-.008c5.758 5.721 9.322 13.644 9.322 22.4s-3.564 16.679-9.32 22.398l-.002.002c-64.278 72.39-150.588 123.937-248.361 144.131l-2.945.509c10.719 37.809 25.274 70.82 43.689 101.232l-1.023-1.819c100.11-24.684 186.598-73.221 256.248-139.327l-.248.233a31.451 31.451 0 0122.218-8.533h-.031a27.5 27.5 0 01.895-.013c8.771 0 16.659 3.781 22.123 9.802l.022.025c5.782 5.789 9.359 13.784 9.359 22.613s-3.576 16.824-9.359 22.614c-70.213 66.775-156.087 117.767-251.506 146.874l-4.494 1.179c72.234 81.061 176.927 131.863 293.485 131.863 42.389 0 83.209-6.719 121.452-19.15l-2.777.781c-80.499-38.514-149.511-86.928-209.27-144.836l.203.196c-5.782-5.789-9.359-13.784-9.359-22.613s3.576-16.824 9.359-22.614c5.9-5.935 14.021-9.656 23.01-9.813h.03c.222-.006.482-.009.744-.009 8.524 0 16.249 3.424 21.873 8.972l-.003-.003c67.093 65.364 146.901 118.057 235.312 153.973l4.901 1.76c36.821-22.089 68.423-48.123 95.692-78.162l.308-.345c-263.827-79.126-452.893-319.475-453.547-604.084V87.04c-139.316 63.134-234.51 200.911-234.667 360.939V448zM416 64v42.667c.691 264.172 182.057 485.79 427.018 547.853l3.916.841c17.584-28.602 32.154-61.633 42.001-96.643l.666-2.77c-210.826-43.993-366.933-228.292-366.933-449.051v-.241.012a437.704 437.704 0 013.645-54.661l-.232 2.181h-14.08a371.428 371.428 0 00-7.702-.077c-30.71 0-60.577 3.605-89.203 10.415l2.611-.524zm170.667-4.267c-.421 7.012-.661 15.211-.661 23.467s.24 16.454.713 24.59l-.052-1.124c.021 190.386 134.992 349.242 314.468 386.123l2.545.437c1.917-14.538 3.01-31.349 3.01-48.416 0-189.747-135.22-347.911-314.554-383.388l-2.483-.41z"/><glyph unicode="" glyph-name="abstract-40" d="M958.72 192L600.747 814.507l-13.227 23.467c-14.593 27.325-42.922 45.603-75.52 45.603s-60.927-18.278-75.296-45.145l-.224-.458L85.333 225.707l-17.92-30.72c-8.309-12.934-13.246-28.722-13.246-45.663 0-47.128 38.205-85.333 85.333-85.333.457 0 .913.004 1.367.011l-.069-.001h301.227c17.673 0 32 14.327 32 32s-14.327 32-32 32H140.698c-12.725 0-23.04 10.315-23.04 23.04 0 4.242 1.146 8.216 3.146 11.629l-.059-.109 17.493 29.44c9.813 16.213 20.053 32.853 31.147 49.493 75.52 117.333 177.92 236.373 320.853 256h21.76c51.238-.146 95.943-27.973 119.963-69.309l.357-.665c11.533-19.343 18.351-42.657 18.351-67.563 0-.397-.002-.794-.005-1.191v.061a136.855 136.855 0 00-4.038-32.94l.198.94v-5.12c-3.05-11.367-7.132-21.294-12.291-30.538l.344.671c-24.228-42.105-68.968-69.999-120.222-69.999-.934 0-1.867.009-2.797.028l.139-.002a125.79 125.79 0 00-2.637-.026c-31.41 0-60.262 10.949-82.95 29.237l.254-.198c-5.15 3.601-11.544 5.753-18.44 5.753-9.619 0-18.261-4.189-24.199-10.842l-.028-.032c-4.211-5.466-6.749-12.411-6.749-19.948 0-10.141 4.595-19.21 11.817-25.236l.052-.043c33.927-26.639 77.244-42.721 124.317-42.721 76.034 0 142.268 41.959 176.81 103.985l.526 1.03c6.923 12.774 13.026 27.64 17.521 43.188l.399 1.612v2.987c3.161 9.706 6.407 22.319 8.989 35.173l.398 2.374v11.52c0 3.84 2.987 17.493 3.84 26.453s0 8.96 0 13.227v38.4c.208 3.886.327 8.436.327 13.013s-.119 9.127-.353 13.646l.026-.633c.107 1.214.168 2.627.168 4.053s-.061 2.839-.18 4.235l.013-.182 179.627-311.04c1.941-3.305 3.087-7.279 3.087-11.52 0-12.725-10.315-23.04-23.04-23.04h-.106.005c-4.272-.046-9.321-.072-14.376-.072-57.779 0-114.755 3.437-170.736 10.116l6.765-.657a31.035 31.035 0 01-4.053.257c-17.697 0-32.044-14.347-32.044-32.044 0-16.268 12.123-29.705 27.828-31.769l.162-.017c47.468-5.353 102.493-8.407 158.231-8.407 10.524 0 21.022.109 31.494.326l-1.565-.026c.484-.01 1.056-.016 1.628-.016 47.128 0 85.333 38.205 85.333 85.333 0 15.716-4.248 30.439-11.659 43.085l.218-.402zM512 563.2c-10.689-.575-20.524-1.64-30.194-3.201l1.608.214c-16.318-1.973-30.79-4.818-44.873-8.613l2.206.506-14.08-2.987c-9.813-2.987-19.627-5.973-29.44-9.813l-11.093-4.267c-14.623-5.907-26.552-11.633-38.088-17.986l1.821.919q-17.067-9.387-33.28-20.48l-4.267-2.56 179.627 311.04c3.854 7.284 11.384 12.162 20.053 12.162s16.199-4.878 19.994-12.039l.059-.123 12.8-22.187 14.507-26.453c1.38-2.327 2.808-5.129 4.068-8.022l.199-.512c3.84-6.827 7.68-14.08 11.093-21.333s2.987-5.547 4.693-8.533l13.227-26.88a15.482 15.482 0 01.009-3.917l-.008.077c10.24-22.187 20.48-45.653 29.44-69.547 12.257-31.645 23.036-69.434 30.475-108.407l.672-4.233c-36.541 35.29-86.33 57.068-141.206 57.173h-.021z"/><glyph unicode="" glyph-name="abstract-41" d="M957.44 700.587c1.665 3.662 2.635 7.942 2.635 12.449 0 9.12-3.974 17.312-10.285 22.938l-.03.027-113.92 115.2c-17.829 18.204-42.661 29.489-70.129 29.489-10.77 0-21.135-1.735-30.831-4.941l.693.199c-120.32-42.667-422.4-27.307-469.333 11.093a23.242 23.242 0 01-6.236 3.362l-.164.051c-3.693 1.639-8.002 2.594-12.533 2.594-9.218 0-17.513-3.95-23.286-10.25l-.021-.024-119.467-113.493c-18.138-17.95-29.37-42.848-29.37-70.369 0-10.679 1.691-20.962 4.82-30.598l-.197.7c16.965-59.139 26.721-127.065 26.721-197.269 0-6.999-.097-13.976-.29-20.928l.022 1.024c0-163.413-30.293-241.92-36.267-250.027a23.242 23.242 0 01-3.362-6.236l-.051-.164c-1.639-3.693-2.594-8.002-2.594-12.533 0-9.218 3.95-17.513 10.25-23.286l.024-.021 114.773-115.2c17.82-18.142 42.61-29.385 70.027-29.385a98.075 98.075 0 0130.507 4.834l-.694-.196c120.32 42.667 422.4 27.307 469.333-11.093a30.555 30.555 0 0120.514-7.253l-.034-.001h.004c9.26 0 17.601 3.933 23.445 10.22l.018.02a23.603 23.603 0 012.071 3.281l.063.132 113.92 112.64c18.204 17.829 29.489 42.661 29.489 70.129 0 10.77-1.735 21.135-4.941 30.831l.199-.693c-42.667 120.32-27.307 422.4 11.093 469.333a23.674 23.674 0 013.38 3.371l.033.042zM755.2 818.347c2.925.919 6.288 1.448 9.775 1.448 9.571 0 18.211-3.989 24.347-10.396l.012-.012 91.307-92.587-4.693-3.413L859.735 704l-12.373-6.4-10.24-4.267c-45.39-19.489-98.158-34.418-153.207-42.271l-3.38-.395h-2.987c-45.776-6.294-98.674-9.886-152.411-9.886-4.619 0-9.231.027-13.838.079l.702-.006h-.12c-50.493 0-100.226 3.256-149.001 9.569l5.761-.609v7.68c-3.413 19.627-7.253 38.4-12.373 57.173 0 7.68-3.413 14.933-5.547 22.187s-6.4 15.36-9.387 22.613-6.4 19.2-10.24 29.867-4.267 10.667-6.827 16.213c55.127-9.77 118.594-15.355 183.365-15.355 87.793 0 173.189 10.262 255.055 29.651l-7.486-1.495zM648.107 311.893c-40.696 4.484-87.89 7.041-135.68 7.041s-94.982-2.558-141.447-7.543l5.767.502c4.621 41.219 7.258 89.004 7.258 137.405 0 1.193-.002 2.386-.005 3.579v-.184c-.046 46.643-2.524 92.649-7.315 137.965l.488-5.698c39.704-4.997 86.454-8.232 133.814-8.948L512 576l1.898-.001c47.28 0 93.943 2.635 139.853 7.767l-5.644-.513c-4.555-40.701-7.154-87.887-7.154-135.68s2.599-94.979 7.662-141.424l-.508 5.744zm-498.774 412.16l94.293 93.013 2.56-3.84c4.267-6.4 8.533-13.653 12.373-20.907a46.118 46.118 0 013.524-6.583l-.111.183c9.488-19.089 18.344-41.736 25.257-65.216l.77-3.051v-9.387c2.987-9.813 5.12-19.627 7.68-30.293s0-9.387 2.987-14.08l5.12-28.587 4.693-16.64c7.07-47.805 11.107-102.985 11.107-159.108 0-1.963-.005-3.926-.015-5.887l.001.302c.027-3.017.042-6.584.042-10.154 0-49.645-2.961-98.599-8.715-146.695l.566 5.809c-26.88-4.693-52.907-10.24-77.653-17.067h-2.133c-12.373-3.413-23.893-7.253-35.413-11.093h-5.547c-11.947-4.267-23.467-8.96-34.133-13.653h-2.987c10.889 54.291 17.12 116.705 17.12 180.574 0 3.567-.019 7.13-.058 10.688l.005-.542c.147 5.711.23 12.437.23 19.181 0 77.337-10.992 152.107-31.498 222.833l1.401-5.641c-.987 3.163-1.555 6.8-1.555 10.57 0 9.801 3.842 18.704 10.103 25.286l-.015-.015zM268.8 77.653c-2.853-.849-6.13-1.338-9.522-1.338-9.63 0-18.341 3.939-24.608 10.294l-.004.004-91.733 92.587 5.547 3.413 10.667 6.4 11.52 2.987 14.08 6.4 8.533 3.84 17.493 6.4h5.973c9.813 3.413 20.053 6.827 31.147 9.813l21.333 5.973h8.107l26.88 10.24h3.84l36.693 6.4c49.718 7.485 107.091 11.76 165.463 11.76 51.619 0 102.458-3.343 152.311-9.824l-5.881.625c7.585-43.781 17.505-81.951 30.184-118.839l-1.597 5.346a24.233 24.233 0 01.009-5.228l-.01.108c4.019-12.098 7.918-21.836 12.294-31.309l-.774 1.869 2.56-6.827c-56.329 10.186-121.162 16.011-187.355 16.011-86.198 0-170.088-9.877-250.602-28.56l7.451 1.456zm604.16 93.014L780.8 78.934l-3.84 5.973c0 2.987-3.84 5.973-5.547 9.387l-6.4 12.8c-1.465 2.601-3.038 5.826-4.441 9.142l-.252.672c-2.56 5.547-5.12 11.52-7.253 17.493l-2.987 7.68c-14.182 38.654-25.796 84.252-32.803 131.353l-.477 3.901c-7.632 50.332-11.991 108.408-11.991 167.503 0 51.198 3.272 101.632 9.618 151.104l-.614-5.86c44.304 7.403 83.212 17.484 120.716 30.558l-5.09-1.544h2.56c12.373 4.267 25.173 8.96 36.693 14.08-9.627-54.766-15.13-117.823-15.13-182.166 0-88.839 10.491-175.227 30.302-257.994l-1.519 7.52c.384-1.886.604-4.054.604-6.273 0-9.254-3.826-17.614-9.983-23.586l-.008-.008z"/><glyph unicode="" glyph-name="abstract-42" d="M970.24 618.667c.191 1.154.3 2.484.3 3.84s-.109 2.686-.319 3.982l.019-.142a28.425 28.425 0 01-.013 6.533l.013-.133-68.267 130.987c-17.186 33.89-51.479 56.873-91.21 57.599l-.097.001H519.679l-164.267 81.92a25.094 25.094 0 01-6.095-.012l.121.012a30.977 30.977 0 01-8.266-.018l.16.018a43.129 43.129 0 01-7.415-.012l.162.011a43.129 43.129 0 01-7.415-.012l.162.011-130.56-65.28c-34.422-17.464-57.6-52.596-57.6-93.142v-.315.016-288.853l-81.92-164.267v-6.4c-1.064-2.253-1.685-4.894-1.685-7.68s.621-5.427 1.732-7.792l-.047.112c-.195-1.026-.306-2.207-.306-3.413s.111-2.387.324-3.532l-.018.119 65.28-130.56c17.464-34.422 52.596-57.6 93.142-57.6H504.32l163.84-81.92c3.735-1.877 8.139-2.976 12.8-2.976s9.065 1.099 12.968 3.052l-.168-.076 130.987 65.28c35.103 16.411 59.268 50.886 60.582 91.139l.004.167v290.987l81.92 163.84a38.886 38.886 0 01-.011 6.977l.011-.151a24.28 24.28 0 012.958 7.518l.029.162zM844.8 735.147l42.667-85.333H418.134l106.667 106.667h285.867a42.718 42.718 0 0034.024-21.13l.109-.203zm-469.333-148.48H652.8V309.334H373.333zm0 109.226v128l85.333-42.667zM204.8 744.533c.442 15.601 9.194 29.062 21.969 36.156l.218.111 85.333 42.667v-468.48L205.653 461.654zm-25.6-350.72l85.333-85.333h-128zm0-232.96l-42.667 85.333h469.333L499.199 139.519H215.466c-15.445.257-28.867 8.681-36.158 21.132l-.109.201zm471.467 39.254v-128l-85.333 42.667zm170.666-48.64c-.442-15.601-9.194-29.062-21.969-36.156l-.218-.111-85.333-42.667V541.44L820.48 434.773zm23.04 350.72L759.04 587.52h128z"/><glyph unicode="" glyph-name="abstract-43" d="M970.24 618.667c.19 1.218.298 2.623.298 4.053s-.108 2.835-.317 4.207l.019-.154a28 28 0 01-.003 3.058l.003-.072c-1.731 3.603-3.871 6.698-6.418 9.406l.018-.019-238.507 238.933c-17.678 17.663-42.093 28.587-69.058 28.587H341.333c-1.218.19-2.623.298-4.053.298s-2.835-.108-4.207-.317l.154.019h-3.413c-3.467-1.515-6.434-3.525-8.968-5.981l.008.008-238.933-239.36c-17.663-17.678-28.587-42.093-28.587-69.058v-.065.003V275.2c-.19-1.218-.298-2.623-.298-4.053s.108-2.835.317-4.207l-.019.154v-3.413c1.843-3.412 3.969-6.354 6.423-8.985l-.023.025 238.933-236.8c17.786-17.527 42.165-28.407 69.085-28.586h315.011c4.441 0 8.662.942 12.473 2.638l-.196-.078c3.968 1.712 7.363 4.012 10.246 6.833l-.006-.006 236.8 235.947c17.527 17.786 28.407 42.165 28.586 69.085v314.915h-.427zM679.253 832L861.44 649.813H373.333v192.853H655.36c9.436-.207 17.886-4.26 23.876-10.648l.017-.018zm-28.586-523.52H373.334v278.187h277.333zM117.333 591.36c.207 9.436 4.26 17.886 10.648 23.876l.018.017L309.332 797.44V309.333h-192zM344.747 64L162.56 245.333h488.107v-192H368.64c-9.436.207-17.886 4.26-23.876 10.648l-.017.018zm561.92 241.493a35.305 35.305 0 00-9.826-23.906l.012.013L714.666 99.413v487.253h192z"/><glyph unicode="" glyph-name="abstract-44" d="M970.667 666.453v148.48c-.088 44.705-36.349 80.912-81.067 80.912a81.437 81.437 0 01-16.309-1.641l.522.089L128 744.533c-41.61-8.287-72.534-44.512-72.534-87.96l.001-.38v.02-210.346c.284-3.599 1.042-6.935 2.217-10.066l-.083.253v-3.413c1.722-2.924 3.701-5.446 5.968-7.675l.005-.005 5.547-2.987 3.84-2.133 221.44-67.84-166.4-34.133c-41.61-8.287-72.534-44.512-72.534-87.96l.001-.38v.02-148.48C55.709 36.393 91.86.242 136.512.001h.023c2.37-.301 5.111-.473 7.893-.473s5.524.172 8.215.505L152.321 0l745.813 149.333c41.638 8.466 72.533 44.78 72.533 88.311v.01-.001 212.48c.21 1.474.33 3.176.33 4.907s-.12 3.433-.351 5.099l.022-.193v3.413c-1.722 2.924-3.701 5.446-5.968 7.675l-.005.005a38.874 38.874 0 01-9.968 5.458l-.272.088-224.853 67.413 168.533 32c41.651 8.456 72.559 44.776 72.559 88.316 0 .752-.009 1.501-.028 2.248l.002-.111zm-64-426.666v-.082c0-12.562-8.9-23.046-20.738-25.489l-.168-.029L137.814 64a17.049 17.049 0 00-3.289-.312c-4.089 0-7.85 1.403-10.828 3.753l.037-.028c-3.891 3.134-6.369 7.888-6.4 13.221v148.994c0 12.562 8.9 23.046 20.738 25.489l.168.029 768 153.6zm-309.334 277.76L808.106 454.4l-78.933-16.213-298.667-59.733-212.907 63.147 38.4 6.4zm290.134 123.306l-768-154.027v170.749c0 12.562 8.9 23.046 20.738 25.489l.168.029L889.6 832a17.855 17.855 0 0010.704-3.868l-.037.028c3.891-3.134 6.369-7.888 6.4-13.221V666.372c0-12.562-8.9-23.046-20.738-25.489l-.168-.029z"/><glyph unicode="" glyph-name="abstract-45" d="M341.333 21.333c-23.564 0-42.667 19.103-42.667 42.667v512c0 23.564 19.103 42.667 42.667 42.667S384 599.564 384 576V64c0-23.564-19.103-42.667-42.667-42.667zm-128 341.334V704c0 23.564-19.103 42.667-42.667 42.667S127.999 727.564 127.999 704V362.667c0-23.564 19.103-42.667 42.667-42.667s42.667 19.103 42.667 42.667zm298.667-256c-23.564 0-42.667 19.103-42.667 42.667v682.667c0 23.564 19.103 42.667 42.667 42.667s42.667-19.103 42.667-42.667V149.334c0-23.564-19.103-42.667-42.667-42.667zm170.667 128c-23.564 0-42.667 19.103-42.667 42.667v469.333c0 23.564 19.103 42.667 42.667 42.667s42.667-19.103 42.667-42.667V277.334c0-23.564-19.103-42.667-42.667-42.667zm170.666-85.334c-23.564 0-42.667 19.103-42.667 42.667v341.333c0 23.564 19.103 42.667 42.667 42.667S896 556.897 896 533.333V192c0-23.564-19.103-42.667-42.667-42.667z"/><glyph unicode="" glyph-name="abstract-46" d="M832 163.84c3.413 4.693 6.827 8.96 9.813 13.653l8.107 12.373 8.533 14.507 6.827 12.8c2.56 5.12 5.12 10.667 7.253 16.213l5.12 11.947c7.186 16.398 13.501 35.787 17.948 55.879l.399 2.148a10.737 10.737 0 00.009 3.476l-.009-.062v8.107c1.978 15.378 3.108 33.168 3.108 51.222 0 69.884-16.92 135.816-46.886 193.924l1.112-2.372-2.987 5.547c-3.84 7.68-7.253 14.933-11.52 22.187s-5.547 9.813-8.107 14.507-8.533 14.933-13.227 22.187-5.973 9.387-9.387 14.08-9.387 14.507-14.933 21.76-7.253 9.813-10.667 14.507-10.24 14.08-16.213 20.907C717.598 751.773 663.699 803.1 604.472 847.732l-2.446 1.765-11.093 8.533c-19.2 14.08-38.827 27.733-59.733 42.667-4.65 3.521-10.531 5.64-16.907 5.64-.807 0-1.606-.034-2.396-.101l.103.007a31.01 31.01 0 01-15.092-3.921l.158.081c-69.391-43.99-129.63-92.565-183.835-147.141l-.058-.059-5.547-5.973c-53.28-54.128-98.305-116.595-132.899-185.221l-1.928-4.219h-2.133v-6.4c-5.12-11.52-9.813-23.04-14.507-34.133l-3.84-10.24c-4.267-12.373-8.107-25.173-11.52-37.547v-5.547c-8.408-29.982-13.242-64.412-13.242-99.971 0-22.104 1.868-43.772 5.454-64.855l-.319 2.267c28.16-155.733 161.28-267.093 375.04-313.173h13.653c14.507 2.987 29.013 6.4 42.667 10.24l11.52 3.413 29.013 8.96 38.4 14.08 12.373 5.12 23.467 10.667 11.52 5.547 23.04 12.8 9.387 5.12c9.387 5.547 17.92 11.52 26.453 17.067l3.413 2.56 27.307 20.907 7.253 6.4 16.64 15.787 9.387 9.813 12.373 14.08zm-15.36 101.973c-35.721-78.587-99.518-139.195-178.272-169.909l-2.208-.758-8.533-3.413L823.894 288c0-4.267-2.133-8.96-3.413-13.227-1.346-2.494-2.644-5.454-3.708-8.523l-.132-.437zM287.573 627.2L480 434.773v-122.88L239.787 552.106c15.472 28.796 31.309 53.355 48.847 76.557l-1.06-1.464zm258.56 185.173c13.653-9.813 27.307-20.48 40.533-31.147l-42.667-42.667v75.52zM696.32 677.547L544 525.227v122.88l91.307 91.307c21.524-19.698 41.439-39.884 60.289-61.039l.724-.827zm137.813-288.854L544 98.56v122.88l266.667 269.227c12.047-29.895 20.39-64.526 23.38-100.676l.086-1.298zM544 311.893v122.88L736.427 627.2c16.162-21.759 31.862-46.456 45.76-72.268l1.6-3.252zM437.333 781.227c13.653 11.093 27.733 21.76 42.667 32.427v-75.093zM480 647.68V524.8L328.107 677.12c19.382 22.302 39.169 42.63 60.039 61.797l.548.497zM189.867 388.267c3.3 37.658 11.626 72.412 24.349 104.962l-.882-2.562 267.52-267.52v-122.88zm10.666-101.12L397.226 90.454c-92.464 32.921-163.966 104.563-196.002 194.885l-.691 2.235z"/><glyph unicode="" glyph-name="abstract-47" d="M858.453 64H645.12c-17.673 0-32 14.327-32 32s14.327 32 32 32h213.333c.177-.003.385-.004.594-.004 15.711 0 29.439 8.492 36.844 21.136l.109.201c3.594 6.12 5.716 13.479 5.716 21.333s-2.123 15.214-5.825 21.535L896 192 576 746.667c-8.279 12.502-22.283 20.633-38.187 20.633s-29.907-8.132-38.081-20.464l-.105-.169-96.853-166.827c-5.148-11.191-16.263-18.821-29.16-18.821-17.673 0-32 14.327-32 32a31.86 31.86 0 006.183 18.911l-.063-.089 96.427 167.68c18.86 32.683 53.622 54.327 93.44 54.327s74.58-21.644 93.164-53.808l.276-.519 320.853-554.667c9.257-15.441 14.731-34.068 14.731-53.973s-5.474-38.533-15-54.458l.268.484c-19.046-31.887-53.377-52.91-92.619-52.91-.289 0-.577.001-.865.003h.044zM517.12 118.187c9.257 15.441 14.731 34.068 14.731 53.973s-5.474 38.533-15 54.458l.268-.484-129.707 221.867c-18.86 32.683-53.622 54.327-93.44 54.327s-74.58-21.644-93.164-53.808l-.276-.519-128-222.293c-9.257-15.441-14.731-34.068-14.731-53.973s5.474-38.533 15-54.458l-.268.484c18.92-32.336 53.465-53.721 93.008-53.76h256.006c.714-.017 1.556-.027 2.399-.027 38.937 0 73.002 20.863 91.624 52.02l.27.487zM256 414.72c8.183 12.51 22.126 20.661 37.973 20.661s29.791-8.151 37.867-20.488l.106-.173 128-222.293c3.594-6.12 5.716-13.479 5.716-21.333s-2.123-15.214-5.825-21.535l.109.201c-7.393-13.322-21.377-22.19-37.432-22.19-.19 0-.38.001-.57.004H165.973a45.77 45.77 0 00-.776-.007c-15.885 0-29.742 8.681-37.087 21.557l-.11.21c-3.594 6.12-5.716 13.479-5.716 21.333s2.123 15.214 5.825 21.535l-.109-.201 128 222.293z"/><glyph unicode="" glyph-name="abstract-48" d="M512-10.667C258.685-10.667 53.333 194.685 53.333 448S258.685 906.667 512 906.667c253.315 0 458.667-205.352 458.667-458.667-.243-253.217-205.45-458.424-458.644-458.667H512zm0 853.334c-217.968 0-394.667-176.698-394.667-394.667S294.031 53.333 512 53.333c217.968 0 394.667 176.698 394.667 394.667-.243 217.87-176.796 394.424-394.643 394.667H512zM841.813 448c-.243 182.053-147.76 329.571-329.79 329.813H512c-17.673 0-32-14.327-32-32s14.327-32 32-32c146.805 0 265.813-119.009 265.813-265.813S658.804 182.187 512 182.187c-146.805 0-265.813 119.009-265.813 265.813 0 17.673-14.327 32-32 32s-32-14.327-32-32c0-182.151 147.662-329.813 329.813-329.813S841.813 265.849 841.813 448zm-123.306 0c0 114.05-92.456 206.507-206.507 206.507-17.673 0-32-14.327-32-32s14.327-32 32-32c78.704 0 142.507-63.802 142.507-142.507S590.705 305.493 512 305.493c-17.673 0-32-14.327-32-32s14.327-32 32-32c114.05 0 206.507 92.456 206.507 206.507z"/><glyph unicode="" glyph-name="abstract-49" d="M704 714.667H597.333c-42.18 0-76.373-34.194-76.373-76.373V480.001h-21.333V638.37c0 40.979-32.275 74.42-72.792 76.291l-.168.006H320C172.724 714.667 53.333 595.276 53.333 448S172.724 181.333 320 181.333h106.667c42.18 0 76.373 34.194 76.373 76.373v158.293h21.333V257.63c0-40.979 32.275-74.42 72.792-76.291l.168-.006H704c147.276 0 266.667 119.391 266.667 266.667S851.276 714.667 704 714.667zm-266.667-456.96c0-6.834-5.54-12.373-12.373-12.373H320c-111.93 0-202.667 90.737-202.667 202.667S208.07 650.668 320 650.668h106.667c6.834 0 12.373-5.54 12.373-12.373V480.002h-95.147c-17.673 0-32-14.327-32-32s14.327-32 32-32h93.44zM704 245.333H597.333c-6.834 0-12.373 5.54-12.373 12.373v158.293h99.413c17.673 0 32 14.327 32 32s-14.327 32-32 32h-97.707v158.293l-.001.118c0 6.232 4.607 11.388 10.601 12.247l.066.008h106.667c111.93 0 202.667-90.737 202.667-202.667s-90.737-202.667-202.667-202.667z"/><glyph unicode="" glyph-name="abstract" d="M494.507 2.56l-.367-.001c-29.352 0-55.925 11.904-75.153 31.147l-.001.001-290.987 291.84c-20.989 20.87-33.978 49.766-33.978 81.695 0 15.939 3.237 31.121 9.089 44.926l-.284-.755 17.92 42.667c17.739 42.177 58.718 71.253 106.488 71.253h343.645L439.039 696.32c-19.244 19.229-31.147 45.801-31.147 75.153l.001.387v-.02c.046 29.46 11.932 56.135 31.154 75.528l-.008-.008 15.36 14.933c19.291 19.232 45.91 31.124 75.307 31.124s56.016-11.892 75.309-31.127l-.003.003 290.987-291.84c21.032-20.812 34.056-49.682 34.056-81.594 0-15.98-3.266-31.198-9.167-45.022l.284.749-17.92-42.667c-17.739-42.177-58.718-71.253-106.488-71.253H455.253L586.24 199.679c19.156-19.405 30.987-46.081 30.987-75.52s-11.831-56.115-30.998-75.532l.011.012-15.36-14.933C551.715 14.46 525.196 2.55 495.895 2.55c-.488 0-.976.003-1.462.01l.074-.001zM226.56 501.333h-.214c-21.272 0-39.538-12.865-47.445-31.238l-.128-.336-17.493-42.667c-2.945-6.236-4.664-13.546-4.664-21.257 0-13.608 5.353-25.966 14.069-35.082l-.018.019 291.84-291.413c7.712-7.668 18.343-12.407 30.08-12.407s22.368 4.74 30.082 12.409l-.002-.002 15.36 14.933c7.668 7.712 12.407 18.343 12.407 30.08s-4.74 22.368-12.409 30.082l.002-.002-183.893 185.6c-5.782 5.789-9.359 13.784-9.359 22.613 0 17.663 14.311 31.984 31.97 32h420.909c21.272 0 39.538 12.865 47.445 31.238l.128.336 17.493 42.667c2.894 6.218 4.583 13.498 4.583 21.173 0 13.621-5.319 25.999-13.992 35.171l.023-.024-293.547 291.84c-7.712 7.668-18.343 12.407-30.08 12.407s-22.368-4.74-30.082-12.409l.002.002-14.933-15.36c-7.763-7.612-12.628-18.155-12.8-29.835v-.032c.051-11.868 4.939-22.584 12.793-30.287l.007-.007 185.173-185.6c5.782-5.789 9.359-13.784 9.359-22.613 0-17.663-14.311-31.984-31.97-32h-.002z"/><glyph unicode="" glyph-name="add-files" d="M969.387 512.427a25.094 25.094 0 01-.012 6.095l.012-.121c.663 2.45 1.045 5.262 1.045 8.164a32.309 32.309 0 01-8.742 22.147l.017-.018-336.213 341.333a34.227 34.227 0 01-8.763 6.311l-.197.089h-2.987c-1.218.19-2.623.298-4.053.298s-2.835-.108-4.207-.317l.154.019h-272.64c-150.357-5.049-271.338-124.1-279.435-273.185l-.032-.735v-208.64c0-17.437 14.136-31.573 31.573-31.573s31.573 14.136 31.573 31.573v204.8c4.717 117.613 98.748 211.793 215.862 216.731l.458.015h237.653V664.746c0-94.257 76.41-170.667 170.667-170.667h166.827V268.372c.005-.509.007-1.111.007-1.714 0-113.217-91.299-205.11-204.289-206.072l-.092-.001H426.666c-17.673 0-32-14.327-32-32s14.327-32 32-32h274.773C849.497-1.97 968.964 118.39 968.964 266.653c0 .604-.002 1.208-.006 1.811v-.093zM739.84 558.08c-58.829.722-106.241 48.58-106.241 107.512l.001.458v-.024 123.307L861.867 558.08zM313.173 162.133v-.003c0-17.287-13.894-31.33-31.124-31.57h-52.503V78.93c0-17.523-14.085-31.757-31.551-31.997h-.023c-17.254.239-31.15 14.282-31.15 31.57 0 .151.001.302.003.452v-.023 52.907h-51.627c-16.664.68-29.915 14.354-29.915 31.122 0 .609.017 1.214.052 1.814l-.004-.083c.462 17.248 14.325 31.111 31.53 31.572l.043.001h51.2v51.2c.895 16.27 13.982 29.208 30.232 29.865l.062.002c17.254-.239 31.15-14.282 31.15-31.57 0-.151-.001-.302-.003-.452v.023-52.053h51.627c17.013-.462 30.685-14.134 31.146-31.103l.001-.043z"/><glyph unicode="" glyph-name="add-folder" d="M640 381.44c-.241-17.96-14.856-32.427-32.851-32.427h-70.403v-70.4c.016-.385.026-.837.026-1.291 0-17.618-14.05-31.954-31.556-32.415l-.043-.001h-.011c-17.609 0-31.939 14.036-32.414 31.529l-.001.044-3.413 73.813h-72.96c-17.96.241-32.427 14.856-32.427 32.851v.003c.476 18.009 15.189 32.427 33.269 32.427h70.411v70.4c-.007.261-.012.569-.012.878 0 17.698 13.995 32.128 31.522 32.827l.063.002c.639.046 1.385.072 2.137.072 17.437 0 31.573-14.136 31.573-31.573 0-.175-.001-.351-.004-.525v.026-72.533h73.387c.258.007.561.011.865.011 18.144 0 32.853-14.709 32.853-32.853 0-.304-.004-.607-.012-.909l.001.045zm301.653 205.653c-7.994 150.86-130.439 270.631-281.671 274.34l-.356.007H449.279c-21.716 27.593-55.093 45.166-92.577 45.227h-91.743c-115.752-.243-209.494-94.134-209.494-209.92v-.45.023-464.64l-.002-.859c0-133.373 108.12-241.493 241.493-241.493.601 0 1.201.002 1.8.007l-.092-.001h430.933c133.19.242 241.068 108.269 241.068 241.493l-.002.9v-.047 244.053c-.853 40.939-11.657 79.172-30.077 112.622l.637-1.262zM842.24 688.64c-33.053 18.528-72.537 29.44-114.57 29.44H592.184c-49.764 0-92.344 30.756-109.769 74.297l-.281.796v2.987h178.347c77.547-1.312 144.881-43.802 181.212-106.496l.548-1.024zm61.013-456.96l.001-.429c0-97.256-78.599-176.154-175.741-176.638H298.667c-97.188.484-175.787 79.382-175.787 176.638l.001.452v-.023 464.64l-.001.427c0 79.733 64.515 144.397 144.191 144.639h89.623c22.575-.056 41.876-14.018 49.792-33.771l.128-.362 15.36-38.4c27.085-68.491 92.722-116.057 169.469-116.057.421 0 .842.001 1.262.004h135.188c97.188-.484 175.787-79.382 175.787-176.638l-.001-.452v.023z"/><glyph unicode="" glyph-name="add-item" d="M810.667 650.667h-232.96c-87.712-.241-158.722-71.401-158.722-159.146l.002-.9v.046-341.333c.242-87.561 71.159-158.478 158.697-158.72h232.983l.854-.002c87.745 0 158.905 71.011 159.146 158.699v341.356l.002.856c0 87.894-71.252 159.147-159.147 159.147-.301 0-.602-.001-.902-.003h.046zm96-501.334c.002-.255.004-.556.004-.857 0-52.548-42.599-95.147-95.147-95.147-.301 0-.602.001-.903.004H577.707c-52.366.24-94.724 42.746-94.724 95.146 0 .3.001.6.004.9v-.046 341.333c.241 52.215 42.505 94.479 94.697 94.72h232.983c.254.002.554.004.854.004 52.399 0 94.906-42.358 95.146-94.701v-.023zm-551.254 128c-.237-17.577-14.423-31.763-31.977-32H213.333l-.856-.002c-87.894 0-159.147 71.252-159.147 159.147 0 .301.001.602.003.902v-.046 341.333l-.002.856c0 87.894 71.252 159.147 159.147 159.147.301 0 .602-.001.902-.003h234.194c87.158-.963 157.442-71.843 157.442-159.138l-.003-.909v.047c0-17.673-14.327-32-32-32s-32 14.327-32 32c-.241 52.215-42.505 94.479-94.697 94.72H213.333c-.254.002-.554.004-.854.004-52.399 0-94.906-42.358-95.146-94.701V405.334c-.002-.255-.004-.556-.004-.857 0-52.548 42.599-95.147 95.147-95.147.301 0 .602.001.903.004h110.034c17.577-.237 31.763-14.423 32-31.977v-.023zM805.547 320c0-17.673-14.327-32-32-32H736v-37.547c0-17.673-14.327-32-32-32s-32 14.327-32 32V288h-37.547c-17.673 0-32 14.327-32 32s14.327 32 32 32H672v37.547c0 17.673 14.327 32 32 32s32-14.327 32-32V352h37.547c17.673 0 32-14.327 32-32z"/><glyph unicode="" glyph-name="add-notepad" d="M858.453 775.253c-41.349 41.298-96.282 69.004-157.52 75.838l-1.2.109v5.12c0 17.673-14.327 32-32 32s-32-14.327-32-32v-3.84H388.266v3.84c0 17.673-14.327 32-32 32s-32-14.327-32-32v-5.12C191.084 835.902 88.581 723.935 88.319 587.973v-315.76c.242-146 118.533-264.291 264.51-264.533h318.316c146 .242 264.291 118.533 264.533 264.51v316.263c0 72.923-29.507 138.954-77.233 186.806l.006-.006zm13.227-503.04c-.242-110.654-89.879-200.291-200.51-200.533H352.854c-110.654.242-200.291 89.879-200.533 200.51v315.756c.355 100.008 73.705 182.777 169.532 197.827l1.135.147v-7.68c0-17.673 14.327-32 32-32s32 14.327 32 32v11.093h247.467v-10.24c0-17.673 14.327-32 32-32s32 14.327 32 32v6.827c96.996-14.076 170.672-96.66 170.672-196.453 0-.535-.002-1.069-.006-1.602l.001.082zM640 427.093v-.003c0-16.495-13.372-29.867-29.867-29.867-.15 0-.3.001-.449.003h-66.537v-65.28c.008-.262.013-.57.013-.879 0-16.52-13.041-29.995-29.39-30.692l-.063-.002c-16.489.23-29.823 13.415-30.292 29.823l-.001.044v67.84h-69.12c-15.34 1.87-27.106 14.814-27.106 30.507s11.766 28.637 26.958 30.492l.148.015h65.707v65.707c-.008.258-.012.561-.012.865 0 16.435 13.088 29.813 29.409 30.281l.043.001c.51.032 1.106.05 1.707.05 16.259 0 29.44-13.181 29.44-29.44v-.052.003-67.84h68.267c.262.008.571.013.881.013 16.731 0 30.293-13.563 30.293-30.293 0-.455-.01-.907-.03-1.357l.002.064z"/></font>
</defs>
</svg>
